ComicNeue_Bold_Oblique.ufo
<glyph name="exclam" format="1">
  <advance width="222"/>
  <unicode hex="0021"/>
  <outline>
    <contour>
      <point x="46" y="217" type="line" smooth="yes"/>
      <point x="40" y="190"/>
      <point x="57" y="168"/>
      <point x="84" y="168" type="curve" smooth="yes"/>
      <point x="112" y="168"/>
      <point x="138" y="190"/>
      <point x="144" y="217" type="curve" smooth="yes"/>
      <point x="230" y="625" type="line" smooth="yes"/>
      <point x="236" y="651"/>
      <point x="220" y="675"/>
      <point x="192" y="675" type="curve" smooth="yes"/>
      <point x="165" y="675"/>
      <point x="138" y="651"/>
      <point x="132" y="625" type="curve" smooth="yes"/>
    </contour>
    <contour>
      <point x="113" y="65" type="curve" smooth="yes"/>
      <point x="119" y="94"/>
      <point x="104" y="121"/>
      <point x="73" y="121" type="curve" smooth="yes"/>
      <point x="43" y="121"/>
      <point x="8" y="90"/>
      <point x="0" y="56" type="curve"/>
      <point x="-6" y="25"/>
      <point x="10" y="0"/>
      <point x="41" y="0" type="curve" smooth="yes"/>
      <point x="70" y="0"/>
      <point x="105" y="28"/>
    </contour>
  </outline>
</glyph>
<glyph name="quotedbl" format="1">
  <advance width="339"/>
  <unicode hex="0022"/>
  <outline>
    <contour>
      <point x="134" y="454" type="curve" smooth="yes"/>
      <point x="160" y="454"/>
      <point x="186" y="475"/>
      <point x="192" y="502" type="curve" smooth="yes"/>
      <point x="218" y="624" type="line" smooth="yes"/>
      <point x="224" y="650"/>
      <point x="206" y="672"/>
      <point x="180" y="672" type="curve" smooth="yes"/>
      <point x="153" y="672"/>
      <point x="128" y="650"/>
      <point x="122" y="624" type="curve" smooth="yes"/>
      <point x="96" y="502" type="line" smooth="yes"/>
      <point x="90" y="475"/>
      <point x="107" y="454"/>
    </contour>
    <contour>
      <point x="282" y="454" type="curve" smooth="yes"/>
      <point x="308" y="454"/>
      <point x="335" y="475"/>
      <point x="341" y="502" type="curve" smooth="yes"/>
      <point x="367" y="624" type="line" smooth="yes"/>
      <point x="373" y="650"/>
      <point x="354" y="672"/>
      <point x="328" y="672" type="curve" smooth="yes"/>
      <point x="301" y="672"/>
      <point x="276" y="650"/>
      <point x="270" y="624" type="curve" smooth="yes"/>
      <point x="244" y="502" type="line" smooth="yes"/>
      <point x="238" y="475"/>
      <point x="255" y="454"/>
    </contour>
  </outline>
</glyph>
<glyph name="numbersign" format="1">
  <advance width="772"/>
  <unicode hex="0023"/>
  <outline>
    <contour>
      <point x="303" y="72" type="line" smooth="yes"/>
      <point x="298" y="62"/>
      <point x="295" y="53"/>
      <point x="294" y="48" type="curve" smooth="yes"/>
      <point x="288" y="23"/>
      <point x="303" y="0"/>
      <point x="332" y="0" type="curve" smooth="yes"/>
      <point x="351" y="0"/>
      <point x="373" y="10"/>
      <point x="385" y="34" type="curve" smooth="yes"/>
      <point x="464" y="191" type="line"/>
      <point x="570" y="191" type="line" smooth="yes"/>
      <point x="596" y="191"/>
      <point x="623" y="212"/>
      <point x="628" y="239" type="curve"/>
      <point x="634" y="264"/>
      <point x="617" y="287"/>
      <point x="591" y="287" type="curve" smooth="yes"/>
      <point x="513" y="287" type="line"/>
      <point x="563" y="390" type="line"/>
      <point x="653" y="390" type="line" smooth="yes"/>
      <point x="678" y="390"/>
      <point x="706" y="411"/>
      <point x="712" y="438" type="curve" smooth="yes"/>
      <point x="717" y="463"/>
      <point x="699" y="486"/>
      <point x="674" y="486" type="curve" smooth="yes"/>
      <point x="612" y="486" type="line"/>
      <point x="672" y="603" type="line" smooth="yes"/>
      <point x="675" y="610"/>
      <point x="678" y="619"/>
      <point x="679" y="623" type="curve" smooth="yes"/>
      <point x="684" y="647"/>
      <point x="670" y="671"/>
      <point x="641" y="671" type="curve" smooth="yes"/>
      <point x="621" y="671"/>
      <point x="598" y="658"/>
      <point x="588" y="637" type="curve" smooth="yes"/>
      <point x="512" y="486" type="line"/>
      <point x="421" y="486" type="line"/>
      <point x="479" y="602" type="line" smooth="yes"/>
      <point x="483" y="610"/>
      <point x="486" y="615"/>
      <point x="488" y="624" type="curve" smooth="yes"/>
      <point x="493" y="649"/>
      <point x="479" y="671"/>
      <point x="450" y="671" type="curve" smooth="yes"/>
      <point x="430" y="671"/>
      <point x="406" y="658"/>
      <point x="396" y="637" type="curve" smooth="yes"/>
      <point x="321" y="486" type="line"/>
      <point x="200" y="486" type="line" smooth="yes"/>
      <point x="173" y="486"/>
      <point x="147" y="463"/>
      <point x="142" y="438" type="curve" smooth="yes"/>
      <point x="136" y="411"/>
      <point x="152" y="390"/>
      <point x="179" y="390" type="curve" smooth="yes"/>
      <point x="271" y="390" type="line"/>
      <point x="250" y="345"/>
      <point x="239" y="327"/>
      <point x="220" y="287" type="curve"/>
      <point x="117" y="287" type="line" smooth="yes"/>
      <point x="90" y="287"/>
      <point x="64" y="264"/>
      <point x="58" y="239" type="curve"/>
      <point x="53" y="212"/>
      <point x="69" y="191"/>
      <point x="96" y="191" type="curve" smooth="yes"/>
      <point x="171" y="191" type="line"/>
      <point x="112" y="71" type="line"/>
      <point x="106" y="61"/>
      <point x="103" y="55"/>
      <point x="101" y="46" type="curve" smooth="yes"/>
      <point x="96" y="23"/>
      <point x="111" y="0"/>
      <point x="140" y="0" type="curve" smooth="yes"/>
      <point x="159" y="0"/>
      <point x="182" y="11"/>
      <point x="194" y="34" type="curve" smooth="yes"/>
      <point x="272" y="191" type="line"/>
      <point x="363" y="191" type="line"/>
    </contour>
    <contour>
      <point x="412" y="287" type="line"/>
      <point x="321" y="287" type="line"/>
      <point x="371" y="390" type="line"/>
      <point x="463" y="390" type="line"/>
    </contour>
  </outline>
</glyph>
<glyph name="dollar" format="1">
  <advance width="630"/>
  <unicode hex="0024"/>
  <outline>
    <contour>
      <point x="497" y="511" type="curve" smooth="yes"/>
      <point x="495" y="487"/>
      <point x="510" y="470"/>
      <point x="537" y="470" type="curve" smooth="yes"/>
      <point x="561" y="470"/>
      <point x="588" y="490"/>
      <point x="593" y="515" type="curve" smooth="yes"/>
      <point x="615" y="618"/>
      <point x="526" y="657"/>
      <point x="442" y="662" type="curve"/>
      <point x="446" y="680" type="line" smooth="yes"/>
      <point x="451" y="705"/>
      <point x="433" y="728"/>
      <point x="407" y="728" type="curve" smooth="yes"/>
      <point x="381" y="728"/>
      <point x="355" y="705"/>
      <point x="350" y="680" type="curve" smooth="yes"/>
      <point x="346" y="659" type="line"/>
      <point x="257" y="648"/>
      <point x="167" y="599"/>
      <point x="143" y="486" type="curve" smooth="yes"/>
      <point x="123" y="394"/>
      <point x="194" y="341"/>
      <point x="272" y="312" type="curve"/>
      <point x="226" y="98" type="line"/>
      <point x="183" y="108"/>
      <point x="149" y="134"/>
      <point x="143" y="177" type="curve"/>
      <point x="141" y="198"/>
      <point x="126" y="213"/>
      <point x="103" y="213" type="curve" smooth="yes"/>
      <point x="72" y="213"/>
      <point x="46" y="184"/>
      <point x="42" y="166" type="curve" smooth="yes"/>
      <point x="39" y="152"/>
      <point x="41" y="148"/>
      <point x="41" y="144" type="curve"/>
      <point x="54" y="68"/>
      <point x="117" y="16"/>
      <point x="206" y="3" type="curve"/>
      <point x="201" y="-19" type="line" smooth="yes"/>
      <point x="196" y="-45"/>
      <point x="212" y="-67"/>
      <point x="238" y="-67" type="curve" smooth="yes"/>
      <point x="264" y="-67"/>
      <point x="292" y="-45"/>
      <point x="297" y="-19" type="curve" smooth="yes"/>
      <point x="302" y="4" type="line"/>
      <point x="417" y="24"/>
      <point x="505" y="92"/>
      <point x="527" y="196" type="curve" smooth="yes"/>
      <point x="546" y="283"/>
      <point x="499" y="346"/>
      <point x="384" y="386" type="curve"/>
      <point x="423" y="570" type="line"/>
      <point x="454" y="565"/>
      <point x="501" y="551"/>
    </contour>
    <contour>
      <point x="245" y="483" type="curve" smooth="yes"/>
      <point x="252" y="513"/>
      <point x="269" y="549"/>
      <point x="325" y="564" type="curve"/>
      <point x="295" y="419" type="line"/>
      <point x="257" y="438"/>
      <point x="240" y="460"/>
    </contour>
    <contour>
      <point x="361" y="282" type="line"/>
      <point x="430" y="251"/>
      <point x="430" y="219"/>
      <point x="426" y="202" type="curve" smooth="yes"/>
      <point x="414" y="145"/>
      <point x="373" y="114"/>
      <point x="323" y="101" type="curve"/>
    </contour>
  </outline>
</glyph>
<glyph name="ampersand" format="1">
  <advance width="686"/>
  <unicode hex="0026"/>
  <outline>
    <contour>
      <point x="483" y="170" type="line"/>
      <point x="504" y="201"/>
      <point x="535" y="250"/>
      <point x="540" y="275" type="curve" smooth="yes"/>
      <point x="546" y="302"/>
      <point x="530" y="322"/>
      <point x="503" y="322" type="curve" smooth="yes"/>
      <point x="473" y="322"/>
      <point x="462" y="310"/>
      <point x="444" y="276" type="curve" smooth="yes"/>
      <point x="431" y="251" type="line"/>
      <point x="366" y="358" type="line"/>
      <point x="446" y="401"/>
      <point x="492" y="448"/>
      <point x="508" y="523" type="curve" smooth="yes"/>
      <point x="524" y="600"/>
      <point x="464" y="672"/>
      <point x="383" y="672" type="curve" smooth="yes"/>
      <point x="302" y="672"/>
      <point x="212" y="600"/>
      <point x="195" y="521" type="curve" smooth="yes"/>
      <point x="184" y="466"/>
      <point x="202" y="419"/>
      <point x="221" y="384" type="curve"/>
      <point x="144" y="344"/>
      <point x="67" y="291"/>
      <point x="45" y="187" type="curve" smooth="yes"/>
      <point x="20" y="70"/>
      <point x="113" y="-4"/>
      <point x="212" y="-4" type="curve" smooth="yes"/>
      <point x="287" y="-4"/>
      <point x="357" y="34"/>
      <point x="412" y="87" type="curve"/>
      <point x="455" y="17" type="line" smooth="yes"/>
      <point x="462" y="6"/>
      <point x="474" y="0"/>
      <point x="488" y="0" type="curve" smooth="yes"/>
      <point x="514" y="0"/>
      <point x="539" y="21"/>
      <point x="544" y="47" type="curve"/>
      <point x="547" y="57"/>
      <point x="544" y="69"/>
      <point x="540" y="76" type="curve" smooth="yes"/>
    </contour>
    <contour>
      <point x="289" y="521" type="curve" smooth="yes"/>
      <point x="296" y="553"/>
      <point x="335" y="578"/>
      <point x="363" y="578" type="curve" smooth="yes"/>
      <point x="395" y="578"/>
      <point x="420" y="550"/>
      <point x="414" y="521" type="curve" smooth="yes"/>
      <point x="409" y="498"/>
      <point x="402" y="471"/>
      <point x="317" y="430" type="curve"/>
      <point x="301" y="454"/>
      <point x="283" y="491"/>
    </contour>
    <contour>
      <point x="232" y="91" type="curve" smooth="yes"/>
      <point x="186" y="91"/>
      <point x="125" y="121"/>
      <point x="139" y="187" type="curve" smooth="yes"/>
      <point x="152" y="247"/>
      <point x="207" y="280"/>
      <point x="272" y="312" type="curve"/>
      <point x="366" y="161" type="line"/>
      <point x="329" y="122"/>
      <point x="282" y="91"/>
    </contour>
  </outline>
</glyph>
<glyph name="quotesingle" format="1">
  <advance width="230"/>
  <unicode hex="0027"/>
  <outline>
    <contour>
      <point x="149" y="454" type="curve" smooth="yes"/>
      <point x="174" y="454"/>
      <point x="201" y="475"/>
      <point x="207" y="502" type="curve" smooth="yes"/>
      <point x="233" y="624" type="line" smooth="yes"/>
      <point x="239" y="650"/>
      <point x="220" y="672"/>
      <point x="195" y="672" type="curve" smooth="yes"/>
      <point x="168" y="672"/>
      <point x="143" y="650"/>
      <point x="137" y="624" type="curve" smooth="yes"/>
      <point x="111" y="502" type="line" smooth="yes"/>
      <point x="105" y="475"/>
      <point x="122" y="454"/>
    </contour>
  </outline>
</glyph>
<glyph name="parenright" format="1">
  <advance width="395"/>
  <unicode hex="0029"/>
  <outline>
    <contour>
      <point x="87" y="-78" type="curve" smooth="yes"/>
      <point x="76" y="-88"/>
      <point x="62" y="-98"/>
      <point x="42" y="-98" type="curve" smooth="yes"/>
      <point x="21.7026" y="-98"/>
      <point x="2.96275" y="-81.6452"/>
      <point x="2.96275" y="-59.9322" type="curve" smooth="yes"/>
      <point x="2.96275" y="-57.0411"/>
      <point x="3.29498" y="-54.0551"/>
      <point x="4" y="-51" type="curve" smooth="yes"/>
      <point x="7" y="-37"/>
      <point x="14" y="-25"/>
      <point x="26" y="-15" type="curve" smooth="yes"/>
      <point x="106" y="53"/>
      <point x="209" y="190"/>
      <point x="241" y="342" type="curve" smooth="yes"/>
      <point x="247.87" y="373.98"/>
      <point x="251.092" y="406.129"/>
      <point x="251.092" y="437.462" type="curve" smooth="yes"/>
      <point x="251.092" y="538.397"/>
      <point x="217.655" y="630.872"/>
      <point x="165" y="682" type="curve" smooth="yes"/>
      <point x="157.45" y="689.55"/>
      <point x="153.89" y="698.81"/>
      <point x="153.89" y="708.92" type="curve" smooth="yes"/>
      <point x="153.89" y="712.2"/>
      <point x="154.265" y="715.57"/>
      <point x="155" y="719" type="curve" smooth="yes"/>
      <point x="161" y="745"/>
      <point x="188" y="768"/>
      <point x="214" y="768" type="curve" smooth="yes"/>
      <point x="224" y="768"/>
      <point x="235" y="763"/>
      <point x="246" y="750" type="curve" smooth="yes"/>
      <point x="310.505" y="674.112"/>
      <point x="349.094" y="571.157"/>
      <point x="349.094" y="455.557" type="curve" smooth="yes"/>
      <point x="349.094" y="418.827"/>
      <point x="345.198" y="380.821"/>
      <point x="337" y="342" type="curve" smooth="yes"/>
      <point x="289" y="116"/>
      <point x="127" y="-39"/>
    </contour>
  </outline>
</glyph>
<glyph name="plus" format="1">
  <advance width="469"/>
  <unicode hex="002B"/>
  <outline>
    <contour>
      <point x="340" y="203" type="curve" smooth="yes"/>
      <point x="259" y="203" type="line"/>
      <point x="242" y="124" type="line" smooth="yes"/>
      <point x="236" y="98"/>
      <point x="211" y="77"/>
      <point x="185" y="77" type="curve" smooth="yes"/>
      <point x="162.538" y="77"/>
      <point x="146.793" y="92.6739"/>
      <point x="146.793" y="113.705" type="curve" smooth="yes"/>
      <point x="146.793" y="117.017"/>
      <point x="147.184" y="120.462"/>
      <point x="148" y="124" type="curve" smooth="yes"/>
      <point x="165" y="203" type="line"/>
      <point x="85" y="203" type="line" smooth="yes"/>
      <point x="61.6621" y="203"/>
      <point x="45.7955" y="218.69"/>
      <point x="45.7955" y="240.382" type="curve" smooth="yes"/>
      <point x="45.7955" y="243.786"/>
      <point x="46.1862" y="247.338"/>
      <point x="47" y="251" type="curve" smooth="yes"/>
      <point x="52" y="277"/>
      <point x="78" y="298"/>
      <point x="105" y="298" type="curve" smooth="yes"/>
      <point x="185" y="298" type="line"/>
      <point x="200" y="368" type="line" smooth="yes"/>
      <point x="205" y="394"/>
      <point x="231" y="415"/>
      <point x="257" y="415" type="curve" smooth="yes"/>
      <point x="279.802" y="415"/>
      <point x="294.912" y="398.849"/>
      <point x="294.912" y="377.338" type="curve" smooth="yes"/>
      <point x="294.912" y="374.321"/>
      <point x="294.615" y="371.198"/>
      <point x="294" y="368" type="curve" smooth="yes"/>
      <point x="279" y="298" type="line"/>
      <point x="360" y="298" type="line" smooth="yes"/>
      <point x="382.802" y="298"/>
      <point x="397.912" y="281.849"/>
      <point x="397.912" y="260.338" type="curve" smooth="yes"/>
      <point x="397.912" y="257.321"/>
      <point x="397.615" y="254.198"/>
      <point x="397" y="251" type="curve" smooth="yes"/>
      <point x="391" y="224"/>
      <point x="366" y="203"/>
    </contour>
  </outline>
</glyph>
<glyph name="hyphen" format="1">
  <advance width="467"/>
  <unicode hex="002D"/>
  <outline>
    <contour>
      <point x="325" y="203" type="line" smooth="yes"/>
      <point x="351" y="203"/>
      <point x="376" y="225"/>
      <point x="382" y="250" type="curve"/>
      <point x="387" y="276"/>
      <point x="371" y="297"/>
      <point x="345" y="297" type="curve" smooth="yes"/>
      <point x="120" y="297" type="line" smooth="yes"/>
      <point x="96" y="297"/>
      <point x="68" y="276"/>
      <point x="63" y="250" type="curve"/>
      <point x="57" y="225"/>
      <point x="76" y="203"/>
      <point x="100" y="203" type="curve" smooth="yes"/>
    </contour>
  </outline>
</glyph>
<glyph name="period" format="1">
  <advance width="240"/>
  <unicode hex="002E"/>
  <outline>
    <contour>
      <point x="56" y="0" type="curve" smooth="yes"/>
      <point x="86" y="0"/>
      <point x="121" y="29"/>
      <point x="128" y="65" type="curve" smooth="yes"/>
      <point x="135" y="96"/>
      <point x="117" y="121"/>
      <point x="88" y="121" type="curve" smooth="yes"/>
      <point x="57" y="121"/>
      <point x="23" y="90"/>
      <point x="16" y="57" type="curve" smooth="yes"/>
      <point x="9" y="25"/>
      <point x="25" y="0"/>
    </contour>
  </outline>
</glyph>
<glyph name="slash" format="1">
  <advance width="571"/>
  <unicode hex="002F"/>
  <outline>
    <contour>
      <point x="30" y="70" type="line" smooth="yes"/>
      <point x="25" y="63"/>
      <point x="21" y="55"/>
      <point x="19" y="47" type="curve" smooth="yes"/>
      <point x="14" y="22"/>
      <point x="29" y="-1"/>
      <point x="58" y="-1" type="curve" smooth="yes"/>
      <point x="75" y="-1"/>
      <point x="92" y="8"/>
      <point x="105" y="24" type="curve" smooth="yes"/>
      <point x="543" y="594" type="line"/>
      <point x="548" y="602"/>
      <point x="557" y="615"/>
      <point x="560" y="628" type="curve" smooth="yes"/>
      <point x="565" y="650"/>
      <point x="550" y="674"/>
      <point x="522" y="674" type="curve" smooth="yes"/>
      <point x="506" y="674"/>
      <point x="488" y="668"/>
      <point x="475" y="650" type="curve" smooth="yes"/>
    </contour>
  </outline>
</glyph>
<glyph name="zero" format="1">
  <advance width="640"/>
  <unicode hex="0030"/>
  <outline>
    <contour>
      <point x="240" y="-3" type="curve" smooth="yes"/>
      <point x="377" y="-3"/>
      <point x="524" y="160"/>
      <point x="563" y="348" type="curve"/>
      <point x="600" y="520"/>
      <point x="537" y="669"/>
      <point x="404" y="669" type="curve" smooth="yes"/>
      <point x="264" y="669"/>
      <point x="118" y="502"/>
      <point x="79" y="317" type="curve" smooth="yes"/>
      <point x="43" y="147"/>
      <point x="106" y="-3"/>
    </contour>
    <contour>
      <point x="383" y="573" type="curve" smooth="yes"/>
      <point x="460" y="573"/>
      <point x="495" y="466"/>
      <point x="469" y="346" type="curve" smooth="yes"/>
      <point x="440" y="208"/>
      <point x="343" y="93"/>
      <point x="260" y="93" type="curve" smooth="yes"/>
      <point x="181" y="93"/>
      <point x="149" y="201"/>
      <point x="174" y="319" type="curve" smooth="yes"/>
      <point x="204" y="458"/>
      <point x="299" y="573"/>
    </contour>
  </outline>
</glyph>
<glyph name="one" format="1">
  <advance width="430"/>
  <unicode hex="0031"/>
  <outline>
    <contour>
      <point x="123" y="521" type="curve" smooth="yes"/>
      <point x="267" y="648" type="line" smooth="yes"/>
      <point x="277" y="657"/>
      <point x="294" y="663"/>
      <point x="304" y="663" type="curve" smooth="yes"/>
      <point x="330.694" y="663"/>
      <point x="344.042" y="645.204"/>
      <point x="344.042" y="624.936" type="curve" smooth="yes"/>
      <point x="344.042" y="621.667"/>
      <point x="343.694" y="618.333"/>
      <point x="343" y="615" type="curve" smooth="yes"/>
      <point x="226" y="96" type="line"/>
      <point x="267" y="96" type="line" smooth="yes"/>
      <point x="294.573" y="96"/>
      <point x="308.039" y="79.6666"/>
      <point x="308.039" y="58.5145" type="curve" smooth="yes"/>
      <point x="308.039" y="55.118"/>
      <point x="307.692" y="51.5973"/>
      <point x="307" y="48" type="curve" smooth="yes"/>
      <point x="301" y="21"/>
      <point x="274" y="0"/>
      <point x="249" y="0" type="curve" smooth="yes"/>
      <point x="51" y="0" type="line" smooth="yes"/>
      <point x="26.9445" y="5.32907e-15"/>
      <point x="11.7461" y="15.5"/>
      <point x="11.7461" y="36.9884" type="curve" smooth="yes"/>
      <point x="11.7461" y="40.5119"/>
      <point x="12.1548" y="44.1964"/>
      <point x="13" y="48" type="curve" smooth="yes"/>
      <point x="18" y="74"/>
      <point x="43" y="96"/>
      <point x="71" y="96" type="curve" smooth="yes"/>
      <point x="129" y="96" type="line"/>
      <point x="162" y="241"/>
      <point x="186" y="340"/>
      <point x="220" y="490" type="curve"/>
      <point x="179" y="455" type="line" smooth="yes"/>
      <point x="167" y="445"/>
      <point x="153" y="441"/>
      <point x="141" y="441" type="curve" smooth="yes"/>
      <point x="117.311" y="441"/>
      <point x="102.09" y="457.935"/>
      <point x="102.09" y="479.649" type="curve" smooth="yes"/>
      <point x="102.09" y="482.683"/>
      <point x="102.387" y="485.812"/>
      <point x="103" y="489" type="curve" smooth="yes"/>
      <point x="106" y="501"/>
      <point x="114" y="513"/>
    </contour>
  </outline>
</glyph>
<glyph name="three" format="1">
  <advance width="569"/>
  <unicode hex="0033"/>
  <outline>
    <contour>
      <point x="229" y="539" type="curve" smooth="yes"/>
      <point x="248" y="551"/>
      <point x="283" y="570"/>
      <point x="333" y="570" type="curve" smooth="yes"/>
      <point x="398" y="570"/>
      <point x="427" y="537"/>
      <point x="420" y="506" type="curve" smooth="yes"/>
      <point x="410" y="458"/>
      <point x="339" y="417"/>
      <point x="285" y="417" type="curve" smooth="yes"/>
      <point x="257" y="417"/>
      <point x="232" y="396"/>
      <point x="226" y="369" type="curve" smooth="yes"/>
      <point x="220" y="343"/>
      <point x="237" y="321"/>
      <point x="264" y="321" type="curve" smooth="yes"/>
      <point x="301" y="321"/>
      <point x="390" y="300"/>
      <point x="370" y="204" type="curve" smooth="yes"/>
      <point x="353" y="126"/>
      <point x="284" y="91"/>
      <point x="230" y="91" type="curve" smooth="yes"/>
      <point x="162" y="91"/>
      <point x="137" y="136"/>
      <point x="131" y="154" type="curve" smooth="yes"/>
      <point x="126" y="170"/>
      <point x="115" y="180"/>
      <point x="95" y="180" type="curve" smooth="yes"/>
      <point x="68" y="180"/>
      <point x="43" y="160"/>
      <point x="37" y="134" type="curve" smooth="yes"/>
      <point x="36" y="128"/>
      <point x="36" y="115"/>
      <point x="39" y="104" type="curve" smooth="yes"/>
      <point x="54" y="40"/>
      <point x="125" y="-5"/>
      <point x="211" y="-5" type="curve" smooth="yes"/>
      <point x="297" y="-5"/>
      <point x="434" y="50"/>
      <point x="467" y="204" type="curve" smooth="yes"/>
      <point x="482" y="273"/>
      <point x="467" y="335"/>
      <point x="419" y="372" type="curve"/>
      <point x="469" y="406"/>
      <point x="505" y="452"/>
      <point x="516" y="506" type="curve" smooth="yes"/>
      <point x="535" y="597"/>
      <point x="464" y="667"/>
      <point x="353" y="667" type="curve" smooth="yes"/>
      <point x="296" y="667"/>
      <point x="243" y="647"/>
      <point x="210" y="629" type="curve" smooth="yes"/>
      <point x="172" y="608"/>
      <point x="161" y="590"/>
      <point x="158" y="574" type="curve" smooth="yes"/>
      <point x="153" y="551"/>
      <point x="162" y="526"/>
      <point x="195" y="526" type="curve" smooth="yes"/>
      <point x="208" y="526"/>
      <point x="215" y="531"/>
    </contour>
  </outline>
</glyph>
<glyph name="five" format="1">
  <advance width="585"/>
  <unicode hex="0035"/>
  <outline>
    <contour>
      <point x="37" y="109" type="curve" smooth="yes"/>
      <point x="45" y="77"/>
      <point x="98" y="-3"/>
      <point x="212" y="-3" type="curve" smooth="yes"/>
      <point x="332" y="-3"/>
      <point x="466" y="112"/>
      <point x="496" y="253" type="curve" smooth="yes"/>
      <point x="526" y="392"/>
      <point x="454" y="484"/>
      <point x="334" y="484" type="curve" smooth="yes"/>
      <point x="299" y="484"/>
      <point x="266" y="477"/>
      <point x="238" y="466" type="curve"/>
      <point x="268" y="560" type="line"/>
      <point x="489" y="560" type="line" smooth="yes"/>
      <point x="514" y="560"/>
      <point x="541" y="581"/>
      <point x="547" y="609" type="curve" smooth="yes"/>
      <point x="552" y="634"/>
      <point x="534" y="657"/>
      <point x="509" y="657" type="curve" smooth="yes"/>
      <point x="244" y="657" type="line" smooth="yes"/>
      <point x="220" y="657"/>
      <point x="194" y="638"/>
      <point x="187" y="614" type="curve" smooth="yes"/>
      <point x="112" y="375" type="line" smooth="yes"/>
      <point x="103" y="345"/>
      <point x="115" y="320"/>
      <point x="149" y="320" type="curve" smooth="yes"/>
      <point x="163" y="320"/>
      <point x="174" y="324"/>
      <point x="188" y="335" type="curve" smooth="yes"/>
      <point x="199" y="344"/>
      <point x="249" y="388"/>
      <point x="314" y="388" type="curve" smooth="yes"/>
      <point x="394" y="388"/>
      <point x="415" y="320"/>
      <point x="400" y="253" type="curve"/>
      <point x="382" y="166"/>
      <point x="303" y="94"/>
      <point x="232" y="94" type="curve" smooth="yes"/>
      <point x="181" y="94"/>
      <point x="150" y="116"/>
      <point x="131" y="156" type="curve" smooth="yes"/>
      <point x="124" y="170"/>
      <point x="118" y="180"/>
      <point x="95" y="180" type="curve" smooth="yes"/>
      <point x="70" y="180"/>
      <point x="42" y="157"/>
      <point x="37" y="132" type="curve" smooth="yes"/>
      <point x="35" y="124"/>
      <point x="35" y="116"/>
    </contour>
  </outline>
</glyph>
<glyph name="six" format="1">
  <advance width="572"/>
  <unicode hex="0036"/>
  <outline>
    <contour>
      <point x="162" y="302" type="curve"/>
      <point x="186" y="320"/>
      <point x="239" y="355"/>
      <point x="308" y="355" type="curve" smooth="yes"/>
      <point x="332" y="355"/>
      <point x="409" y="347"/>
      <point x="387" y="243" type="curve" smooth="yes"/>
      <point x="361" y="118"/>
      <point x="275" y="91"/>
      <point x="243" y="91" type="curve" smooth="yes"/>
      <point x="184" y="91"/>
      <point x="121" y="118"/>
      <point x="148" y="247" type="curve" smooth="yes"/>
      <point x="152" y="265"/>
      <point x="156" y="283"/>
    </contour>
    <contour>
      <point x="426" y="575" type="curve" smooth="yes"/>
      <point x="443" y="582"/>
      <point x="458" y="598"/>
      <point x="462" y="618" type="curve" smooth="yes"/>
      <point x="467" y="644"/>
      <point x="452" y="664"/>
      <point x="426" y="664" type="curve" smooth="yes"/>
      <point x="416" y="664"/>
      <point x="407" y="661"/>
      <point x="397" y="657" type="curve" smooth="yes"/>
      <point x="349" y="635"/>
      <point x="114" y="526"/>
      <point x="55" y="247" type="curve" smooth="yes"/>
      <point x="15" y="57"/>
      <point x="116" y="-3"/>
      <point x="223" y="-3" type="curve" smooth="yes"/>
      <point x="278" y="-3"/>
      <point x="437" y="40"/>
      <point x="480" y="243" type="curve" smooth="yes"/>
      <point x="509" y="378"/>
      <point x="436" y="449"/>
      <point x="328" y="449" type="curve" smooth="yes"/>
      <point x="294" y="449"/>
      <point x="263" y="443"/>
      <point x="236" y="434" type="curve"/>
      <point x="285" y="495"/>
      <point x="351" y="543"/>
    </contour>
  </outline>
</glyph>
<glyph name="seven" format="1">
  <advance width="527"/>
  <unicode hex="0037"/>
  <outline>
    <contour>
      <point x="100" y="1" type="curve" smooth="yes"/>
      <point x="116" y="1"/>
      <point x="135" y="8"/>
      <point x="148" y="27" type="curve" smooth="yes"/>
      <point x="548" y="584" type="line"/>
      <point x="552" y="591"/>
      <point x="556" y="599"/>
      <point x="557" y="605" type="curve" smooth="yes"/>
      <point x="563" y="632"/>
      <point x="547" y="654"/>
      <point x="520" y="654" type="curve" smooth="yes"/>
      <point x="193" y="654" type="line" smooth="yes"/>
      <point x="166" y="654"/>
      <point x="140" y="631"/>
      <point x="134" y="606" type="curve"/>
      <point x="129" y="579"/>
      <point x="145" y="558"/>
      <point x="172" y="558" type="curve" smooth="yes"/>
      <point x="422" y="558" type="line"/>
      <point x="72" y="70" type="line" smooth="yes"/>
      <point x="67" y="63"/>
      <point x="63" y="55"/>
      <point x="62" y="49" type="curve" smooth="yes"/>
      <point x="57" y="24"/>
      <point x="73" y="1"/>
    </contour>
  </outline>
</glyph>
<glyph name="eight" format="1">
  <advance width="573"/>
  <unicode hex="0038"/>
  <outline>
    <contour>
      <point x="217" y="-3" type="curve" smooth="yes"/>
      <point x="337" y="-3"/>
      <point x="444" y="82"/>
      <point x="468" y="194" type="curve" smooth="yes"/>
      <point x="482" y="263"/>
      <point x="461" y="322"/>
      <point x="412" y="363" type="curve"/>
      <point x="460" y="392"/>
      <point x="504" y="435"/>
      <point x="518" y="501" type="curve" smooth="yes"/>
      <point x="539" y="600"/>
      <point x="478" y="669"/>
      <point x="370" y="669" type="curve" smooth="yes"/>
      <point x="268" y="669"/>
      <point x="165" y="600"/>
      <point x="141" y="486" type="curve" smooth="yes"/>
      <point x="127" y="422"/>
      <point x="148" y="384"/>
      <point x="184" y="357" type="curve"/>
      <point x="127" y="324"/>
      <point x="67" y="272"/>
      <point x="47" y="185" type="curve"/>
      <point x="24" y="77"/>
      <point x="94" y="-3"/>
    </contour>
    <contour>
      <point x="293" y="310" type="curve"/>
      <point x="343" y="292"/>
      <point x="386" y="253"/>
      <point x="373" y="192" type="curve" smooth="yes"/>
      <point x="359" y="124"/>
      <point x="290" y="93"/>
      <point x="237" y="93" type="curve" smooth="yes"/>
      <point x="173" y="93"/>
      <point x="130" y="129"/>
      <point x="141" y="180" type="curve" smooth="yes"/>
      <point x="157" y="255"/>
      <point x="230" y="284"/>
    </contour>
    <contour>
      <point x="349" y="572" type="curve" smooth="yes"/>
      <point x="398" y="572"/>
      <point x="433" y="547"/>
      <point x="424" y="506" type="curve" smooth="yes"/>
      <point x="417" y="472"/>
      <point x="391" y="442"/>
      <point x="309" y="411" type="curve"/>
      <point x="249" y="430"/>
      <point x="228" y="452"/>
      <point x="236" y="490" type="curve" smooth="yes"/>
      <point x="253" y="571"/>
      <point x="347" y="572"/>
    </contour>
  </outline>
</glyph>
<glyph name="nine" format="1">
  <advance width="572"/>
  <unicode hex="0039"/>
  <outline>
    <contour>
      <point x="409" y="362" type="curve"/>
      <point x="386" y="343"/>
      <point x="332" y="309"/>
      <point x="264" y="309" type="curve" smooth="yes"/>
      <point x="240" y="309"/>
      <point x="163" y="317"/>
      <point x="185" y="422" type="curve" smooth="yes"/>
      <point x="212" y="546"/>
      <point x="298" y="573"/>
      <point x="329" y="573" type="curve" smooth="yes"/>
      <point x="388" y="573"/>
      <point x="452" y="546"/>
      <point x="424" y="417" type="curve" smooth="yes"/>
      <point x="420" y="398"/>
      <point x="416" y="381"/>
    </contour>
    <contour>
      <point x="146" y="89" type="curve" smooth="yes"/>
      <point x="129" y="82"/>
      <point x="115" y="66"/>
      <point x="110" y="46" type="curve"/>
      <point x="105" y="20"/>
      <point x="121" y="0"/>
      <point x="148" y="0" type="curve" smooth="yes"/>
      <point x="157" y="0"/>
      <point x="165" y="3"/>
      <point x="175" y="7" type="curve" smooth="yes"/>
      <point x="223" y="29"/>
      <point x="458" y="138"/>
      <point x="517" y="417" type="curve" smooth="yes"/>
      <point x="558" y="607"/>
      <point x="457" y="667"/>
      <point x="349" y="667" type="curve" smooth="yes"/>
      <point x="294" y="667"/>
      <point x="135" y="624"/>
      <point x="92" y="422" type="curve" smooth="yes"/>
      <point x="63" y="286"/>
      <point x="136" y="215"/>
      <point x="244" y="215" type="curve" smooth="yes"/>
      <point x="278" y="215"/>
      <point x="309" y="221"/>
      <point x="336" y="230" type="curve"/>
      <point x="288" y="170"/>
      <point x="219" y="121"/>
    </contour>
  </outline>
</glyph>
<glyph name="colon" format="1">
  <advance width="261"/>
  <unicode hex="003A"/>
  <outline>
    <contour>
      <point x="53" y="0" type="curve" smooth="yes"/>
      <point x="84" y="0"/>
      <point x="118" y="29"/>
      <point x="125" y="65" type="curve" smooth="yes"/>
      <point x="132" y="96"/>
      <point x="115" y="121"/>
      <point x="86" y="121" type="curve" smooth="yes"/>
      <point x="55" y="121"/>
      <point x="21" y="90"/>
      <point x="14" y="57" type="curve" smooth="yes"/>
      <point x="7" y="25"/>
      <point x="22" y="0"/>
    </contour>
    <contour>
      <point x="149" y="325" type="curve" smooth="yes"/>
      <point x="180" y="325"/>
      <point x="214" y="354"/>
      <point x="222" y="391" type="curve" smooth="yes"/>
      <point x="228" y="422"/>
      <point x="210" y="446"/>
      <point x="181" y="446" type="curve" smooth="yes"/>
      <point x="150" y="446"/>
      <point x="116" y="415"/>
      <point x="109" y="382" type="curve" smooth="yes"/>
      <point x="102" y="351"/>
      <point x="118" y="325"/>
    </contour>
  </outline>
</glyph>
<glyph name="less" format="1">
  <advance width="566"/>
  <unicode hex="003C"/>
  <outline>
    <contour>
      <point x="327" y="15" type="line" smooth="yes"/>
      <point x="334" y="10"/>
      <point x="344" y="7"/>
      <point x="352" y="7" type="curve" smooth="yes"/>
      <point x="377" y="7"/>
      <point x="405" y="30"/>
      <point x="410" y="55" type="curve" smooth="yes"/>
      <point x="414" y="71"/>
      <point x="409" y="85"/>
      <point x="397" y="95" type="curve" smooth="yes"/>
      <point x="201" y="247" type="line"/>
      <point x="479" y="403" type="line" smooth="yes"/>
      <point x="494" y="411"/>
      <point x="506" y="428"/>
      <point x="510" y="443" type="curve" smooth="yes"/>
      <point x="516" y="471"/>
      <point x="498" y="492"/>
      <point x="472" y="492" type="curve" smooth="yes"/>
      <point x="463" y="492"/>
      <point x="453" y="489"/>
      <point x="444" y="484" type="curve" smooth="yes"/>
      <point x="96" y="288" type="line" smooth="yes"/>
      <point x="76" y="277"/>
      <point x="68" y="263"/>
      <point x="65" y="248" type="curve" smooth="yes"/>
      <point x="62" y="231"/>
      <point x="65" y="217"/>
      <point x="77" y="207" type="curve" smooth="yes"/>
    </contour>
  </outline>
</glyph>
<glyph name="greater" format="1">
  <advance width="566"/>
  <unicode hex="003E"/>
  <outline>
    <contour>
      <point x="443" y="207" type="line" smooth="yes"/>
      <point x="461" y="217"/>
      <point x="470" y="231"/>
      <point x="473" y="248" type="curve" smooth="yes"/>
      <point x="476" y="263"/>
      <point x="474" y="277"/>
      <point x="460" y="288" type="curve" smooth="yes"/>
      <point x="194" y="484" type="line" smooth="yes"/>
      <point x="187" y="489"/>
      <point x="179" y="492"/>
      <point x="170" y="492" type="curve" smooth="yes"/>
      <point x="144" y="492"/>
      <point x="118" y="471"/>
      <point x="112" y="443" type="curve" smooth="yes"/>
      <point x="108" y="428"/>
      <point x="114" y="411"/>
      <point x="125" y="403" type="curve" smooth="yes"/>
      <point x="337" y="247" type="line"/>
      <point x="77" y="95" type="line" smooth="yes"/>
      <point x="61" y="85"/>
      <point x="50" y="71"/>
      <point x="46" y="55" type="curve" smooth="yes"/>
      <point x="41" y="30"/>
      <point x="59" y="7"/>
      <point x="84" y="7" type="curve" smooth="yes"/>
      <point x="92" y="7"/>
      <point x="104" y="10"/>
      <point x="113" y="15" type="curve" smooth="yes"/>
    </contour>
  </outline>
</glyph>
<glyph name="question" format="1">
  <advance width="559"/>
  <unicode hex="003F"/>
  <outline>
    <contour>
      <point x="169" y="242" type="curve" smooth="yes"/>
      <point x="233" y="287"/>
      <point x="408" y="403"/>
      <point x="425" y="481" type="curve" smooth="yes"/>
      <point x="426.934" y="490.026"/>
      <point x="427.985" y="499.157"/>
      <point x="427.985" y="508.123" type="curve" smooth="yes"/>
      <point x="427.985" y="554.784"/>
      <point x="399.526" y="597"/>
      <point x="319" y="597" type="curve" smooth="yes"/>
      <point x="267" y="597"/>
      <point x="226" y="563"/>
      <point x="195" y="535" type="curve" smooth="yes"/>
      <point x="185" y="526"/>
      <point x="172" y="522"/>
      <point x="160" y="522" type="curve" smooth="yes"/>
      <point x="138.56" y="522"/>
      <point x="121.534" y="535.974"/>
      <point x="121.534" y="558.244" type="curve" smooth="yes"/>
      <point x="121.534" y="561.943"/>
      <point x="122.003" y="565.87"/>
      <point x="123" y="570" type="curve" smooth="yes"/>
      <point x="126" y="586"/>
      <point x="142" y="602"/>
      <point x="157" y="616" type="curve" smooth="yes"/>
      <point x="197" y="650"/>
      <point x="263" y="691"/>
      <point x="339" y="691" type="curve" smooth="yes"/>
      <point x="453.532" y="691"/>
      <point x="523.57" y="628.708"/>
      <point x="523.57" y="530.946" type="curve" smooth="yes"/>
      <point x="523.57" y="515.182"/>
      <point x="521.749" y="498.496"/>
      <point x="518" y="481" type="curve" smooth="yes"/>
      <point x="494" y="371"/>
      <point x="409" y="316"/>
      <point x="343" y="265" type="curve" smooth="yes"/>
      <point x="209" y="161"/>
      <point x="193" y="159"/>
      <point x="181" y="159" type="curve" smooth="yes"/>
      <point x="158.198" y="159"/>
      <point x="143.088" y="175.151"/>
      <point x="143.088" y="196.662" type="curve" smooth="yes"/>
      <point x="143.088" y="199.679"/>
      <point x="143.385" y="202.802"/>
      <point x="144" y="206" type="curve" smooth="yes"/>
      <point x="147" y="219"/>
      <point x="156" y="233"/>
    </contour>
    <contour>
      <point x="117" y="0" type="curve" smooth="yes"/>
      <point x="90.8493" y="0"/>
      <point x="75.3728" y="17.7903"/>
      <point x="75.3728" y="42.5655" type="curve" smooth="yes"/>
      <point x="75.3728" y="47.1598"/>
      <point x="75.905" y="51.9943"/>
      <point x="77" y="57" type="curve" smooth="yes"/>
      <point x="84" y="90"/>
      <point x="119" y="121"/>
      <point x="149" y="121" type="curve" smooth="yes"/>
      <point x="174.468" y="121"/>
      <point x="190.567" y="102.983"/>
      <point x="190.567" y="78.5726" type="curve" smooth="yes"/>
      <point x="190.567" y="74.229"/>
      <point x="190.057" y="69.683"/>
      <point x="189" y="65" type="curve" smooth="yes"/>
      <point x="182" y="29"/>
      <point x="148" y="0"/>
    </contour>
  </outline>
</glyph>
<glyph name="at" format="1">
  <advance width="854"/>
  <unicode hex="0040"/>
  <outline>
    <contour>
      <point x="501" y="35" type="curve" smooth="yes"/>
      <point x="467" y="16"/>
      <point x="431" y="8"/>
      <point x="373" y="8" type="curve" smooth="yes"/>
      <point x="256" y="8"/>
      <point x="130" y="93"/>
      <point x="164" y="253" type="curve" smooth="yes"/>
      <point x="200" y="423"/>
      <point x="348" y="512"/>
      <point x="477" y="512" type="curve" smooth="yes"/>
      <point x="629" y="512"/>
      <point x="684" y="397"/>
      <point x="660" y="283" type="curve" smooth="yes"/>
      <point x="640" y="190"/>
      <point x="586" y="181"/>
      <point x="555" y="181" type="curve" smooth="yes"/>
      <point x="518" y="182"/>
      <point x="507" y="204"/>
      <point x="512" y="230" type="curve" smooth="yes"/>
      <point x="516" y="248"/>
      <point x="526" y="261"/>
      <point x="529" y="276" type="curve" smooth="yes"/>
      <point x="533" y="295"/>
      <point x="525" y="312"/>
      <point x="511" y="320" type="curve"/>
      <point x="527" y="327"/>
      <point x="541" y="343"/>
      <point x="545" y="362" type="curve" smooth="yes"/>
      <point x="549" y="377"/>
      <point x="545" y="391"/>
      <point x="525" y="406" type="curve" smooth="yes"/>
      <point x="497" y="426"/>
      <point x="467" y="435"/>
      <point x="435" y="435" type="curve" smooth="yes"/>
      <point x="335" y="435"/>
      <point x="238" y="341"/>
      <point x="216" y="239" type="curve" smooth="yes"/>
      <point x="200" y="162"/>
      <point x="225" y="99"/>
      <point x="315" y="99" type="curve" smooth="yes"/>
      <point x="357" y="99"/>
      <point x="394" y="119"/>
      <point x="428" y="147" type="curve"/>
      <point x="446" y="113"/>
      <point x="486" y="86"/>
      <point x="544" y="86" type="curve" smooth="yes"/>
      <point x="578" y="86"/>
      <point x="716" y="101"/>
      <point x="755" y="283" type="curve" smooth="yes"/>
      <point x="794" y="467"/>
      <point x="680" y="607"/>
      <point x="498" y="607" type="curve" smooth="yes"/>
      <point x="295" y="607"/>
      <point x="112" y="455"/>
      <point x="69" y="253" type="curve" smooth="yes"/>
      <point x="28" y="60"/>
      <point x="157" y="-85"/>
      <point x="348" y="-85" type="curve" smooth="yes"/>
      <point x="433" y="-85"/>
      <point x="494" y="-70"/>
      <point x="539" y="-42" type="curve" smooth="yes"/>
      <point x="562" y="-27"/>
      <point x="569" y="-15"/>
      <point x="573" y="0" type="curve"/>
      <point x="578" y="26"/>
      <point x="561" y="47"/>
      <point x="535" y="47" type="curve" smooth="yes"/>
      <point x="525" y="47"/>
      <point x="517" y="44"/>
    </contour>
    <contour>
      <point x="442" y="293" type="curve" smooth="yes"/>
      <point x="426" y="267"/>
      <point x="372" y="193"/>
      <point x="335" y="193" type="curve" smooth="yes"/>
      <point x="316" y="193"/>
      <point x="303" y="204"/>
      <point x="310" y="239" type="curve" smooth="yes"/>
      <point x="322" y="292"/>
      <point x="368" y="342"/>
      <point x="416" y="342" type="curve" smooth="yes"/>
      <point x="437" y="342"/>
      <point x="456" y="330"/>
      <point x="469" y="319" type="curve"/>
      <point x="459" y="314"/>
      <point x="451" y="306"/>
    </contour>
  </outline>
</glyph>
<glyph name="A" format="1">
  <advance width="650"/>
  <unicode hex="0041"/>
  <outline>
    <contour>
      <point x="459" y="655" type="line" smooth="yes"/>
      <point x="456" y="679"/>
      <point x="440" y="688"/>
      <point x="420" y="688" type="curve" smooth="yes"/>
      <point x="400" y="688"/>
      <point x="378" y="677"/>
      <point x="366" y="657" type="curve" smooth="yes"/>
      <point x="138" y="281" type="line"/>
      <point x="100" y="273" type="line" smooth="yes"/>
      <point x="76" y="268"/>
      <point x="56" y="249"/>
      <point x="51" y="225" type="curve" smooth="yes"/>
      <point x="46" y="201"/>
      <point x="57" y="184"/>
      <point x="76" y="177" type="curve"/>
      <point x="9" y="67" type="line" smooth="yes"/>
      <point x="6" y="62"/>
      <point x="3" y="56"/>
      <point x="2" y="49" type="curve" smooth="yes"/>
      <point x="-3" y="25"/>
      <point x="12" y="0"/>
      <point x="42" y="0" type="curve" smooth="yes"/>
      <point x="66" y="0"/>
      <point x="84" y="15"/>
      <point x="94" y="32" type="curve" smooth="yes"/>
      <point x="194" y="196" type="line"/>
      <point x="408" y="241" type="line"/>
      <point x="436" y="33" type="line" smooth="yes"/>
      <point x="439" y="8"/>
      <point x="451" y="-1"/>
      <point x="475" y="-1" type="curve" smooth="yes"/>
      <point x="505" y="-1"/>
      <point x="530" y="22"/>
      <point x="536" y="48" type="curve" smooth="yes"/>
      <point x="537" y="53"/>
      <point x="537" y="61"/>
      <point x="537" y="67" type="curve"/>
    </contour>
    <contour>
      <point x="260" y="306" type="line"/>
      <point x="375" y="495" type="line"/>
      <point x="394" y="334" type="line"/>
    </contour>
  </outline>
</glyph>
<glyph name="B" format="1">
  <advance width="629"/>
  <unicode hex="0042"/>
  <outline>
    <contour>
      <point x="64" y="-2" type="curve" smooth="yes"/>
      <point x="34.7491" y="-2"/>
      <point x="14.5782" y="4.28615"/>
      <point x="14.5782" y="33.2029" type="curve" smooth="yes"/>
      <point x="14.5782" y="38.8864"/>
      <point x="15.3574" y="45.444"/>
      <point x="17" y="53" type="curve" smooth="yes"/>
      <point x="140" y="632" type="line" smooth="yes"/>
      <point x="145" y="658"/>
      <point x="173" y="681"/>
      <point x="199" y="681" type="curve" smooth="yes"/>
      <point x="369" y="681" type="line" smooth="yes"/>
      <point x="535.048" y="681"/>
      <point x="560.639" y="582.945"/>
      <point x="560.639" y="529.204" type="curve" smooth="yes"/>
      <point x="560.639" y="516.921"/>
      <point x="559.302" y="506.953"/>
      <point x="558" y="501" type="curve" smooth="yes"/>
      <point x="546" y="443"/>
      <point x="517" y="402"/>
      <point x="485" y="374" type="curve"/>
      <point x="533.193" y="348.718"/>
      <point x="557.043" y="310.953"/>
      <point x="557.043" y="258.238" type="curve" smooth="yes"/>
      <point x="557.043" y="244.23"/>
      <point x="555.359" y="229.166"/>
      <point x="552" y="213" type="curve" smooth="yes"/>
      <point x="523" y="77"/>
      <point x="363" y="-2"/>
    </contour>
    <contour>
      <point x="171" y="307" type="line"/>
      <point x="126" y="97" type="line"/>
      <point x="291" y="100"/>
      <point x="436" y="135"/>
      <point x="453" y="213" type="curve" smooth="yes"/>
      <point x="454.272" y="219.087"/>
      <point x="454.875" y="224.844"/>
      <point x="454.875" y="230.281" type="curve" smooth="yes"/>
      <point x="454.875" y="284.683"/>
      <point x="394.458" y="307"/>
      <point x="339" y="307" type="curve" smooth="yes"/>
    </contour>
    <contour>
      <point x="229" y="581" type="line"/>
      <point x="192" y="407" type="line"/>
      <point x="351" y="407" type="line" smooth="yes"/>
      <point x="402" y="407"/>
      <point x="449" y="453"/>
      <point x="458" y="498" type="curve" smooth="yes"/>
      <point x="458.555" y="500.404"/>
      <point x="459.246" y="504.757"/>
      <point x="459.246" y="510.256" type="curve" smooth="yes"/>
      <point x="459.246" y="534.494"/>
      <point x="445.81" y="581"/>
      <point x="348" y="581" type="curve" smooth="yes"/>
    </contour>
  </outline>
</glyph>
<glyph name="D" format="1">
  <advance width="646"/>
  <unicode hex="0044"/>
  <outline>
    <contour>
      <point x="159" y="-19" type="curve" smooth="yes"/>
      <point x="104" y="-19"/>
      <point x="51" y="-5"/>
      <point x="43" y="-2" type="curve" smooth="yes"/>
      <point x="25.5834" y="3.22497"/>
      <point x="14.2336" y="19.8251"/>
      <point x="14.2336" y="38.5549" type="curve" smooth="yes"/>
      <point x="14.2336" y="41.3331"/>
      <point x="14.4833" y="44.1582"/>
      <point x="15" y="47" type="curve"/>
      <point x="140" y="632" type="line" smooth="yes"/>
      <point x="146" y="660"/>
      <point x="172" y="681"/>
      <point x="200" y="681" type="curve" smooth="yes"/>
      <point x="343.314" y="681"/>
      <point x="588.52" y="636.874"/>
      <point x="588.52" y="395.552" type="curve" smooth="yes"/>
      <point x="588.52" y="367.455"/>
      <point x="585.196" y="336.685"/>
      <point x="578" y="303" type="curve" smooth="yes"/>
      <point x="530" y="79"/>
      <point x="352" y="-19"/>
    </contour>
    <contour>
      <point x="229" y="579" type="curve"/>
      <point x="124" y="87" type="line"/>
      <point x="140" y="84"/>
      <point x="161" y="81"/>
      <point x="181" y="81" type="curve" smooth="yes"/>
      <point x="333" y="81"/>
      <point x="446" y="154"/>
      <point x="478" y="303" type="curve" smooth="yes"/>
      <point x="483.297" y="327.678"/>
      <point x="485.807" y="350.369"/>
      <point x="485.807" y="371.203" type="curve" smooth="yes"/>
      <point x="485.807" y="511.62"/>
      <point x="371.811" y="567.68"/>
    </contour>
  </outline>
</glyph>
<glyph name="E" format="1">
  <advance width="636"/>
  <unicode hex="0045"/>
  <outline>
    <contour>
      <point x="126" y="100" type="line"/>
      <point x="474" y="100" type="line" smooth="yes"/>
      <point x="498.056" y="100"/>
      <point x="513.254" y="83.7619"/>
      <point x="513.254" y="61.4315" type="curve" smooth="yes"/>
      <point x="513.254" y="57.7699"/>
      <point x="512.845" y="53.9445"/>
      <point x="512" y="50" type="curve" smooth="yes"/>
      <point x="506" y="22"/>
      <point x="481" y="0"/>
      <point x="453" y="0" type="curve" smooth="yes"/>
      <point x="56" y="0" type="line" smooth="yes"/>
      <point x="31.6379" y="-3.55271e-15"/>
      <point x="14.846" y="16.6547"/>
      <point x="14.846" y="39.4254" type="curve" smooth="yes"/>
      <point x="14.846" y="42.8256"/>
      <point x="15.2205" y="46.3621"/>
      <point x="16" y="50" type="curve" smooth="yes"/>
      <point x="140" y="632" type="line" smooth="yes"/>
      <point x="146" y="660"/>
      <point x="172" y="682"/>
      <point x="200" y="682" type="curve" smooth="yes"/>
      <point x="599" y="682" type="line" smooth="yes"/>
      <point x="623.214" y="682"/>
      <point x="639.202" y="665.547"/>
      <point x="639.202" y="642.989" type="curve" smooth="yes"/>
      <point x="639.202" y="639.462"/>
      <point x="638.811" y="635.786"/>
      <point x="638" y="632" type="curve" smooth="yes"/>
      <point x="632" y="605"/>
      <point x="606" y="582"/>
      <point x="578" y="582" type="curve" smooth="yes"/>
      <point x="228" y="582" type="line"/>
      <point x="190" y="401" type="line"/>
      <point x="494" y="401" type="line" smooth="yes"/>
      <point x="518.056" y="401"/>
      <point x="533.254" y="385.5"/>
      <point x="533.254" y="363.378" type="curve" smooth="yes"/>
      <point x="533.254" y="359.75"/>
      <point x="532.845" y="355.944"/>
      <point x="532" y="352" type="curve" smooth="yes"/>
      <point x="526" y="324"/>
      <point x="501" y="302"/>
      <point x="473" y="302" type="curve" smooth="yes"/>
      <point x="169" y="302" type="line"/>
    </contour>
  </outline>
</glyph>
<glyph name="G" format="1">
  <advance width="777"/>
  <unicode hex="0047"/>
  <outline>
    <contour>
      <point x="669" y="305" type="curve" smooth="yes"/>
      <point x="634" y="317"/>
      <point x="598" y="322"/>
      <point x="562" y="322" type="curve" smooth="yes"/>
      <point x="507" y="322"/>
      <point x="445" y="314"/>
      <point x="423" y="304" type="curve"/>
      <point x="398" y="296"/>
      <point x="382" y="277"/>
      <point x="378" y="256" type="curve" smooth="yes"/>
      <point x="371" y="224"/>
      <point x="391" y="206"/>
      <point x="416" y="206" type="curve" smooth="yes"/>
      <point x="425" y="206"/>
      <point x="433" y="208"/>
      <point x="442" y="210" type="curve" smooth="yes"/>
      <point x="462" y="215"/>
      <point x="493" y="222"/>
      <point x="537" y="223" type="curve"/>
      <point x="490" y="145"/>
      <point x="414" y="99"/>
      <point x="328" y="99" type="curve" smooth="yes"/>
      <point x="189" y="99"/>
      <point x="152" y="231"/>
      <point x="173" y="332" type="curve" smooth="yes"/>
      <point x="189" y="409"/>
      <point x="283" y="583"/>
      <point x="445" y="583" type="curve" smooth="yes"/>
      <point x="549" y="583"/>
      <point x="586" y="524"/>
      <point x="594" y="470" type="curve"/>
      <point x="599" y="448"/>
      <point x="613" y="438"/>
      <point x="636" y="438" type="curve" smooth="yes"/>
      <point x="665" y="438"/>
      <point x="687" y="456"/>
      <point x="693" y="484" type="curve" smooth="yes"/>
      <point x="703" y="527"/>
      <point x="660" y="683"/>
      <point x="467" y="683" type="curve" smooth="yes"/>
      <point x="271" y="683"/>
      <point x="108" y="498"/>
      <point x="73" y="332" type="curve" smooth="yes"/>
      <point x="37" y="162"/>
      <point x="119" y="-1"/>
      <point x="306" y="-1" type="curve" smooth="yes"/>
      <point x="453" y="-1"/>
      <point x="573" y="90"/>
      <point x="634" y="209" type="curve"/>
      <point x="658" y="210"/>
      <point x="685" y="229"/>
      <point x="691" y="258" type="curve" smooth="yes"/>
      <point x="696" y="279"/>
      <point x="691" y="298"/>
    </contour>
  </outline>
</glyph>
<glyph name="H" format="1">
  <advance width="711"/>
  <unicode hex="0048"/>
  <outline>
    <contour>
      <point x="665" y="681" type="curve" smooth="yes"/>
      <point x="637" y="681"/>
      <point x="611" y="660"/>
      <point x="605" y="632" type="curve" smooth="yes"/>
      <point x="560" y="423" type="line"/>
      <point x="186" y="372" type="line"/>
      <point x="241" y="632" type="line" smooth="yes"/>
      <point x="247" y="660"/>
      <point x="228" y="681"/>
      <point x="200" y="681" type="curve" smooth="yes"/>
      <point x="172" y="681"/>
      <point x="147" y="660"/>
      <point x="141" y="632" type="curve" smooth="yes"/>
      <point x="17" y="49" type="line" smooth="yes"/>
      <point x="11" y="23"/>
      <point x="28" y="0"/>
      <point x="56" y="0" type="curve" smooth="yes"/>
      <point x="84" y="0"/>
      <point x="111" y="23"/>
      <point x="117" y="49" type="curve" smooth="yes"/>
      <point x="164" y="271" type="line"/>
      <point x="539" y="322" type="line"/>
      <point x="481" y="49" type="line" smooth="yes"/>
      <point x="475" y="23"/>
      <point x="493" y="0"/>
      <point x="521" y="0" type="curve" smooth="yes"/>
      <point x="547" y="0"/>
      <point x="575" y="23"/>
      <point x="581" y="49" type="curve" smooth="yes"/>
      <point x="705" y="632" type="line" smooth="yes"/>
      <point x="711" y="660"/>
      <point x="691" y="681"/>
    </contour>
  </outline>
</glyph>
<glyph name="I" format="1">
  <advance width="459"/>
  <unicode hex="0049"/>
  <outline>
    <contour>
      <point x="239" y="99" type="line"/>
      <point x="341" y="581" type="line"/>
      <point x="410" y="581" type="line" smooth="yes"/>
      <point x="438" y="581"/>
      <point x="464" y="604"/>
      <point x="470" y="632" type="curve" smooth="yes"/>
      <point x="476" y="660"/>
      <point x="459" y="681"/>
      <point x="431" y="681" type="curve" smooth="yes"/>
      <point x="192" y="681" type="line" smooth="yes"/>
      <point x="164" y="681"/>
      <point x="138" y="660"/>
      <point x="132" y="632" type="curve" smooth="yes"/>
      <point x="126" y="604"/>
      <point x="143" y="581"/>
      <point x="171" y="581" type="curve" smooth="yes"/>
      <point x="241" y="581" type="line"/>
      <point x="139" y="99" type="line"/>
      <point x="69" y="99" type="line" smooth="yes"/>
      <point x="41" y="99"/>
      <point x="14" y="77"/>
      <point x="8" y="49" type="curve" smooth="yes"/>
      <point x="2" y="21"/>
      <point x="19" y="-1"/>
      <point x="47" y="-1" type="curve" smooth="yes"/>
      <point x="286" y="-1" type="line" smooth="yes"/>
      <point x="314" y="-1"/>
      <point x="340" y="21"/>
      <point x="346" y="49" type="curve" smooth="yes"/>
      <point x="352" y="77"/>
      <point x="338" y="99"/>
      <point x="308" y="99" type="curve" smooth="yes"/>
    </contour>
  </outline>
</glyph>
<glyph name="J" format="1">
  <advance width="498"/>
  <unicode hex="004A"/>
  <outline>
    <contour>
      <point x="314" y="677" type="line" smooth="yes"/>
      <point x="286" y="677"/>
      <point x="259" y="654"/>
      <point x="253" y="628" type="curve" smooth="yes"/>
      <point x="247" y="600"/>
      <point x="265" y="578"/>
      <point x="293" y="578" type="curve" smooth="yes"/>
      <point x="384" y="578" type="line"/>
      <point x="298" y="171" type="line" smooth="yes"/>
      <point x="293" y="150"/>
      <point x="274" y="100"/>
      <point x="200" y="100" type="curve" smooth="yes"/>
      <point x="147" y="100"/>
      <point x="116" y="124"/>
      <point x="128" y="183" type="curve" smooth="yes"/>
      <point x="134" y="211"/>
      <point x="117" y="233"/>
      <point x="89" y="233" type="curve" smooth="yes"/>
      <point x="58" y="233"/>
      <point x="34" y="210"/>
      <point x="28" y="181" type="curve" smooth="yes"/>
      <point x="19" y="137"/>
      <point x="12" y="0"/>
      <point x="179" y="0" type="curve" smooth="yes"/>
      <point x="313" y="0"/>
      <point x="381" y="93"/>
      <point x="398" y="171" type="curve" smooth="yes"/>
      <point x="484" y="578" type="line"/>
      <point x="510" y="578"/>
      <point x="538" y="600"/>
      <point x="544" y="628" type="curve" smooth="yes"/>
      <point x="550" y="654"/>
      <point x="531" y="677"/>
      <point x="505" y="677" type="curve" smooth="yes"/>
    </contour>
  </outline>
</glyph>
<glyph name="K" format="1">
  <advance width="596"/>
  <unicode hex="004B"/>
  <outline>
    <contour>
      <point x="397" y="9" type="line" smooth="yes"/>
      <point x="404" y="3"/>
      <point x="413" y="-1"/>
      <point x="425" y="-1" type="curve" smooth="yes"/>
      <point x="452" y="-1"/>
      <point x="479" y="20"/>
      <point x="485" y="48" type="curve" smooth="yes"/>
      <point x="487" y="61"/>
      <point x="487" y="75"/>
      <point x="474" y="87" type="curve" smooth="yes"/>
      <point x="208" y="336" type="line"/>
      <point x="565" y="595" type="line" smooth="yes"/>
      <point x="580" y="606"/>
      <point x="587" y="618"/>
      <point x="590" y="632" type="curve" smooth="yes"/>
      <point x="595" y="657"/>
      <point x="577" y="682"/>
      <point x="552" y="682" type="curve" smooth="yes"/>
      <point x="539" y="682"/>
      <point x="527" y="677"/>
      <point x="518" y="670" type="curve" smooth="yes"/>
      <point x="195" y="436" type="line"/>
      <point x="237" y="632" type="line" smooth="yes"/>
      <point x="243" y="660"/>
      <point x="224" y="681"/>
      <point x="198" y="681" type="curve" smooth="yes"/>
      <point x="171" y="681"/>
      <point x="145" y="660"/>
      <point x="139" y="632" type="curve" smooth="yes"/>
      <point x="15" y="49" type="line" smooth="yes"/>
      <point x="9" y="23"/>
      <point x="27" y="0"/>
      <point x="54" y="0" type="curve" smooth="yes"/>
      <point x="80" y="0"/>
      <point x="107" y="23"/>
      <point x="113" y="49" type="curve" smooth="yes"/>
      <point x="153" y="238" type="line"/>
    </contour>
  </outline>
</glyph>
<glyph name="L" format="1">
  <advance width="503"/>
  <unicode hex="004C"/>
  <outline>
    <contour>
      <point x="383" y="22" type="curve" smooth="yes"/>
      <point x="56" y="0" type="line" smooth="yes"/>
      <point x="54.9041" y="-0.0782782"/>
      <point x="53.8205" y="-0.116728"/>
      <point x="52.7502" y="-0.116728" type="curve" smooth="yes"/>
      <point x="29.7668" y="-0.116728"/>
      <point x="12.9321" y="17.613"/>
      <point x="12.9321" y="39.418" type="curve" smooth="yes"/>
      <point x="12.9321" y="42.5417"/>
      <point x="13.2776" y="45.7491"/>
      <point x="14" y="49" type="curve" smooth="yes"/>
      <point x="138" y="632" type="line" smooth="yes"/>
      <point x="143" y="658"/>
      <point x="170" y="681"/>
      <point x="198" y="681" type="curve" smooth="yes"/>
      <point x="221.066" y="681"/>
      <point x="237.836" y="662.898"/>
      <point x="237.836" y="640.659" type="curve" smooth="yes"/>
      <point x="237.836" y="637.83"/>
      <point x="237.564" y="634.934"/>
      <point x="237" y="632" type="curve" smooth="yes"/>
      <point x="124" y="102" type="line"/>
      <point x="396" y="121" type="line" smooth="yes"/>
      <point x="397.425" y="121.092"/>
      <point x="398.823" y="121.137"/>
      <point x="400.193" y="121.137" type="curve" smooth="yes"/>
      <point x="424.769" y="121.137"/>
      <point x="440.147" y="106.5"/>
      <point x="440.147" y="83.4076" type="curve" smooth="yes"/>
      <point x="440.147" y="79.8032"/>
      <point x="439.773" y="75.9929"/>
      <point x="439" y="72" type="curve" smooth="yes"/>
      <point x="434" y="48"/>
      <point x="409" y="24"/>
    </contour>
  </outline>
</glyph>
<glyph name="N" format="1">
  <advance width="645"/>
  <unicode hex="004E"/>
  <outline>
    <contour>
      <point x="422" y="22" type="curve" smooth="yes"/>
      <point x="206" y="473" type="line"/>
      <point x="115" y="49" type="line" smooth="yes"/>
      <point x="109" y="21"/>
      <point x="83" y="0"/>
      <point x="55" y="0" type="curve" smooth="yes"/>
      <point x="32.2679" y="-3.55271e-15"/>
      <point x="14.8867" y="17.5817"/>
      <point x="14.8867" y="39.3783" type="curve" smooth="yes"/>
      <point x="14.8867" y="42.5117"/>
      <point x="15.2459" y="45.7321"/>
      <point x="16" y="49" type="curve" smooth="yes"/>
      <point x="141" y="632" type="line" smooth="yes"/>
      <point x="146" y="658"/>
      <point x="170" y="681"/>
      <point x="199" y="681" type="curve" smooth="yes"/>
      <point x="214" y="681"/>
      <point x="230" y="673"/>
      <point x="236" y="660" type="curve" smooth="yes"/>
      <point x="452" y="207" type="line"/>
      <point x="543" y="632" type="line" smooth="yes"/>
      <point x="549" y="659"/>
      <point x="575" y="682"/>
      <point x="603" y="682" type="curve" smooth="yes"/>
      <point x="625.732" y="682"/>
      <point x="643.113" y="664.418"/>
      <point x="643.113" y="641.953" type="curve" smooth="yes"/>
      <point x="643.113" y="638.724"/>
      <point x="642.754" y="635.394"/>
      <point x="642" y="632" type="curve" smooth="yes"/>
      <point x="518" y="49" type="line" smooth="yes"/>
      <point x="512" y="20"/>
      <point x="486" y="0"/>
      <point x="459" y="0" type="curve" smooth="yes"/>
      <point x="444" y="0"/>
      <point x="429" y="8"/>
    </contour>
  </outline>
</glyph>
<glyph name="O" format="1">
  <advance width="686"/>
  <unicode hex="004F"/>
  <outline>
    <contour>
      <point x="256" y="-2" type="curve" smooth="yes"/>
      <point x="414" y="-2"/>
      <point x="586" y="166"/>
      <point x="628" y="365" type="curve" smooth="yes"/>
      <point x="665" y="538"/>
      <point x="587" y="682"/>
      <point x="440" y="682" type="curve" smooth="yes"/>
      <point x="283" y="682"/>
      <point x="111" y="514"/>
      <point x="68" y="315" type="curve" smooth="yes"/>
      <point x="32" y="144"/>
      <point x="107" y="-2"/>
    </contour>
    <contour>
      <point x="414" y="587" type="curve" smooth="yes"/>
      <point x="511" y="587"/>
      <point x="556" y="475"/>
      <point x="532" y="361" type="curve" smooth="yes"/>
      <point x="501" y="216"/>
      <point x="379" y="93"/>
      <point x="276" y="93" type="curve" smooth="yes"/>
      <point x="184" y="93"/>
      <point x="139" y="194"/>
      <point x="164" y="315" type="curve"/>
      <point x="197" y="466"/>
      <point x="311" y="587"/>
    </contour>
  </outline>
</glyph>
<glyph name="P" format="1">
  <advance width="573"/>
  <unicode hex="0050"/>
  <outline>
    <contour>
      <point x="55" y="0" type="curve" smooth="yes"/>
      <point x="83" y="0"/>
      <point x="108" y="21"/>
      <point x="114" y="49" type="curve" smooth="yes"/>
      <point x="151" y="223" type="line"/>
      <point x="294" y="228"/>
      <point x="533" y="286"/>
      <point x="572" y="468" type="curve" smooth="yes"/>
      <point x="601" y="605"/>
      <point x="497" y="682"/>
      <point x="246" y="682" type="curve" smooth="yes"/>
      <point x="152" y="682"/>
      <point x="146" y="665"/>
      <point x="136" y="620" type="curve" smooth="yes"/>
      <point x="15" y="49" type="line" smooth="yes"/>
      <point x="9" y="21"/>
      <point x="29" y="0"/>
    </contour>
    <contour>
      <point x="227" y="583" type="line"/>
      <point x="241" y="583" type="line" smooth="yes"/>
      <point x="405" y="583"/>
      <point x="489" y="542"/>
      <point x="473" y="468" type="curve" smooth="yes"/>
      <point x="449" y="355"/>
      <point x="262" y="326"/>
      <point x="172" y="321" type="curve"/>
    </contour>
  </outline>
</glyph>
<glyph name="Q" format="1">
  <advance width="740"/>
  <unicode hex="0051"/>
  <outline>
    <contour>
      <point x="542" y="114" type="curve"/>
      <point x="604" y="68" type="line" smooth="yes"/>
      <point x="614.022" y="60.8416"/>
      <point x="617.382" y="50.6086"/>
      <point x="617.382" y="39.502" type="curve" smooth="yes"/>
      <point x="617.382" y="35.0931"/>
      <point x="616.852" y="30.5466"/>
      <point x="616" y="26" type="curve" smooth="yes"/>
      <point x="609" y="-5"/>
      <point x="581" y="-22"/>
      <point x="557" y="-22" type="curve" smooth="yes"/>
      <point x="547" y="-22"/>
      <point x="538" y="-20"/>
      <point x="531" y="-15" type="curve" smooth="yes"/>
      <point x="452" y="48" type="line"/>
      <point x="396" y="16"/>
      <point x="337" y="-2"/>
      <point x="279" y="-2" type="curve" smooth="yes"/>
      <point x="137.604" y="-2"/>
      <point x="52.0744" y="103.202"/>
      <point x="52.0744" y="239.447" type="curve" smooth="yes"/>
      <point x="52.0744" y="263.155"/>
      <point x="54.6642" y="287.803"/>
      <point x="60" y="313" type="curve" smooth="yes"/>
      <point x="103" y="513"/>
      <point x="292" y="680"/>
      <point x="468" y="680" type="curve" smooth="yes"/>
      <point x="608.705" y="680"/>
      <point x="694.87" y="575.284"/>
      <point x="694.87" y="437.787" type="curve" smooth="yes"/>
      <point x="694.87" y="414.045"/>
      <point x="692.301" y="389.326"/>
      <point x="687" y="364" type="curve" smooth="yes"/>
      <point x="666" y="266"/>
      <point x="615" y="180"/>
    </contour>
    <contour>
      <point x="370" y="108" type="curve"/>
      <point x="336" y="135" type="line" smooth="yes"/>
      <point x="324.835" y="144.072"/>
      <point x="321.461" y="152.657"/>
      <point x="321.461" y="162.454" type="curve" smooth="yes"/>
      <point x="321.461" y="166.696"/>
      <point x="322.093" y="171.165"/>
      <point x="323" y="176" type="curve" smooth="yes"/>
      <point x="329" y="204"/>
      <point x="356" y="225"/>
      <point x="381" y="225" type="curve" smooth="yes"/>
      <point x="392" y="225"/>
      <point x="403" y="222"/>
      <point x="411" y="215" type="curve" smooth="yes"/>
      <point x="470" y="170" type="line"/>
      <point x="523" y="219"/>
      <point x="568" y="288"/>
      <point x="583" y="361" type="curve" smooth="yes"/>
      <point x="586.652" y="378.193"/>
      <point x="588.428" y="395.293"/>
      <point x="588.428" y="411.931" type="curve" smooth="yes"/>
      <point x="588.428" y="504.645"/>
      <point x="533.264" y="583"/>
      <point x="440" y="583" type="curve" smooth="yes"/>
      <point x="324" y="583"/>
      <point x="195" y="464"/>
      <point x="164" y="317" type="curve" smooth="yes"/>
      <point x="159.742" y="296.693"/>
      <point x="157.683" y="277.082"/>
      <point x="157.683" y="258.486" type="curve" smooth="yes"/>
      <point x="157.683" y="163.53"/>
      <point x="211.36" y="95"/>
      <point x="300" y="95" type="curve" smooth="yes"/>
      <point x="324" y="95"/>
      <point x="348" y="100"/>
    </contour>
  </outline>
</glyph>
<glyph name="R" format="1">
  <advance width="623"/>
  <unicode hex="0052"/>
  <outline>
    <contour>
      <point x="510" y="72" type="curve" smooth="yes"/>
      <point x="512" y="64"/>
      <point x="511" y="56"/>
      <point x="510" y="49" type="curve" smooth="yes"/>
      <point x="505" y="24"/>
      <point x="481" y="0"/>
      <point x="451" y="0" type="curve" smooth="yes"/>
      <point x="432" y="0"/>
      <point x="419" y="10"/>
      <point x="412" y="26" type="curve"/>
      <point x="337" y="225"/>
      <point x="255" y="233"/>
      <point x="220" y="233" type="curve" smooth="yes"/>
      <point x="201" y="233"/>
      <point x="177" y="231"/>
      <point x="152" y="227" type="curve"/>
      <point x="114" y="49" type="line" smooth="yes"/>
      <point x="108" y="21"/>
      <point x="81" y="0"/>
      <point x="55" y="0" type="curve" smooth="yes"/>
      <point x="30.7857" y="-1.77636e-15"/>
      <point x="14.798" y="15.7053"/>
      <point x="14.798" y="38.0614" type="curve" smooth="yes"/>
      <point x="14.798" y="41.5566"/>
      <point x="15.1888" y="45.2143"/>
      <point x="16" y="49" type="curve" smooth="yes"/>
      <point x="139" y="627" type="line" smooth="yes"/>
      <point x="151.212" y="685.242"/>
      <point x="167.837" y="687.007"/>
      <point x="255.192" y="687.007" type="curve" smooth="yes"/>
      <point x="260.827" y="687.007"/>
      <point x="266.758" y="687"/>
      <point x="273" y="687" type="curve" smooth="yes"/>
      <point x="472.598" y="687"/>
      <point x="580.887" y="623.481"/>
      <point x="580.887" y="512.007" type="curve" smooth="yes"/>
      <point x="580.887" y="498.379"/>
      <point x="579.268" y="484.033"/>
      <point x="576" y="469" type="curve" smooth="yes"/>
      <point x="555" y="368"/>
      <point x="473" y="310"/>
      <point x="387" y="275" type="curve"/>
      <point x="426" y="238"/>
      <point x="480" y="171"/>
    </contour>
    <contour>
      <point x="229" y="589" type="line"/>
      <point x="172" y="324" type="line"/>
      <point x="296" y="332"/>
      <point x="457" y="374"/>
      <point x="477" y="469" type="curve" smooth="yes"/>
      <point x="478.433" y="475.658"/>
      <point x="479.141" y="482.045"/>
      <point x="479.141" y="488.161" type="curve" smooth="yes"/>
      <point x="479.141" y="554.619"/>
      <point x="395.516" y="589"/>
      <point x="249" y="589" type="curve" smooth="yes"/>
    </contour>
  </outline>
</glyph>
<glyph name="V" format="1">
  <advance width="561"/>
  <unicode hex="0056"/>
  <outline>
    <contour>
      <point x="160" y="33" type="curve"/>
      <point x="87" y="610" type="line" smooth="yes"/>
      <point x="86" y="619"/>
      <point x="87" y="628"/>
      <point x="88" y="633" type="curve" smooth="yes"/>
      <point x="94" y="660"/>
      <point x="118" y="680"/>
      <point x="149" y="680" type="curve" smooth="yes"/>
      <point x="168" y="680"/>
      <point x="185" y="669"/>
      <point x="188" y="646" type="curve" smooth="yes"/>
      <point x="245" y="193" type="line"/>
      <point x="245" y="193"/>
      <point x="430" y="498"/>
      <point x="521" y="649" type="curve"/>
      <point x="535" y="669"/>
      <point x="554" y="680"/>
      <point x="574" y="680" type="curve" smooth="yes"/>
      <point x="599.304" y="680"/>
      <point x="613.95" y="662.489"/>
      <point x="613.95" y="641.417" type="curve" smooth="yes"/>
      <point x="613.95" y="638.339"/>
      <point x="613.637" y="635.186"/>
      <point x="613" y="632" type="curve" smooth="yes"/>
      <point x="612" y="627"/>
      <point x="609" y="620"/>
      <point x="605" y="613" type="curve" smooth="yes"/>
      <point x="252" y="31" type="line" smooth="yes"/>
      <point x="238" y="8"/>
      <point x="220" y="0"/>
      <point x="200" y="0" type="curve" smooth="yes"/>
      <point x="179" y="0"/>
      <point x="162" y="11"/>
    </contour>
  </outline>
</glyph>
<glyph name="W" format="1">
  <advance width="893"/>
  <unicode hex="0057"/>
  <outline>
    <contour>
      <point x="585" y="214" type="line"/>
      <point x="558" y="646" type="line" smooth="yes"/>
      <point x="556" y="670"/>
      <point x="541" y="681"/>
      <point x="519" y="681" type="curve" smooth="yes"/>
      <point x="496" y="681"/>
      <point x="477" y="671"/>
      <point x="464" y="647" type="curve" smooth="yes"/>
      <point x="232" y="215" type="line"/>
      <point x="193" y="646" type="line"/>
      <point x="190" y="668"/>
      <point x="176" y="681"/>
      <point x="152" y="681" type="curve" smooth="yes"/>
      <point x="125" y="681"/>
      <point x="100" y="662"/>
      <point x="95" y="637" type="curve" smooth="yes"/>
      <point x="93" y="629"/>
      <point x="92" y="623"/>
      <point x="93" y="605" type="curve"/>
      <point x="146" y="34" type="line" smooth="yes"/>
      <point x="148" y="12"/>
      <point x="160" y="0"/>
      <point x="185" y="0" type="curve" smooth="yes"/>
      <point x="208" y="0"/>
      <point x="225" y="7"/>
      <point x="240" y="34" type="curve" smooth="yes"/>
      <point x="467" y="458" type="line"/>
      <point x="494" y="36" type="line" smooth="yes"/>
      <point x="495" y="13"/>
      <point x="509" y="0"/>
      <point x="535" y="0" type="curve" smooth="yes"/>
      <point x="556" y="0"/>
      <point x="575" y="12"/>
      <point x="586" y="32" type="curve" smooth="yes"/>
      <point x="921" y="616" type="line" smooth="yes"/>
      <point x="930" y="631"/>
      <point x="932" y="640"/>
      <point x="933" y="648" type="curve"/>
      <point x="939" y="673"/>
      <point x="922" y="692"/>
      <point x="895" y="692" type="curve" smooth="yes"/>
      <point x="871" y="692"/>
      <point x="852" y="679"/>
      <point x="839" y="657" type="curve" smooth="yes"/>
    </contour>
  </outline>
</glyph>
<glyph name="X" format="1">
  <advance width="707"/>
  <unicode hex="0058"/>
  <outline>
    <contour>
      <point x="428" y="345" type="line"/>
      <point x="696" y="600" type="line" smooth="yes"/>
      <point x="704" y="608"/>
      <point x="712" y="620"/>
      <point x="715" y="632" type="curve" smooth="yes"/>
      <point x="720" y="658"/>
      <point x="701" y="681"/>
      <point x="675" y="681" type="curve" smooth="yes"/>
      <point x="661" y="681"/>
      <point x="646" y="675"/>
      <point x="633" y="663" type="curve" smooth="yes"/>
      <point x="382" y="424" type="line"/>
      <point x="241" y="663" type="line" smooth="yes"/>
      <point x="234" y="675"/>
      <point x="221" y="681"/>
      <point x="207" y="681" type="curve" smooth="yes"/>
      <point x="181" y="681"/>
      <point x="152" y="660"/>
      <point x="146" y="632" type="curve" smooth="yes"/>
      <point x="143" y="619"/>
      <point x="147" y="609"/>
      <point x="151" y="601" type="curve" smooth="yes"/>
      <point x="300" y="346" type="line"/>
      <point x="21" y="81" type="line" smooth="yes"/>
      <point x="13" y="74"/>
      <point x="5" y="61"/>
      <point x="3" y="49" type="curve" smooth="yes"/>
      <point x="-2" y="24"/>
      <point x="13" y="0"/>
      <point x="43" y="0" type="curve" smooth="yes"/>
      <point x="57" y="0"/>
      <point x="68" y="4"/>
      <point x="83" y="18" type="curve" smooth="yes"/>
      <point x="345" y="266" type="line"/>
      <point x="491" y="18" type="line"/>
      <point x="499" y="6"/>
      <point x="512" y="0"/>
      <point x="527" y="0" type="curve" smooth="yes"/>
      <point x="554" y="0"/>
      <point x="579" y="23"/>
      <point x="585" y="49" type="curve" smooth="yes"/>
      <point x="587" y="60"/>
      <point x="588" y="69"/>
      <point x="582" y="79" type="curve" smooth="yes"/>
    </contour>
  </outline>
</glyph>
<glyph name="Y" format="1">
  <advance width="619"/>
  <unicode hex="0059"/>
  <outline>
    <contour>
      <point x="320" y="321" type="line"/>
      <point x="195" y="656" type="line" smooth="yes"/>
      <point x="189" y="672"/>
      <point x="175" y="681"/>
      <point x="158" y="681" type="curve" smooth="yes"/>
      <point x="130" y="681"/>
      <point x="103" y="658"/>
      <point x="98" y="632" type="curve" smooth="yes"/>
      <point x="96" y="623"/>
      <point x="96" y="614"/>
      <point x="100" y="603" type="curve" smooth="yes"/>
      <point x="241" y="223" type="line"/>
      <point x="123" y="77" type="line" smooth="yes"/>
      <point x="113" y="64"/>
      <point x="111" y="59"/>
      <point x="109" y="49" type="curve" smooth="yes"/>
      <point x="104" y="24"/>
      <point x="120" y="0"/>
      <point x="148" y="0" type="curve" smooth="yes"/>
      <point x="166" y="0"/>
      <point x="183" y="9"/>
      <point x="196" y="25" type="curve" smooth="yes"/>
      <point x="660" y="600" type="line" smooth="yes"/>
      <point x="672" y="615"/>
      <point x="674" y="621"/>
      <point x="677" y="632" type="curve" smooth="yes"/>
      <point x="683" y="660"/>
      <point x="662" y="681"/>
      <point x="638" y="681" type="curve" smooth="yes"/>
      <point x="620" y="681"/>
      <point x="603" y="673"/>
      <point x="590" y="657" type="curve" smooth="yes"/>
    </contour>
  </outline>
</glyph>
<glyph name="Z" format="1">
  <advance width="665"/>
  <unicode hex="005A"/>
  <outline>
    <contour>
      <point x="156" y="102" type="line"/>
      <point x="658" y="596" type="line" smooth="yes"/>
      <point x="667" y="605"/>
      <point x="670" y="611"/>
      <point x="674" y="627" type="curve" smooth="yes"/>
      <point x="680" y="657"/>
      <point x="661" y="680"/>
      <point x="631" y="680" type="curve" smooth="yes"/>
      <point x="200" y="680" type="line" smooth="yes"/>
      <point x="173" y="680"/>
      <point x="145" y="656"/>
      <point x="139" y="629" type="curve" smooth="yes"/>
      <point x="133" y="600"/>
      <point x="151" y="577"/>
      <point x="178" y="577" type="curve" smooth="yes"/>
      <point x="518" y="577" type="line"/>
      <point x="20" y="88" type="line" smooth="yes"/>
      <point x="10" y="78"/>
      <point x="3" y="65"/>
      <point x="1" y="56" type="curve" smooth="yes"/>
      <point x="-6" y="23"/>
      <point x="7" y="0"/>
      <point x="44" y="0" type="curve" smooth="yes"/>
      <point x="475" y="0" type="line" smooth="yes"/>
      <point x="503" y="0"/>
      <point x="530" y="24"/>
      <point x="535" y="51" type="curve"/>
      <point x="542" y="80"/>
      <point x="524" y="102"/>
      <point x="496" y="102" type="curve" smooth="yes"/>
    </contour>
  </outline>
</glyph>
<glyph name="backslash" format="1">
  <advance width="571"/>
  <unicode hex="005C"/>
  <outline>
    <contour>
      <point x="238" y="650" type="line"/>
      <point x="231" y="668"/>
      <point x="217" y="674"/>
      <point x="201" y="674" type="curve" smooth="yes"/>
      <point x="173" y="674"/>
      <point x="148" y="650"/>
      <point x="143" y="628" type="curve" smooth="yes"/>
      <point x="140" y="615"/>
      <point x="143" y="602"/>
      <point x="146" y="594" type="curve" smooth="yes"/>
      <point x="342" y="24" type="line" smooth="yes"/>
      <point x="347" y="8"/>
      <point x="360" y="-1"/>
      <point x="377" y="-1" type="curve" smooth="yes"/>
      <point x="406" y="-1"/>
      <point x="431" y="22"/>
      <point x="436" y="47" type="curve" smooth="yes"/>
      <point x="438" y="55"/>
      <point x="438" y="63"/>
      <point x="435" y="70" type="curve" smooth="yes"/>
    </contour>
  </outline>
</glyph>
<glyph name="bracketright" format="1">
  <advance width="341"/>
  <unicode hex="005D"/>
  <outline>
    <contour>
      <point x="226" y="778" type="line" smooth="yes"/>
      <point x="201" y="778"/>
      <point x="173" y="757"/>
      <point x="167" y="729" type="curve" smooth="yes"/>
      <point x="162" y="704"/>
      <point x="180" y="681"/>
      <point x="205" y="681" type="curve" smooth="yes"/>
      <point x="267" y="681" type="line"/>
      <point x="119" y="-16" type="line"/>
      <point x="43" y="-16" type="line" smooth="yes"/>
      <point x="17" y="-16"/>
      <point x="-9" y="-37"/>
      <point x="-15" y="-64" type="curve" smooth="yes"/>
      <point x="-21" y="-90"/>
      <point x="-4" y="-113"/>
      <point x="22" y="-113" type="curve" smooth="yes"/>
      <point x="146" y="-113" type="line" smooth="yes"/>
      <point x="173" y="-113"/>
      <point x="199" y="-90"/>
      <point x="205" y="-64" type="curve" smooth="yes"/>
      <point x="373" y="729" type="line" smooth="yes"/>
      <point x="379" y="757"/>
      <point x="363" y="778"/>
      <point x="336" y="778" type="curve" smooth="yes"/>
    </contour>
  </outline>
</glyph>
<glyph name="underscore" format="1">
  <advance width="516"/>
  <unicode hex="005F"/>
  <outline>
    <contour>
      <point x="403" y="-51" type="curve" smooth="yes"/>
      <point x="-42" y="-51" type="line" smooth="yes"/>
      <point x="-64.4622" y="-51"/>
      <point x="-80.207" y="-35.3261"/>
      <point x="-80.207" y="-13.6506" type="curve" smooth="yes"/>
      <point x="-80.207" y="-10.2367"/>
      <point x="-79.8164" y="-6.67388"/>
      <point x="-79" y="-3" type="curve" smooth="yes"/>
      <point x="-74" y="23"/>
      <point x="-49" y="45"/>
      <point x="-22" y="45" type="curve" smooth="yes"/>
      <point x="423" y="45" type="line" smooth="yes"/>
      <point x="445.939" y="45"/>
      <point x="461.872" y="27.8753"/>
      <point x="461.872" y="5.98736" type="curve" smooth="yes"/>
      <point x="461.872" y="3.0666"/>
      <point x="461.589" y="0.061021"/>
      <point x="461" y="-3" type="curve" smooth="yes"/>
      <point x="455" y="-30"/>
      <point x="429" y="-51"/>
    </contour>
  </outline>
</glyph>
<glyph name="a" format="1">
  <advance width="531"/>
  <unicode hex="0061"/>
  <outline>
    <contour>
      <point x="491" y="466" type="line"/>
      <point x="474" y="475"/>
      <point x="412" y="512"/>
      <point x="340" y="512" type="curve" smooth="yes"/>
      <point x="165" y="512"/>
      <point x="61" y="329"/>
      <point x="40" y="226" type="curve" smooth="yes"/>
      <point x="12" y="95"/>
      <point x="76" y="7"/>
      <point x="186" y="7" type="curve" smooth="yes"/>
      <point x="226" y="7"/>
      <point x="268" y="20"/>
      <point x="304" y="35" type="curve"/>
      <point x="305" y="15"/>
      <point x="318" y="0"/>
      <point x="344" y="0" type="curve" smooth="yes"/>
      <point x="372" y="0"/>
      <point x="397" y="24"/>
      <point x="402" y="50" type="curve" smooth="yes"/>
    </contour>
    <contour>
      <point x="324" y="144" type="line"/>
      <point x="296" y="128"/>
      <point x="245" y="103"/>
      <point x="205" y="103" type="curve" smooth="yes"/>
      <point x="135" y="103"/>
      <point x="125" y="174"/>
      <point x="137" y="228" type="curve" smooth="yes"/>
      <point x="151" y="295"/>
      <point x="215" y="417"/>
      <point x="322" y="417" type="curve" smooth="yes"/>
      <point x="343" y="417"/>
      <point x="367" y="412"/>
      <point x="383" y="405" type="curve"/>
    </contour>
  </outline>
</glyph>
<glyph name="c" format="1">
  <advance width="535"/>
  <unicode hex="0063"/>
  <outline>
    <contour>
      <point x="350" y="147" type="curve" smooth="yes"/>
      <point x="359" y="156"/>
      <point x="375" y="172"/>
      <point x="398" y="172" type="curve" smooth="yes"/>
      <point x="420.462" y="172"/>
      <point x="436.207" y="156.326"/>
      <point x="436.207" y="134.651" type="curve" smooth="yes"/>
      <point x="436.207" y="131.237"/>
      <point x="435.816" y="127.674"/>
      <point x="435" y="124" type="curve" smooth="yes"/>
      <point x="432" y="112"/>
      <point x="425" y="102"/>
      <point x="417" y="94" type="curve" smooth="yes"/>
      <point x="372" y="47"/>
      <point x="294" y="0"/>
      <point x="220" y="0" type="curve" smooth="yes"/>
      <point x="114.618" y="1.42109e-14"/>
      <point x="33.1433" y="70.1798"/>
      <point x="33.1433" y="173.967" type="curve" smooth="yes"/>
      <point x="33.1433" y="188.364"/>
      <point x="34.711" y="203.408"/>
      <point x="38" y="219" type="curve" smooth="yes"/>
      <point x="48" y="266"/>
      <point x="71" y="310"/>
      <point x="87" y="335" type="curve"/>
      <point x="126" y="401"/>
      <point x="224" y="500"/>
      <point x="323" y="500" type="curve" smooth="yes"/>
      <point x="398" y="500"/>
      <point x="430" y="476"/>
      <point x="460" y="430" type="curve" smooth="yes"/>
      <point x="464.963" y="422.201"/>
      <point x="466.91" y="414.402"/>
      <point x="466.91" y="406.246" type="curve" smooth="yes"/>
      <point x="466.91" y="402.899"/>
      <point x="466.582" y="399.492"/>
      <point x="466" y="396" type="curve" smooth="yes"/>
      <point x="460" y="370"/>
      <point x="434" y="349"/>
      <point x="408" y="349" type="curve" smooth="yes"/>
      <point x="391" y="349"/>
      <point x="384" y="354"/>
      <point x="379" y="361" type="curve" smooth="yes"/>
      <point x="361" y="389"/>
      <point x="343" y="407"/>
      <point x="305" y="407" type="curve" smooth="yes"/>
      <point x="255" y="407"/>
      <point x="194" y="346"/>
      <point x="166" y="302" type="curve" smooth="yes"/>
      <point x="148" y="272"/>
      <point x="137" y="243"/>
      <point x="132" y="221" type="curve" smooth="yes"/>
      <point x="129.67" y="210.014"/>
      <point x="128.608" y="199.89"/>
      <point x="128.608" y="190.572" type="curve" smooth="yes"/>
      <point x="128.608" y="115.921"/>
      <point x="196.773" y="93"/>
      <point x="227" y="93" type="curve" smooth="yes"/>
      <point x="284" y="93"/>
      <point x="321" y="117"/>
    </contour>
  </outline>
</glyph>
<glyph name="d" format="1">
  <advance width="556"/>
  <unicode hex="0064"/>
  <outline>
    <contour>
      <point x="548" y="628" type="curve" smooth="yes"/>
      <point x="410" y="46" type="line" smooth="yes"/>
      <point x="404" y="20"/>
      <point x="379" y="0"/>
      <point x="352" y="0" type="curve" smooth="yes"/>
      <point x="325.719" y="0"/>
      <point x="312.578" y="18.0684"/>
      <point x="312.578" y="38.5749" type="curve" smooth="yes"/>
      <point x="312.578" y="40.6963"/>
      <point x="312.719" y="42.8438"/>
      <point x="313" y="45" type="curve"/>
      <point x="275" y="23"/>
      <point x="227" y="4"/>
      <point x="172" y="4" type="curve" smooth="yes"/>
      <point x="74.323" y="4"/>
      <point x="33.6959" y="76.4341"/>
      <point x="33.6959" y="162.283" type="curve" smooth="yes"/>
      <point x="33.6959" y="183.661"/>
      <point x="36.2151" y="205.87"/>
      <point x="41" y="228" type="curve" smooth="yes"/>
      <point x="71" y="369"/>
      <point x="158" y="498"/>
      <point x="316" y="498" type="curve" smooth="yes"/>
      <point x="354" y="498"/>
      <point x="389" y="490"/>
      <point x="415" y="481" type="curve"/>
      <point x="451" y="630" type="line" smooth="yes"/>
      <point x="458" y="657"/>
      <point x="484" y="679"/>
      <point x="511" y="679" type="curve" smooth="yes"/>
      <point x="532.44" y="679"/>
      <point x="549.466" y="661.349"/>
      <point x="549.466" y="639.293" type="curve" smooth="yes"/>
      <point x="549.466" y="635.63"/>
      <point x="548.997" y="631.845"/>
    </contour>
    <contour>
      <point x="138" y="231" type="curve"/>
      <point x="134.078" y="213.802"/>
      <point x="131.43" y="194.51"/>
      <point x="131.43" y="175.953" type="curve" smooth="yes"/>
      <point x="131.43" y="133.007"/>
      <point x="145.612" y="94"/>
      <point x="191" y="94" type="curve" smooth="yes"/>
      <point x="272" y="94"/>
      <point x="339" y="148"/>
      <point x="344" y="170" type="curve" smooth="yes"/>
      <point x="392" y="377" type="line"/>
      <point x="372" y="387"/>
      <point x="334" y="403"/>
      <point x="297" y="403" type="curve" smooth="yes"/>
      <point x="193" y="403"/>
      <point x="152" y="301"/>
    </contour>
  </outline>
</glyph>
<glyph name="e" format="1">
  <advance width="547"/>
  <unicode hex="0065"/>
  <outline>
    <contour>
      <point x="369" y="135" type="curve" smooth="yes"/>
      <point x="380" y="144"/>
      <point x="393" y="151"/>
      <point x="406" y="151" type="curve" smooth="yes"/>
      <point x="429.536" y="151"/>
      <point x="443.954" y="135.802"/>
      <point x="443.954" y="114.019" type="curve" smooth="yes"/>
      <point x="443.954" y="110.813"/>
      <point x="443.641" y="107.464"/>
      <point x="443" y="104" type="curve" smooth="yes"/>
      <point x="440" y="92"/>
      <point x="433" y="81"/>
      <point x="424" y="74" type="curve"/>
      <point x="380" y="33"/>
      <point x="304" y="0"/>
      <point x="242" y="0" type="curve" smooth="yes"/>
      <point x="110.415" y="2.84217e-14"/>
      <point x="38.7837" y="85.4338"/>
      <point x="38.7837" y="189.479" type="curve" smooth="yes"/>
      <point x="38.7837" y="205.621"/>
      <point x="40.5079" y="222.211"/>
      <point x="44" y="239" type="curve" smooth="yes"/>
      <point x="73" y="376"/>
      <point x="189" y="499"/>
      <point x="326" y="499" type="curve" smooth="yes"/>
      <point x="445.097" y="499"/>
      <point x="488.487" y="420.037"/>
      <point x="488.487" y="370.079" type="curve" smooth="yes"/>
      <point x="488.487" y="364.666"/>
      <point x="487.978" y="359.594"/>
      <point x="487" y="355" type="curve" smooth="yes"/>
      <point x="483" y="338"/>
      <point x="470" y="321"/>
      <point x="446" y="309" type="curve" smooth="yes"/>
      <point x="145" y="155" type="line"/>
      <point x="166" y="114"/>
      <point x="204" y="93"/>
      <point x="261" y="93" type="curve" smooth="yes"/>
      <point x="294" y="93"/>
      <point x="342" y="112"/>
    </contour>
    <contour>
      <point x="137" y="247" type="curve"/>
      <point x="390" y="372" type="line"/>
      <point x="378" y="394"/>
      <point x="352" y="405"/>
      <point x="306" y="405" type="curve" smooth="yes"/>
      <point x="229" y="405"/>
      <point x="160" y="335"/>
    </contour>
  </outline>
</glyph>
<glyph name="h" format="1">
  <advance width="529"/>
  <unicode hex="0068"/>
  <outline>
    <contour>
      <point x="410" y="45" type="curve"/>
      <point x="419" y="73"/>
      <point x="427" y="109"/>
      <point x="440" y="170" type="curve" smooth="yes"/>
      <point x="487" y="391"/>
      <point x="475" y="501"/>
      <point x="367" y="501" type="curve" smooth="yes"/>
      <point x="308" y="501"/>
      <point x="241" y="461"/>
      <point x="188" y="408" type="curve"/>
      <point x="234" y="623" type="line" smooth="yes"/>
      <point x="239" y="649"/>
      <point x="225" y="672"/>
      <point x="196" y="672" type="curve" smooth="yes"/>
      <point x="169" y="672"/>
      <point x="143" y="649"/>
      <point x="138" y="623" type="curve" smooth="yes"/>
      <point x="15" y="47" type="line" smooth="yes"/>
      <point x="10" y="22"/>
      <point x="28" y="-1"/>
      <point x="53" y="-1" type="curve" smooth="yes"/>
      <point x="79" y="-1"/>
      <point x="105" y="17"/>
      <point x="112" y="49" type="curve" smooth="yes"/>
      <point x="144" y="198" type="line"/>
      <point x="149" y="225"/>
      <point x="157" y="249"/>
      <point x="171" y="269" type="curve" smooth="yes"/>
      <point x="191" y="297"/>
      <point x="276" y="406"/>
      <point x="341" y="406" type="curve" smooth="yes"/>
      <point x="364" y="406"/>
      <point x="389" y="380"/>
      <point x="343" y="163" type="curve" smooth="yes"/>
      <point x="330" y="100"/>
      <point x="322" y="73"/>
      <point x="316" y="47" type="curve" smooth="yes"/>
      <point x="311" y="21"/>
      <point x="325" y="0"/>
      <point x="354" y="0" type="curve" smooth="yes"/>
      <point x="380" y="0"/>
      <point x="404" y="20"/>
    </contour>
  </outline>
</glyph>
<glyph name="i" format="1">
  <advance width="245"/>
  <unicode hex="0069"/>
  <outline>
    <contour>
      <point x="207" y="447" type="line"/>
      <point x="212" y="474"/>
      <point x="196" y="496"/>
      <point x="168" y="496" type="curve" smooth="yes"/>
      <point x="141" y="496"/>
      <point x="114" y="474"/>
      <point x="109" y="447" type="curve"/>
      <point x="19" y="49" type="line" smooth="yes"/>
      <point x="13" y="22"/>
      <point x="31" y="0"/>
      <point x="58" y="0" type="curve" smooth="yes"/>
      <point x="85" y="0"/>
      <point x="111" y="22"/>
      <point x="117" y="49" type="curve" smooth="yes"/>
    </contour>
    <contour>
      <point x="177" y="541" type="curve" smooth="yes"/>
      <point x="204" y="541"/>
      <point x="229" y="561"/>
      <point x="235" y="588" type="curve"/>
      <point x="245" y="626" type="line" smooth="yes"/>
      <point x="251" y="650"/>
      <point x="234" y="674"/>
      <point x="208" y="674" type="curve" smooth="yes"/>
      <point x="183" y="674"/>
      <point x="156" y="653"/>
      <point x="150" y="627" type="curve" smooth="yes"/>
      <point x="141" y="590" type="line" smooth="yes"/>
      <point x="134" y="564"/>
      <point x="151" y="541"/>
    </contour>
  </outline>
</glyph>
<glyph name="j" format="1">
  <advance width="359"/>
  <unicode hex="006A"/>
  <outline>
    <contour>
      <point x="29" y="11" type="curve" smooth="yes"/>
      <point x="27" y="31"/>
      <point x="15" y="45"/>
      <point x="-10" y="45" type="curve" smooth="yes"/>
      <point x="-39" y="45"/>
      <point x="-63" y="22"/>
      <point x="-68" y="-3" type="curve" smooth="yes"/>
      <point x="-69" y="-9"/>
      <point x="-69" y="-16"/>
      <point x="-69" y="-20" type="curve" smooth="yes"/>
      <point x="-66" y="-43"/>
      <point x="-42" y="-164"/>
      <point x="62" y="-164" type="curve" smooth="yes"/>
      <point x="172" y="-164"/>
      <point x="216" y="-45"/>
      <point x="230" y="21" type="curve" smooth="yes"/>
      <point x="233" y="35"/>
      <point x="260" y="164"/>
      <point x="281" y="272" type="curve" smooth="yes"/>
      <point x="299" y="362"/>
      <point x="315" y="445"/>
      <point x="317" y="453" type="curve" smooth="yes"/>
      <point x="322" y="479"/>
      <point x="304" y="501"/>
      <point x="279" y="501" type="curve" smooth="yes"/>
      <point x="250" y="501"/>
      <point x="227" y="480"/>
      <point x="221" y="452" type="curve" smooth="yes"/>
      <point x="217" y="437"/>
      <point x="196" y="328"/>
      <point x="174" y="220" type="curve" smooth="yes"/>
      <point x="154" y="122"/>
      <point x="136" y="28"/>
      <point x="134" y="16" type="curve" smooth="yes"/>
      <point x="128" y="-10"/>
      <point x="113" y="-73"/>
      <point x="79" y="-73" type="curve" smooth="yes"/>
      <point x="49" y="-73"/>
      <point x="33" y="-24"/>
    </contour>
    <contour>
      <point x="363" y="631" type="line" smooth="yes"/>
      <point x="370" y="655"/>
      <point x="357" y="682"/>
      <point x="326" y="682" type="curve" smooth="yes"/>
      <point x="303" y="682"/>
      <point x="278" y="667"/>
      <point x="270" y="642" type="curve" smooth="yes"/>
      <point x="257" y="599" type="line" smooth="yes"/>
      <point x="250" y="574"/>
      <point x="264" y="549"/>
      <point x="292" y="549" type="curve" smooth="yes"/>
      <point x="313" y="549"/>
      <point x="342" y="562"/>
      <point x="349" y="588" type="curve"/>
    </contour>
  </outline>
</glyph>
<glyph name="l" format="1">
  <advance width="252"/>
  <unicode hex="006C"/>
  <outline>
    <contour>
      <point x="247" y="625" type="line" smooth="yes"/>
      <point x="253" y="651"/>
      <point x="234" y="672"/>
      <point x="209" y="672" type="curve" smooth="yes"/>
      <point x="181" y="672"/>
      <point x="157" y="651"/>
      <point x="151" y="625" type="curve" smooth="yes"/>
      <point x="28" y="45" type="line" smooth="yes"/>
      <point x="23" y="20"/>
      <point x="42" y="0"/>
      <point x="67" y="0" type="curve" smooth="yes"/>
      <point x="90" y="0"/>
      <point x="119" y="20"/>
      <point x="124" y="45" type="curve" smooth="yes"/>
    </contour>
  </outline>
</glyph>
<glyph name="m" format="1">
  <advance width="839"/>
  <unicode hex="006D"/>
  <outline>
    <contour>
      <point x="641" y="510" type="curve" smooth="yes"/>
      <point x="594" y="510"/>
      <point x="532" y="481"/>
      <point x="475" y="432" type="curve"/>
      <point x="460" y="492"/>
      <point x="413" y="510"/>
      <point x="368" y="510" type="curve" smooth="yes"/>
      <point x="314" y="510"/>
      <point x="253" y="469"/>
      <point x="197" y="417" type="curve"/>
      <point x="204" y="451" type="line" smooth="yes"/>
      <point x="210" y="476"/>
      <point x="194" y="499"/>
      <point x="167" y="499" type="curve" smooth="yes"/>
      <point x="142" y="499"/>
      <point x="114" y="476"/>
      <point x="108" y="451" type="curve"/>
      <point x="22" y="47" type="line" smooth="yes"/>
      <point x="17" y="21"/>
      <point x="36" y="0"/>
      <point x="61" y="0" type="curve" smooth="yes"/>
      <point x="87" y="0"/>
      <point x="113" y="21"/>
      <point x="118" y="47" type="curve" smooth="yes"/>
      <point x="162" y="253" type="line" smooth="yes"/>
      <point x="167" y="275"/>
      <point x="170" y="282"/>
      <point x="177" y="290" type="curve" smooth="yes"/>
      <point x="251" y="378"/>
      <point x="317" y="420"/>
      <point x="349" y="420" type="curve" smooth="yes"/>
      <point x="370" y="420"/>
      <point x="396" y="411"/>
      <point x="378" y="326" type="curve" smooth="yes"/>
      <point x="318" y="47" type="line" smooth="yes"/>
      <point x="313" y="21"/>
      <point x="332" y="0"/>
      <point x="357" y="0" type="curve" smooth="yes"/>
      <point x="384" y="0"/>
      <point x="409" y="21"/>
      <point x="414" y="47" type="curve" smooth="yes"/>
      <point x="462" y="270" type="line" smooth="yes"/>
      <point x="481" y="358"/>
      <point x="579" y="420"/>
      <point x="622" y="420" type="curve" smooth="yes"/>
      <point x="642" y="420"/>
      <point x="670" y="411"/>
      <point x="652" y="326" type="curve" smooth="yes"/>
      <point x="592" y="47" type="line" smooth="yes"/>
      <point x="587" y="21"/>
      <point x="605" y="0"/>
      <point x="631" y="0" type="curve" smooth="yes"/>
      <point x="656" y="0"/>
      <point x="683" y="21"/>
      <point x="688" y="47" type="curve" smooth="yes"/>
      <point x="747" y="320" type="line" smooth="yes"/>
      <point x="780" y="477"/>
      <point x="707" y="510"/>
    </contour>
  </outline>
</glyph>
<glyph name="p" format="1">
  <advance width="546"/>
  <unicode hex="0070"/>
  <outline>
    <contour>
      <point x="358" y="500" type="curve" smooth="yes"/>
      <point x="294" y="500"/>
      <point x="241" y="483"/>
      <point x="199" y="460" type="curve"/>
      <point x="199" y="482"/>
      <point x="185" y="500"/>
      <point x="162" y="500" type="curve" smooth="yes"/>
      <point x="134" y="500"/>
      <point x="108" y="479"/>
      <point x="102" y="451" type="curve" smooth="yes"/>
      <point x="-21" y="-129" type="line" smooth="yes"/>
      <point x="-26" y="-154"/>
      <point x="-9" y="-177"/>
      <point x="17" y="-177" type="curve" smooth="yes"/>
      <point x="42" y="-177"/>
      <point x="70" y="-154"/>
      <point x="75" y="-129" type="curve" smooth="yes"/>
      <point x="108" y="24" type="line"/>
      <point x="133" y="15"/>
      <point x="164" y="7"/>
      <point x="199" y="7" type="curve" smooth="yes"/>
      <point x="377" y="7"/>
      <point x="454" y="160"/>
      <point x="478" y="273" type="curve" smooth="yes"/>
      <point x="500" y="380"/>
      <point x="469" y="500"/>
    </contour>
    <contour>
      <point x="226" y="104" type="curve" smooth="yes"/>
      <point x="188" y="104"/>
      <point x="151" y="119"/>
      <point x="130" y="128" type="curve"/>
      <point x="176" y="345" type="line"/>
      <point x="199" y="368"/>
      <point x="253" y="410"/>
      <point x="331" y="410" type="curve" smooth="yes"/>
      <point x="398" y="410"/>
      <point x="397" y="322"/>
      <point x="387" y="273" type="curve" smooth="yes"/>
      <point x="366" y="177"/>
      <point x="319" y="104"/>
    </contour>
  </outline>
</glyph>
<glyph name="q" format="1">
  <advance width="540"/>
  <unicode hex="0071"/>
  <outline>
    <contour>
      <point x="259" y="-120" type="curve" smooth="yes"/>
      <point x="293" y="17" type="line"/>
      <point x="270" y="4"/>
      <point x="242" y="-5"/>
      <point x="204" y="-5" type="curve" smooth="yes"/>
      <point x="94.7063" y="-5"/>
      <point x="31.3441" y="64.2618"/>
      <point x="31.3441" y="161.699" type="curve" smooth="yes"/>
      <point x="31.3441" y="178.376"/>
      <point x="33.2003" y="195.878"/>
      <point x="37" y="214" type="curve" smooth="yes"/>
      <point x="73" y="382"/>
      <point x="204" y="490"/>
      <point x="365" y="490" type="curve" smooth="yes"/>
      <point x="380" y="490"/>
      <point x="396" y="489"/>
      <point x="412" y="487" type="curve"/>
      <point x="423" y="504"/>
      <point x="443" y="516"/>
      <point x="463" y="516" type="curve" smooth="yes"/>
      <point x="483.331" y="516"/>
      <point x="500.792" y="504.518"/>
      <point x="500.792" y="481.554" type="curve" smooth="yes"/>
      <point x="500.792" y="477.41"/>
      <point x="500.223" y="472.892"/>
      <point x="499" y="468" type="curve" smooth="yes"/>
      <point x="352" y="-124" type="line" smooth="yes"/>
      <point x="344" y="-157"/>
      <point x="320" y="-172"/>
      <point x="294" y="-172" type="curve" smooth="yes"/>
      <point x="268.964" y="-172"/>
      <point x="256.973" y="-155.042"/>
      <point x="256.973" y="-134.821" type="curve" smooth="yes"/>
      <point x="256.973" y="-130.004"/>
      <point x="257.653" y="-125.002"/>
    </contour>
    <contour>
      <point x="215" y="85" type="curve" smooth="yes"/>
      <point x="274" y="85"/>
      <point x="318" y="116"/>
      <point x="332" y="173" type="curve" smooth="yes"/>
      <point x="388" y="396" type="line"/>
      <point x="373" y="398"/>
      <point x="357" y="399"/>
      <point x="345" y="399" type="curve" smooth="yes"/>
      <point x="241" y="399"/>
      <point x="153" y="332"/>
      <point x="128" y="213" type="curve" smooth="yes"/>
      <point x="125.645" y="201.961"/>
      <point x="124.525" y="191.398"/>
      <point x="124.525" y="181.41" type="curve" smooth="yes"/>
      <point x="124.525" y="123.546"/>
      <point x="162.126" y="85"/>
    </contour>
  </outline>
</glyph>
<glyph name="r" format="1">
  <advance width="422"/>
  <unicode hex="0072"/>
  <outline>
    <contour>
      <point x="418" y="406" type="line" smooth="yes"/>
      <point x="427" y="449"/>
      <point x="417" y="501"/>
      <point x="342" y="501" type="curve" smooth="yes"/>
      <point x="283" y="501"/>
      <point x="233" y="472"/>
      <point x="194" y="437" type="curve"/>
      <point x="197" y="451" type="line" smooth="yes"/>
      <point x="203" y="478"/>
      <point x="186" y="499"/>
      <point x="159" y="499" type="curve" smooth="yes"/>
      <point x="133" y="499"/>
      <point x="105" y="478"/>
      <point x="99" y="451" type="curve" smooth="yes"/>
      <point x="13" y="46" type="line" smooth="yes"/>
      <point x="8" y="22"/>
      <point x="28" y="0"/>
      <point x="53" y="0" type="curve" smooth="yes"/>
      <point x="78" y="0"/>
      <point x="105" y="22"/>
      <point x="110" y="46" type="curve" smooth="yes"/>
      <point x="155" y="250" type="line"/>
      <point x="161" y="281"/>
      <point x="179" y="314"/>
      <point x="198" y="333" type="curve" smooth="yes"/>
      <point x="237" y="373"/>
      <point x="278" y="406"/>
      <point x="310" y="406" type="curve" smooth="yes"/>
      <point x="322" y="406"/>
      <point x="323" y="400"/>
      <point x="320" y="390" type="curve"/>
      <point x="318" y="377" type="line" smooth="yes"/>
      <point x="313" y="354"/>
      <point x="319" y="329"/>
      <point x="354" y="329" type="curve" smooth="yes"/>
      <point x="381" y="329"/>
      <point x="406" y="350"/>
      <point x="411" y="376" type="curve" smooth="yes"/>
    </contour>
  </outline>
</glyph>
<glyph name="v" format="1">
  <advance width="462"/>
  <unicode hex="0076"/>
  <outline>
    <contour>
      <point x="464" y="432" type="curve" smooth="yes"/>
      <point x="217" y="29" type="line" smooth="yes"/>
      <point x="205" y="10"/>
      <point x="190" y="-1"/>
      <point x="165" y="-1" type="curve" smooth="yes"/>
      <point x="141" y="-1"/>
      <point x="133" y="11"/>
      <point x="128" y="32" type="curve"/>
      <point x="49" y="434" type="line" smooth="yes"/>
      <point x="48" y="440"/>
      <point x="48" y="446"/>
      <point x="50" y="454" type="curve" smooth="yes"/>
      <point x="55" y="478"/>
      <point x="82" y="499"/>
      <point x="109" y="499" type="curve" smooth="yes"/>
      <point x="132" y="499"/>
      <point x="143" y="487"/>
      <point x="147" y="467" type="curve" smooth="yes"/>
      <point x="201" y="169" type="line"/>
      <point x="384" y="470" type="line" smooth="yes"/>
      <point x="395" y="488"/>
      <point x="415" y="500"/>
      <point x="436" y="500" type="curve" smooth="yes"/>
      <point x="461.13" y="500"/>
      <point x="474.996" y="482.729"/>
      <point x="474.996" y="462.503" type="curve" smooth="yes"/>
      <point x="474.996" y="459.388"/>
      <point x="474.667" y="456.203"/>
      <point x="474" y="453" type="curve" smooth="yes"/>
      <point x="472" y="446"/>
      <point x="469" y="440"/>
    </contour>
  </outline>
</glyph>
<glyph name="z" format="1">
  <advance width="515"/>
  <unicode hex="007A"/>
  <outline>
    <contour>
      <point x="8" y="77" type="line" smooth="yes"/>
      <point x="-2" y="67"/>
      <point x="-7" y="56"/>
      <point x="-8" y="48" type="curve"/>
      <point x="-14" y="23"/>
      <point x="-2" y="0"/>
      <point x="30" y="0" type="curve" smooth="yes"/>
      <point x="351" y="0" type="line" smooth="yes"/>
      <point x="377" y="0"/>
      <point x="403" y="23"/>
      <point x="409" y="48" type="curve"/>
      <point x="414" y="74"/>
      <point x="397" y="96"/>
      <point x="371" y="96" type="curve" smooth="yes"/>
      <point x="145" y="96" type="line"/>
      <point x="474" y="423" type="line" smooth="yes"/>
      <point x="485" y="433"/>
      <point x="488" y="441"/>
      <point x="491" y="452" type="curve"/>
      <point x="496" y="478"/>
      <point x="483" y="501"/>
      <point x="453" y="501" type="curve" smooth="yes"/>
      <point x="146" y="501" type="line" smooth="yes"/>
      <point x="119" y="501"/>
      <point x="93" y="478"/>
      <point x="88" y="452" type="curve" smooth="yes"/>
      <point x="82" y="425"/>
      <point x="98" y="404"/>
      <point x="125" y="404" type="curve" smooth="yes"/>
      <point x="337" y="404" type="line"/>
    </contour>
  </outline>
</glyph>
<glyph name="braceleft" format="1">
  <advance width="402"/>
  <unicode hex="007B"/>
  <outline>
    <contour>
      <point x="103" y="383" type="curve"/>
      <point x="79" y="373"/>
      <point x="70" y="364"/>
      <point x="65" y="339" type="curve" smooth="yes"/>
      <point x="61" y="320"/>
      <point x="65" y="305"/>
      <point x="87" y="297" type="curve"/>
      <point x="110" y="287"/>
      <point x="126" y="264"/>
      <point x="118" y="229" type="curve" smooth="yes"/>
      <point x="79" y="43" type="line" smooth="yes"/>
      <point x="57" y="-59"/>
      <point x="129" y="-99"/>
      <point x="190" y="-112" type="curve"/>
      <point x="223" y="-118"/>
      <point x="253" y="-99"/>
      <point x="261" y="-65" type="curve" smooth="yes"/>
      <point x="266" y="-42"/>
      <point x="253" y="-23"/>
      <point x="230" y="-18" type="curve"/>
      <point x="205" y="-14"/>
      <point x="164" y="2"/>
      <point x="173" y="43" type="curve" smooth="yes"/>
      <point x="212" y="228" type="line" smooth="yes"/>
      <point x="222" y="273"/>
      <point x="211" y="312"/>
      <point x="194" y="340" type="curve"/>
      <point x="226" y="368"/>
      <point x="250" y="406"/>
      <point x="260" y="453" type="curve" smooth="yes"/>
      <point x="296" y="624" type="line" smooth="yes"/>
      <point x="305" y="665"/>
      <point x="352" y="680"/>
      <point x="378" y="685" type="curve" smooth="yes"/>
      <point x="407" y="691"/>
      <point x="425" y="707"/>
      <point x="430" y="732" type="curve" smooth="yes"/>
      <point x="436" y="760"/>
      <point x="419" y="785"/>
      <point x="385" y="779" type="curve"/>
      <point x="318" y="769"/>
      <point x="224" y="726"/>
      <point x="202" y="624" type="curve" smooth="yes"/>
      <point x="166" y="452" type="line"/>
      <point x="159" y="423"/>
      <point x="146" y="403"/>
    </contour>
  </outline>
</glyph>
<glyph name="bar" format="1">
  <advance width="219"/>
  <unicode hex="007C"/>
  <outline>
    <contour>
      <point x="17" y="-153" type="curve" smooth="yes"/>
      <point x="44" y="-153"/>
      <point x="69" y="-132"/>
      <point x="75" y="-104" type="curve" smooth="yes"/>
      <point x="259" y="760" type="line" smooth="yes"/>
      <point x="265" y="786"/>
      <point x="248" y="808"/>
      <point x="221" y="808" type="curve" smooth="yes"/>
      <point x="195" y="808"/>
      <point x="168" y="786"/>
      <point x="162" y="760" type="curve" smooth="yes"/>
      <point x="-22" y="-104" type="line" smooth="yes"/>
      <point x="-28" y="-132"/>
      <point x="-9" y="-153"/>
    </contour>
  </outline>
</glyph>
<glyph name="exclamdown" format="1">
  <advance width="222"/>
  <unicode hex="00A1"/>
  <outline>
    <contour>
      <point x="148" y="279" type="curve" smooth="yes"/>
      <point x="61" y="-129" type="line" smooth="yes"/>
      <point x="56" y="-155"/>
      <point x="28" y="-179"/>
      <point x="1" y="-179" type="curve" smooth="yes"/>
      <point x="-23.4199" y="-179"/>
      <point x="-37.9516" y="-160.745"/>
      <point x="-37.9516" y="-138.829" type="curve" smooth="yes"/>
      <point x="-37.9516" y="-135.616"/>
      <point x="-37.6393" y="-132.324"/>
      <point x="-37" y="-129" type="curve" smooth="yes"/>
      <point x="50" y="279" type="line" smooth="yes"/>
      <point x="56" y="306"/>
      <point x="81" y="328"/>
      <point x="109" y="328" type="curve" smooth="yes"/>
      <point x="132.482" y="328"/>
      <point x="149.156" y="311.36"/>
      <point x="149.156" y="289.262" type="curve" smooth="yes"/>
      <point x="149.156" y="285.952"/>
      <point x="148.782" y="282.518"/>
    </contour>
    <contour>
      <point x="80" y="431" type="curve" smooth="yes"/>
      <point x="88" y="468"/>
      <point x="124" y="496"/>
      <point x="153" y="496" type="curve" smooth="yes"/>
      <point x="179.151" y="496"/>
      <point x="194.627" y="478.21"/>
      <point x="194.627" y="454.035" type="curve" smooth="yes"/>
      <point x="194.627" y="449.552"/>
      <point x="194.095" y="444.849"/>
      <point x="193" y="440" type="curve" smooth="yes"/>
      <point x="186" y="406"/>
      <point x="150" y="375"/>
      <point x="120" y="375" type="curve" smooth="yes"/>
      <point x="93.5066" y="375"/>
      <point x="78.6993" y="394.72"/>
      <point x="78.6993" y="418.556" type="curve" smooth="yes"/>
      <point x="78.6993" y="422.611"/>
      <point x="79.1278" y="426.784"/>
    </contour>
  </outline>
</glyph>
<glyph name="cent" format="1">
  <advance width="582"/>
  <unicode hex="00A2"/>
  <outline>
    <contour>
      <point x="439" y="262" type="curve" smooth="yes"/>
      <point x="415" y="262"/>
      <point x="402" y="245"/>
      <point x="394" y="238" type="curve" smooth="yes"/>
      <point x="369" y="213"/>
      <point x="340" y="193"/>
      <point x="305" y="186" type="curve"/>
      <point x="379" y="491" type="line"/>
      <point x="394" y="484"/>
      <point x="407" y="472"/>
      <point x="416" y="455" type="curve" smooth="yes"/>
      <point x="423" y="443"/>
      <point x="434" y="439"/>
      <point x="451" y="439" type="curve" smooth="yes"/>
      <point x="477" y="439"/>
      <point x="502" y="460"/>
      <point x="508" y="486" type="curve" smooth="yes"/>
      <point x="515" y="521"/>
      <point x="454" y="573"/>
      <point x="401" y="587" type="curve"/>
      <point x="412" y="627" type="line" smooth="yes"/>
      <point x="418" y="650"/>
      <point x="402" y="673"/>
      <point x="376" y="673" type="curve" smooth="yes"/>
      <point x="353" y="673"/>
      <point x="327" y="653"/>
      <point x="321" y="628" type="curve" smooth="yes"/>
      <point x="309" y="579" type="line"/>
      <point x="192" y="534"/>
      <point x="102" y="413"/>
      <point x="80" y="308" type="curve" smooth="yes"/>
      <point x="66" y="244"/>
      <point x="72" y="139"/>
      <point x="194" y="99" type="curve"/>
      <point x="180" y="46" type="line" smooth="yes"/>
      <point x="174" y="22"/>
      <point x="191" y="0"/>
      <point x="217" y="0" type="curve" smooth="yes"/>
      <point x="242" y="0"/>
      <point x="265" y="20"/>
      <point x="271" y="45" type="curve" smooth="yes"/>
      <point x="283" y="91" type="line"/>
      <point x="352" y="96"/>
      <point x="412" y="135"/>
      <point x="459" y="184" type="curve" smooth="yes"/>
      <point x="468" y="193"/>
      <point x="473" y="202"/>
      <point x="476" y="213" type="curve"/>
      <point x="481" y="239"/>
      <point x="465" y="262"/>
    </contour>
    <contour>
      <point x="174" y="310" type="curve" smooth="yes"/>
      <point x="182" y="347"/>
      <point x="215" y="430"/>
      <point x="284" y="477" type="curve"/>
      <point x="216" y="195" type="line"/>
      <point x="182" y="219"/>
      <point x="165" y="264"/>
    </contour>
  </outline>
</glyph>
<glyph name="sterling" format="1">
  <advance width="770"/>
  <unicode hex="00A3"/>
  <outline>
    <contour>
      <point x="609" y="188" type="curve" smooth="yes"/>
      <point x="584" y="188"/>
      <point x="566" y="172"/>
      <point x="553" y="145" type="curve" smooth="yes"/>
      <point x="535" y="106"/>
      <point x="505" y="85"/>
      <point x="471" y="85" type="curve" smooth="yes"/>
      <point x="438" y="85"/>
      <point x="403" y="100"/>
      <point x="373" y="126" type="curve" smooth="yes"/>
      <point x="349" y="148"/>
      <point x="319" y="159"/>
      <point x="284" y="159" type="curve" smooth="yes"/>
      <point x="271" y="159" type="line"/>
      <point x="280" y="179"/>
      <point x="286" y="198"/>
      <point x="289" y="214" type="curve" smooth="yes"/>
      <point x="295" y="243"/>
      <point x="293" y="271"/>
      <point x="292" y="297" type="curve"/>
      <point x="468" y="297" type="line" smooth="yes"/>
      <point x="494" y="297"/>
      <point x="520" y="320"/>
      <point x="525" y="344" type="curve" smooth="yes"/>
      <point x="530" y="371"/>
      <point x="514" y="392"/>
      <point x="488" y="392" type="curve" smooth="yes"/>
      <point x="292" y="392" type="line"/>
      <point x="294" y="418"/>
      <point x="297" y="441"/>
      <point x="301" y="461" type="curve" smooth="yes"/>
      <point x="324" y="565"/>
      <point x="379" y="610"/>
      <point x="479" y="610" type="curve" smooth="yes"/>
      <point x="545" y="610"/>
      <point x="581" y="569"/>
      <point x="580" y="506" type="curve" smooth="yes"/>
      <point x="580" y="480"/>
      <point x="594" y="463"/>
      <point x="619" y="463" type="curve" smooth="yes"/>
      <point x="655" y="463"/>
      <point x="678" y="492"/>
      <point x="677" y="525" type="curve" smooth="yes"/>
      <point x="675" y="602"/>
      <point x="641" y="705"/>
      <point x="511" y="705" type="curve" smooth="yes"/>
      <point x="341" y="705"/>
      <point x="241" y="623"/>
      <point x="206" y="461" type="curve"/>
      <point x="202" y="439"/>
      <point x="197" y="414"/>
      <point x="196" y="392" type="curve"/>
      <point x="141" y="392" type="line" smooth="yes"/>
      <point x="114" y="392"/>
      <point x="88" y="371"/>
      <point x="83" y="344" type="curve" smooth="yes"/>
      <point x="78" y="320"/>
      <point x="94" y="297"/>
      <point x="121" y="297" type="curve" smooth="yes"/>
      <point x="197" y="297" type="line"/>
      <point x="202" y="264"/>
      <point x="199" y="237"/>
      <point x="194" y="214" type="curve" smooth="yes"/>
      <point x="185" y="174"/>
      <point x="151" y="118"/>
      <point x="104" y="85" type="curve"/>
      <point x="91" y="77"/>
      <point x="80" y="63"/>
      <point x="76" y="47" type="curve" smooth="yes"/>
      <point x="71" y="21"/>
      <point x="88" y="0"/>
      <point x="114" y="0" type="curve" smooth="yes"/>
      <point x="126" y="0"/>
      <point x="140" y="8"/>
      <point x="160" y="21" type="curve" smooth="yes"/>
      <point x="187" y="38"/>
      <point x="226" y="64"/>
      <point x="264" y="64" type="curve" smooth="yes"/>
      <point x="277" y="64"/>
      <point x="291" y="60"/>
      <point x="301" y="51" type="curve" smooth="yes"/>
      <point x="344" y="13"/>
      <point x="401" y="-9"/>
      <point x="453" y="-9" type="curve" smooth="yes"/>
      <point x="531" y="-9"/>
      <point x="631" y="67"/>
      <point x="646" y="138" type="curve" smooth="yes"/>
      <point x="651" y="164"/>
      <point x="639" y="188"/>
    </contour>
  </outline>
</glyph>
<glyph name="currency" format="1">
  <advance width="543"/>
  <unicode hex="00A4"/>
  <outline>
    <contour>
      <point x="389" y="171" type="curve"/>
      <point x="429" y="119" type="line" smooth="yes"/>
      <point x="433.963" y="112.619"/>
      <point x="435.91" y="104.227"/>
      <point x="435.91" y="95.963" type="curve" smooth="yes"/>
      <point x="435.91" y="92.5712"/>
      <point x="435.582" y="89.2009"/>
      <point x="435" y="86" type="curve" smooth="yes"/>
      <point x="430" y="63"/>
      <point x="407" y="40"/>
      <point x="379" y="40" type="curve" smooth="yes"/>
      <point x="368" y="40"/>
      <point x="357" y="46"/>
      <point x="350" y="54" type="curve" smooth="yes"/>
      <point x="310" y="104" type="line"/>
      <point x="282" y="91"/>
      <point x="252" y="83"/>
      <point x="222" y="83" type="curve" smooth="yes"/>
      <point x="192" y="83"/>
      <point x="167" y="91"/>
      <point x="145" y="104" type="curve"/>
      <point x="84" y="55" type="line" smooth="yes"/>
      <point x="73" y="47"/>
      <point x="60" y="40"/>
      <point x="47" y="40" type="curve" smooth="yes"/>
      <point x="25.842" y="40"/>
      <point x="10.1243" y="57.0982"/>
      <point x="10.1243" y="77.5913" type="curve" smooth="yes"/>
      <point x="10.1243" y="80.344"/>
      <point x="10.4079" y="83.158"/>
      <point x="11" y="86" type="curve" smooth="yes"/>
      <point x="13" y="98"/>
      <point x="21" y="111"/>
      <point x="31" y="119" type="curve" smooth="yes"/>
      <point x="94" y="171" type="line"/>
      <point x="89.4286" y="184.714"/>
      <point x="87.1429" y="199.408"/>
      <point x="87.1429" y="214.895" type="curve" smooth="yes"/>
      <point x="87.1429" y="226.51"/>
      <point x="88.4286" y="238.571"/>
      <point x="91" y="251" type="curve" smooth="yes"/>
      <point x="97" y="281"/>
      <point x="110" y="309"/>
      <point x="130" y="333" type="curve"/>
      <point x="88" y="386" type="line" smooth="yes"/>
      <point x="83.1" y="391.6"/>
      <point x="80.65" y="398.67"/>
      <point x="80.65" y="407.21" type="curve" smooth="yes"/>
      <point x="80.65" y="410.87"/>
      <point x="81.1" y="414.8"/>
      <point x="82" y="419" type="curve" smooth="yes"/>
      <point x="87" y="444"/>
      <point x="112" y="464"/>
      <point x="137" y="464" type="curve" smooth="yes"/>
      <point x="150" y="464"/>
      <point x="159" y="461"/>
      <point x="167" y="451" type="curve" smooth="yes"/>
      <point x="209" y="398" type="line"/>
      <point x="237" y="412"/>
      <point x="264" y="418"/>
      <point x="293" y="418" type="curve" smooth="yes"/>
      <point x="322" y="418"/>
      <point x="348" y="412"/>
      <point x="370" y="398" type="curve"/>
      <point x="434" y="451" type="line" smooth="yes"/>
      <point x="446" y="461"/>
      <point x="457" y="464"/>
      <point x="469" y="464" type="curve" smooth="yes"/>
      <point x="492.2" y="464"/>
      <point x="506.641" y="446.484"/>
      <point x="506.641" y="426.371" type="curve" smooth="yes"/>
      <point x="506.641" y="423.943"/>
      <point x="506.431" y="421.477"/>
      <point x="506" y="419" type="curve" smooth="yes"/>
      <point x="503" y="406"/>
      <point x="496" y="395"/>
      <point x="486" y="386" type="curve" smooth="yes"/>
      <point x="421" y="332" type="line"/>
      <point x="426.542" y="317.221"/>
      <point x="429.43" y="300.926"/>
      <point x="429.43" y="283.815" type="curve" smooth="yes"/>
      <point x="429.43" y="273.138"/>
      <point x="428.305" y="262.143"/>
      <point x="426" y="251" type="curve" smooth="yes"/>
      <point x="420" y="222"/>
      <point x="407" y="194"/>
    </contour>
    <contour>
      <point x="183" y="251" type="curve" smooth="yes"/>
      <point x="181.797" y="245.386"/>
      <point x="181.219" y="239.896"/>
      <point x="181.219" y="234.599" type="curve" smooth="yes"/>
      <point x="181.219" y="200.268"/>
      <point x="205.481" y="174"/>
      <point x="241" y="174" type="curve" smooth="yes"/>
      <point x="283" y="174"/>
      <point x="325" y="209"/>
      <point x="334" y="251" type="curve" smooth="yes"/>
      <point x="335.169" y="256.457"/>
      <point x="335.731" y="261.762"/>
      <point x="335.731" y="266.862" type="curve" smooth="yes"/>
      <point x="335.731" y="301.018"/>
      <point x="310.543" y="326"/>
      <point x="274" y="326" type="curve" smooth="yes"/>
      <point x="233" y="326"/>
      <point x="192" y="293"/>
    </contour>
  </outline>
</glyph>
<glyph name="copyright" format="1">
  <advance width="570"/>
  <unicode hex="00A9"/>
  <outline>
    <contour>
      <point x="416" y="369" type="curve" smooth="yes"/>
      <point x="425" y="378"/>
      <point x="428" y="387"/>
      <point x="429" y="395" type="curve"/>
      <point x="435" y="420"/>
      <point x="419" y="436"/>
      <point x="395" y="436" type="curve" smooth="yes"/>
      <point x="379" y="436"/>
      <point x="368" y="428"/>
      <point x="358" y="419" type="curve" smooth="yes"/>
      <point x="342" y="406"/>
      <point x="327" y="399"/>
      <point x="310" y="399" type="curve" smooth="yes"/>
      <point x="278" y="399"/>
      <point x="266" y="425"/>
      <point x="271" y="450" type="curve" smooth="yes"/>
      <point x="275" y="470"/>
      <point x="291" y="503"/>
      <point x="336" y="503" type="curve" smooth="yes"/>
      <point x="349" y="503"/>
      <point x="357" y="498"/>
      <point x="364" y="493" type="curve" smooth="yes"/>
      <point x="372" y="487"/>
      <point x="379" y="481"/>
      <point x="391" y="481" type="curve" smooth="yes"/>
      <point x="415" y="481"/>
      <point x="436" y="493"/>
      <point x="442" y="518" type="curve" smooth="yes"/>
      <point x="445" y="533"/>
      <point x="441" y="543"/>
      <point x="432" y="552" type="curve" smooth="yes"/>
      <point x="416" y="568"/>
      <point x="388" y="583"/>
      <point x="353" y="583" type="curve" smooth="yes"/>
      <point x="270" y="583"/>
      <point x="203" y="529"/>
      <point x="185" y="445" type="curve" smooth="yes"/>
      <point x="170" y="375"/>
      <point x="217" y="317"/>
      <point x="288" y="317" type="curve" smooth="yes"/>
      <point x="348" y="317"/>
      <point x="386" y="336"/>
    </contour>
    <contour>
      <point x="259" y="177" type="curve" smooth="yes"/>
      <point x="405" y="177"/>
      <point x="550" y="298"/>
      <point x="582" y="447" type="curve" smooth="yes"/>
      <point x="613" y="596"/>
      <point x="520" y="718"/>
      <point x="374" y="718" type="curve" smooth="yes"/>
      <point x="229" y="718"/>
      <point x="83" y="596"/>
      <point x="52" y="447" type="curve" smooth="yes"/>
      <point x="20" y="298"/>
      <point x="114" y="177"/>
    </contour>
    <contour>
      <point x="359" y="648" type="curve" smooth="yes"/>
      <point x="467" y="648"/>
      <point x="535" y="558"/>
      <point x="512" y="447" type="curve" smooth="yes"/>
      <point x="488" y="336"/>
      <point x="382" y="247"/>
      <point x="274" y="247" type="curve" smooth="yes"/>
      <point x="167" y="247"/>
      <point x="98" y="336"/>
      <point x="122" y="447" type="curve" smooth="yes"/>
      <point x="145" y="558"/>
      <point x="252" y="648"/>
    </contour>
  </outline>
</glyph>
<glyph name="guillemotleft" format="1">
  <advance width="617"/>
  <unicode hex="00AB"/>
  <outline>
    <contour>
      <point x="169" y="81" type="curve" smooth="yes"/>
      <point x="49" y="213" type="line" smooth="yes"/>
      <point x="42.5549" y="220.161"/>
      <point x="39.6997" y="229.374"/>
      <point x="39.6997" y="238.801" type="curve" smooth="yes"/>
      <point x="39.6997" y="242.538"/>
      <point x="40.1484" y="246.31"/>
      <point x="41" y="250" type="curve" smooth="yes"/>
      <point x="43" y="262"/>
      <point x="52" y="277"/>
      <point x="65" y="286" type="curve" smooth="yes"/>
      <point x="258" y="427" type="line" smooth="yes"/>
      <point x="271" y="436"/>
      <point x="281" y="439"/>
      <point x="292" y="439" type="curve" smooth="yes"/>
      <point x="313.387" y="439"/>
      <point x="330.804" y="422.323"/>
      <point x="330.804" y="399.585" type="curve" smooth="yes"/>
      <point x="330.804" y="396.807"/>
      <point x="330.544" y="393.939"/>
      <point x="330" y="391" type="curve"/>
      <point x="326" y="376"/>
      <point x="322" y="366"/>
      <point x="306" y="354" type="curve" smooth="yes"/>
      <point x="161" y="249" type="line"/>
      <point x="249" y="153" type="line" smooth="yes"/>
      <point x="255.445" y="145.839"/>
      <point x="258.3" y="136.626"/>
      <point x="258.3" y="127.199" type="curve" smooth="yes"/>
      <point x="258.3" y="123.462"/>
      <point x="257.852" y="119.69"/>
      <point x="257" y="116" type="curve" smooth="yes"/>
      <point x="252" y="90"/>
      <point x="224" y="69"/>
      <point x="199" y="69" type="curve" smooth="yes"/>
      <point x="187" y="69"/>
      <point x="178" y="72"/>
    </contour>
    <contour>
      <point x="399" y="81" type="curve" smooth="yes"/>
      <point x="279" y="213" type="line" smooth="yes"/>
      <point x="272.555" y="220.161"/>
      <point x="269.7" y="229.374"/>
      <point x="269.7" y="238.801" type="curve" smooth="yes"/>
      <point x="269.7" y="242.538"/>
      <point x="270.148" y="246.31"/>
      <point x="271" y="250" type="curve" smooth="yes"/>
      <point x="273" y="262"/>
      <point x="282" y="277"/>
      <point x="295" y="286" type="curve" smooth="yes"/>
      <point x="488" y="427" type="line" smooth="yes"/>
      <point x="501" y="436"/>
      <point x="511" y="439"/>
      <point x="522" y="439" type="curve" smooth="yes"/>
      <point x="543.387" y="439"/>
      <point x="560.804" y="422.323"/>
      <point x="560.804" y="399.585" type="curve" smooth="yes"/>
      <point x="560.804" y="396.807"/>
      <point x="560.544" y="393.939"/>
      <point x="560" y="391" type="curve"/>
      <point x="556" y="376"/>
      <point x="552" y="366"/>
      <point x="536" y="354" type="curve" smooth="yes"/>
      <point x="391" y="249" type="line"/>
      <point x="479" y="153" type="line" smooth="yes"/>
      <point x="485.445" y="145.839"/>
      <point x="488.3" y="136.626"/>
      <point x="488.3" y="127.199" type="curve" smooth="yes"/>
      <point x="488.3" y="123.462"/>
      <point x="487.852" y="119.69"/>
      <point x="487" y="116" type="curve" smooth="yes"/>
      <point x="482" y="90"/>
      <point x="454" y="69"/>
      <point x="429" y="69" type="curve" smooth="yes"/>
      <point x="417" y="69"/>
      <point x="408" y="72"/>
    </contour>
  </outline>
</glyph>
<glyph name="logicalnot" format="1">
  <advance width="506"/>
  <unicode hex="00AC"/>
  <outline>
    <contour>
      <point x="350" y="114" type="curve" smooth="yes"/>
      <point x="328.723" y="114"/>
      <point x="312.162" y="129.719"/>
      <point x="312.162" y="150.706" type="curve" smooth="yes"/>
      <point x="312.162" y="153.392"/>
      <point x="312.433" y="156.164"/>
      <point x="313" y="159" type="curve" smooth="yes"/>
      <point x="334" y="253" type="line"/>
      <point x="81" y="253" type="line" smooth="yes"/>
      <point x="58.3469" y="253"/>
      <point x="44.0441" y="268.182"/>
      <point x="44.0441" y="288.626" type="curve" smooth="yes"/>
      <point x="44.0441" y="291.646"/>
      <point x="44.3564" y="294.782"/>
      <point x="45" y="298" type="curve" smooth="yes"/>
      <point x="50" y="322"/>
      <point x="75" y="344"/>
      <point x="101" y="344" type="curve" smooth="yes"/>
      <point x="399" y="344" type="line" smooth="yes"/>
      <point x="419.195" y="344"/>
      <point x="437.077" y="330.123"/>
      <point x="437.077" y="307.784" type="curve" smooth="yes"/>
      <point x="437.077" y="304.681"/>
      <point x="436.732" y="301.415"/>
      <point x="436" y="298" type="curve" smooth="yes"/>
      <point x="405" y="159" type="line" smooth="yes"/>
      <point x="400" y="134"/>
      <point x="376" y="114"/>
    </contour>
  </outline>
</glyph>
<glyph name="registered" format="1">
  <advance width="570"/>
  <unicode hex="00AE"/>
  <outline>
    <contour>
      <point x="451" y="495" type="curve" smooth="yes"/>
      <point x="443" y="458"/>
      <point x="409" y="435"/>
      <point x="373" y="421" type="curve"/>
      <point x="387" y="409" type="line" smooth="yes"/>
      <point x="396.467" y="401.111"/>
      <point x="400.955" y="391.977"/>
      <point x="400.955" y="381.108" type="curve" smooth="yes"/>
      <point x="400.955" y="378.199"/>
      <point x="400.633" y="375.167"/>
      <point x="400" y="372" type="curve" smooth="yes"/>
      <point x="394" y="348"/>
      <point x="371" y="329"/>
      <point x="347" y="329" type="curve" smooth="yes"/>
      <point x="337" y="329"/>
      <point x="330" y="331"/>
      <point x="324" y="336" type="curve" smooth="yes"/>
      <point x="269" y="381" type="line"/>
      <point x="265" y="368" type="line"/>
      <point x="256" y="345"/>
      <point x="237" y="330"/>
      <point x="213" y="330" type="curve" smooth="yes"/>
      <point x="191.984" y="330"/>
      <point x="176.195" y="345.681"/>
      <point x="176.195" y="365.951" type="curve" smooth="yes"/>
      <point x="176.195" y="370.759"/>
      <point x="177.083" y="375.824"/>
      <point x="179" y="381" type="curve" smooth="yes"/>
      <point x="240" y="541" type="line" smooth="yes"/>
      <point x="252" y="572"/>
      <point x="254" y="581"/>
      <point x="341" y="581" type="curve" smooth="yes"/>
      <point x="413.909" y="581"/>
      <point x="452.824" y="554.911"/>
      <point x="452.824" y="511.872" type="curve" smooth="yes"/>
      <point x="452.824" y="506.505"/>
      <point x="452.219" y="500.876"/>
    </contour>
    <contour>
      <point x="259" y="177" type="curve" smooth="yes"/>
      <point x="133.167" y="177"/>
      <point x="45.7418" y="268.126"/>
      <point x="45.7418" y="389.596" type="curve" smooth="yes"/>
      <point x="45.7418" y="408.098"/>
      <point x="47.7701" y="427.305"/>
      <point x="52" y="447" type="curve" smooth="yes"/>
      <point x="83" y="596"/>
      <point x="229" y="718"/>
      <point x="374" y="718" type="curve" smooth="yes"/>
      <point x="501.046" y="718"/>
      <point x="587.959" y="625.621"/>
      <point x="587.959" y="503.459" type="curve" smooth="yes"/>
      <point x="587.959" y="485.233"/>
      <point x="586.025" y="466.344"/>
      <point x="582" y="447" type="curve" smooth="yes"/>
      <point x="550" y="298"/>
      <point x="405" y="177"/>
    </contour>
    <contour>
      <point x="359" y="648" type="curve" smooth="yes"/>
      <point x="252" y="648"/>
      <point x="145" y="558"/>
      <point x="122" y="447" type="curve" smooth="yes"/>
      <point x="118.775" y="432.085"/>
      <point x="117.229" y="417.567"/>
      <point x="117.229" y="403.609" type="curve" smooth="yes"/>
      <point x="117.229" y="313.689"/>
      <point x="181.378" y="247"/>
      <point x="274" y="247" type="curve" smooth="yes"/>
      <point x="382" y="247"/>
      <point x="488" y="336"/>
      <point x="512" y="447" type="curve" smooth="yes"/>
      <point x="515.018" y="461.563"/>
      <point x="516.469" y="475.764"/>
      <point x="516.469" y="489.448" type="curve" smooth="yes"/>
      <point x="516.469" y="580.066"/>
      <point x="452.831" y="648"/>
    </contour>
  </outline>
</glyph>
<glyph name="threesuperior" format="1">
  <advance width="262"/>
  <unicode hex="00B3"/>
  <outline>
    <contour>
      <point x="46" y="468" type="curve" smooth="yes"/>
      <point x="57" y="441"/>
      <point x="87" y="400"/>
      <point x="154" y="400" type="curve" smooth="yes"/>
      <point x="223" y="400"/>
      <point x="297" y="452"/>
      <point x="313" y="531" type="curve" smooth="yes"/>
      <point x="321" y="569"/>
      <point x="308" y="600"/>
      <point x="284" y="613" type="curve"/>
      <point x="308" y="627"/>
      <point x="331" y="658"/>
      <point x="339" y="695" type="curve" smooth="yes"/>
      <point x="353" y="761"/>
      <point x="299" y="799"/>
      <point x="237" y="799" type="curve" smooth="yes"/>
      <point x="175" y="799"/>
      <point x="116" y="762"/>
      <point x="110" y="731" type="curve" smooth="yes"/>
      <point x="104" y="703"/>
      <point x="120" y="688"/>
      <point x="141" y="688" type="curve" smooth="yes"/>
      <point x="153" y="688"/>
      <point x="166" y="692"/>
      <point x="176" y="699" type="curve" smooth="yes"/>
      <point x="185" y="705"/>
      <point x="199" y="711"/>
      <point x="219" y="711" type="curve" smooth="yes"/>
      <point x="242" y="711"/>
      <point x="254" y="703"/>
      <point x="250" y="685" type="curve" smooth="yes"/>
      <point x="246" y="667"/>
      <point x="227" y="654"/>
      <point x="195" y="651" type="curve" smooth="yes"/>
      <point x="169" y="649"/>
      <point x="151" y="638"/>
      <point x="145" y="609" type="curve" smooth="yes"/>
      <point x="139" y="582"/>
      <point x="152" y="569"/>
      <point x="177" y="567" type="curve" smooth="yes"/>
      <point x="217" y="563"/>
      <point x="228" y="549"/>
      <point x="223" y="526" type="curve" smooth="yes"/>
      <point x="217" y="494"/>
      <point x="188" y="487"/>
      <point x="172" y="487" type="curve" smooth="yes"/>
      <point x="154" y="487"/>
      <point x="137" y="496"/>
      <point x="131" y="511" type="curve" smooth="yes"/>
      <point x="126" y="524"/>
      <point x="117" y="536"/>
      <point x="96" y="536" type="curve" smooth="yes"/>
      <point x="71" y="536"/>
      <point x="50" y="516"/>
      <point x="45" y="491" type="curve" smooth="yes"/>
      <point x="44" y="486"/>
      <point x="43" y="476"/>
    </contour>
  </outline>
</glyph>
<glyph name="acute" format="1">
  <advance width="526"/>
  <unicode hex="00B4"/>
  <outline>
    <contour>
      <point x="235" y="592" type="line" smooth="yes"/>
      <point x="222" y="583"/>
      <point x="218" y="570"/>
      <point x="215" y="559" type="curve"/>
      <point x="210" y="532"/>
      <point x="227" y="511"/>
      <point x="251" y="511" type="curve" smooth="yes"/>
      <point x="262" y="511"/>
      <point x="275" y="517"/>
      <point x="287" y="524" type="curve" smooth="yes"/>
      <point x="429" y="609" type="line" smooth="yes"/>
      <point x="445" y="619"/>
      <point x="453" y="634"/>
      <point x="456" y="649" type="curve" smooth="yes"/>
      <point x="463" y="680"/>
      <point x="445" y="704"/>
      <point x="415" y="704" type="curve" smooth="yes"/>
      <point x="398" y="704"/>
      <point x="382" y="693"/>
      <point x="370" y="685" type="curve" smooth="yes"/>
    </contour>
  </outline>
</glyph>
<glyph name="mu" format="1">
  <advance width="526"/>
  <unicode hex="00B5"/>
  <outline>
    <contour>
      <point x="27" y="22" type="curve" smooth="yes"/>
      <point x="18" y="-53"/>
      <point x="14" y="-95"/>
      <point x="13" y="-125" type="curve" smooth="yes"/>
      <point x="12" y="-148"/>
      <point x="30" y="-164"/>
      <point x="52" y="-164" type="curve" smooth="yes"/>
      <point x="88" y="-164"/>
      <point x="109" y="-135"/>
      <point x="109" y="-109" type="curve" smooth="yes"/>
      <point x="110" y="-76"/>
      <point x="114" y="-33"/>
      <point x="118" y="4" type="curve"/>
      <point x="118" y="4"/>
      <point x="147" y="-3"/>
      <point x="168" y="-3" type="curve" smooth="yes"/>
      <point x="219" y="-3"/>
      <point x="270" y="16"/>
      <point x="309" y="40" type="curve"/>
      <point x="309" y="17"/>
      <point x="325" y="0"/>
      <point x="352" y="0" type="curve" smooth="yes"/>
      <point x="378" y="0"/>
      <point x="405" y="23"/>
      <point x="411" y="48" type="curve"/>
      <point x="497" y="454" type="line" smooth="yes"/>
      <point x="503" y="481"/>
      <point x="485" y="500"/>
      <point x="460" y="500" type="curve" smooth="yes"/>
      <point x="436" y="500"/>
      <point x="410" y="481"/>
      <point x="404" y="454" type="curve" smooth="yes"/>
      <point x="338" y="169" type="line"/>
      <point x="336" y="156"/>
      <point x="332" y="149"/>
      <point x="327" y="144" type="curve" smooth="yes"/>
      <point x="306" y="123"/>
      <point x="241" y="87"/>
      <point x="187" y="87" type="curve" smooth="yes"/>
      <point x="133" y="87"/>
      <point x="131" y="136"/>
      <point x="164" y="288" type="curve" smooth="yes"/>
      <point x="177" y="351"/>
      <point x="195" y="401"/>
      <point x="204" y="431" type="curve" smooth="yes"/>
      <point x="207" y="439"/>
      <point x="209" y="445"/>
      <point x="211" y="453" type="curve" smooth="yes"/>
      <point x="217" y="481"/>
      <point x="206" y="500"/>
      <point x="174" y="500" type="curve" smooth="yes"/>
      <point x="149" y="500"/>
      <point x="130" y="492"/>
      <point x="115" y="449" type="curve" smooth="yes"/>
      <point x="102" y="414"/>
      <point x="75" y="325"/>
      <point x="62" y="252" type="curve" smooth="yes"/>
      <point x="44" y="147"/>
      <point x="35" y="89"/>
    </contour>
  </outline>
</glyph>
<glyph name="paragraph" format="1">
  <advance width="585"/>
  <unicode hex="00B6"/>
  <outline>
    <contour>
      <point x="584" y="673" type="curve"/>
      <point x="587" y="699"/>
      <point x="576" y="719"/>
      <point x="549" y="719" type="curve" smooth="yes"/>
      <point x="522" y="719"/>
      <point x="502" y="694"/>
      <point x="497" y="669" type="curve" smooth="yes"/>
      <point x="492" y="645"/>
      <point x="488" y="622"/>
      <point x="483" y="599" type="curve" smooth="yes"/>
      <point x="432" y="362"/>
      <point x="360" y="162"/>
      <point x="291" y="-16" type="curve"/>
      <point x="280" y="-47"/>
      <point x="276" y="-72"/>
      <point x="315" y="-72" type="curve" smooth="yes"/>
      <point x="343" y="-72"/>
      <point x="361" y="-56"/>
      <point x="370" y="-35" type="curve" smooth="yes"/>
      <point x="455" y="163"/>
      <point x="521" y="375"/>
      <point x="569" y="599" type="curve" smooth="yes"/>
      <point x="574" y="622"/>
      <point x="579" y="649"/>
    </contour>
    <contour>
      <point x="475" y="715" type="curve"/>
      <point x="483" y="749"/>
      <point x="463" y="765"/>
      <point x="433" y="759" type="curve" smooth="yes"/>
      <point x="274" y="730"/>
      <point x="118" y="646"/>
      <point x="87" y="501" type="curve" smooth="yes"/>
      <point x="60" y="372"/>
      <point x="148" y="319"/>
      <point x="257" y="317" type="curve"/>
      <point x="230" y="230"/>
      <point x="165" y="48"/>
      <point x="139" y="-13" type="curve" smooth="yes"/>
      <point x="125" y="-46"/>
      <point x="126" y="-73"/>
      <point x="164" y="-73" type="curve" smooth="yes"/>
      <point x="190" y="-73"/>
      <point x="208" y="-57"/>
      <point x="218" y="-35" type="curve"/>
      <point x="294" y="149"/>
      <point x="367" y="368"/>
      <point x="414" y="589" type="curve" smooth="yes"/>
      <point x="430" y="665" type="line"/>
      <point x="450" y="670"/>
      <point x="469" y="683"/>
    </contour>
  </outline>
</glyph>
<glyph name="periodcentered" format="1">
  <advance width="198"/>
  <unicode hex="00B7"/>
  <outline>
    <contour>
      <point x="76" y="191" type="curve" smooth="yes"/>
      <point x="107" y="191"/>
      <point x="141" y="220"/>
      <point x="149" y="256" type="curve" smooth="yes"/>
      <point x="156" y="287"/>
      <point x="139" y="312"/>
      <point x="110" y="312" type="curve" smooth="yes"/>
      <point x="79" y="312"/>
      <point x="44" y="281"/>
      <point x="37" y="248" type="curve" smooth="yes"/>
      <point x="30" y="216"/>
      <point x="46" y="191"/>
    </contour>
  </outline>
</glyph>
<glyph name="cedilla" format="1">
  <advance width="526"/>
  <unicode hex="00B8"/>
  <outline>
    <contour>
      <point x="155" y="-126" type="curve" smooth="yes"/>
      <point x="146" y="-118"/>
      <point x="141" y="-109"/>
      <point x="124" y="-109" type="curve" smooth="yes"/>
      <point x="101" y="-109"/>
      <point x="84" y="-131"/>
      <point x="80" y="-148" type="curve" smooth="yes"/>
      <point x="73" y="-180"/>
      <point x="111" y="-196"/>
      <point x="149" y="-196" type="curve" smooth="yes"/>
      <point x="207" y="-196"/>
      <point x="260" y="-168"/>
      <point x="272" y="-110" type="curve" smooth="yes"/>
      <point x="283" y="-61"/>
      <point x="257" y="-37"/>
      <point x="199" y="-27" type="curve"/>
      <point x="212" y="37"/>
      <point x="202" y="41"/>
      <point x="189" y="41" type="curve" smooth="yes"/>
      <point x="166" y="41"/>
      <point x="151" y="13"/>
      <point x="128" y="-35" type="curve" smooth="yes"/>
      <point x="119" y="-53"/>
      <point x="118" y="-69"/>
      <point x="136" y="-73" type="curve" smooth="yes"/>
      <point x="183" y="-83" type="line" smooth="yes"/>
      <point x="198" y="-86"/>
      <point x="205" y="-94"/>
      <point x="202" y="-106" type="curve" smooth="yes"/>
      <point x="199" y="-118"/>
      <point x="189" y="-132"/>
      <point x="173" y="-132" type="curve" smooth="yes"/>
      <point x="164" y="-132"/>
      <point x="159" y="-130"/>
    </contour>
  </outline>
</glyph>
<glyph name="ordmasculine" format="1">
  <advance width="303"/>
  <unicode hex="00BA"/>
  <outline>
    <contour>
      <point x="148" y="315" type="curve" smooth="yes"/>
      <point x="254" y="315"/>
      <point x="328" y="422"/>
      <point x="343" y="491" type="curve" smooth="yes"/>
      <point x="363" y="585"/>
      <point x="310" y="648"/>
      <point x="236" y="648" type="curve" smooth="yes"/>
      <point x="138" y="648"/>
      <point x="59" y="553"/>
      <point x="41" y="469" type="curve" smooth="yes"/>
      <point x="23" y="382"/>
      <point x="73" y="315"/>
    </contour>
    <contour>
      <point x="215" y="561" type="curve" smooth="yes"/>
      <point x="244" y="561"/>
      <point x="258" y="526"/>
      <point x="251" y="491" type="curve" smooth="yes"/>
      <point x="240" y="439"/>
      <point x="198" y="402"/>
      <point x="167" y="402" type="curve" smooth="yes"/>
      <point x="138" y="402"/>
      <point x="125" y="433"/>
      <point x="133" y="471" type="curve" smooth="yes"/>
      <point x="143" y="521"/>
      <point x="183" y="561"/>
    </contour>
  </outline>
</glyph>
<glyph name="Agrave" format="1">
  <advance width="650"/>
  <unicode hex="00C0"/>
  <outline>
    <contour>
      <point x="459" y="655" type="curve" smooth="yes"/>
      <point x="537" y="67" type="line"/>
      <point x="537" y="61"/>
      <point x="537" y="53"/>
      <point x="536" y="48" type="curve" smooth="yes"/>
      <point x="530" y="22"/>
      <point x="505" y="-1"/>
      <point x="475" y="-1" type="curve" smooth="yes"/>
      <point x="451" y="-1"/>
      <point x="439" y="8"/>
      <point x="436" y="33" type="curve" smooth="yes"/>
      <point x="408" y="241" type="line"/>
      <point x="194" y="196" type="line"/>
      <point x="94" y="32" type="line" smooth="yes"/>
      <point x="84" y="15"/>
      <point x="66" y="0"/>
      <point x="42" y="0" type="curve" smooth="yes"/>
      <point x="15.8105" y="7.10543e-15"/>
      <point x="1.0525" y="19.0525"/>
      <point x="1.0525" y="39.8597" type="curve" smooth="yes"/>
      <point x="1.0525" y="42.8871"/>
      <point x="1.36492" y="45.9516"/>
      <point x="2" y="49" type="curve" smooth="yes"/>
      <point x="3" y="56"/>
      <point x="6" y="62"/>
      <point x="9" y="67" type="curve" smooth="yes"/>
      <point x="76" y="177" type="line"/>
      <point x="60.0948" y="182.86"/>
      <point x="49.7957" y="195.727"/>
      <point x="49.7957" y="213.843" type="curve" smooth="yes"/>
      <point x="49.7957" y="217.367"/>
      <point x="50.1856" y="221.091"/>
      <point x="51" y="225" type="curve" smooth="yes"/>
      <point x="56" y="249"/>
      <point x="76" y="268"/>
      <point x="100" y="273" type="curve" smooth="yes"/>
      <point x="138" y="281" type="line"/>
      <point x="366" y="657" type="line" smooth="yes"/>
      <point x="378" y="677"/>
      <point x="400" y="688"/>
      <point x="420" y="688" type="curve" smooth="yes"/>
      <point x="440" y="688"/>
      <point x="456" y="679"/>
    </contour>
    <contour>
      <point x="260" y="306" type="line"/>
      <point x="394" y="334" type="line"/>
      <point x="375" y="495" type="line"/>
    </contour>
    <contour>
      <point x="441" y="713" type="curve" smooth="yes"/>
      <point x="358" y="824" type="line" smooth="yes"/>
      <point x="352.144" y="831.321"/>
      <point x="348.431" y="839.713"/>
      <point x="348.431" y="849.962" type="curve" smooth="yes"/>
      <point x="348.431" y="853.713"/>
      <point x="348.928" y="857.713"/>
      <point x="350" y="862" type="curve" smooth="yes"/>
      <point x="356" y="890"/>
      <point x="387" y="916"/>
      <point x="415" y="916" type="curve" smooth="yes"/>
      <point x="433" y="916"/>
      <point x="447" y="906"/>
      <point x="455" y="894" type="curve"/>
      <point x="524" y="775" type="line" smooth="yes"/>
      <point x="528.963" y="766.492"/>
      <point x="530.91" y="759.995"/>
      <point x="530.91" y="753.37" type="curve" smooth="yes"/>
      <point x="530.91" y="750.651"/>
      <point x="530.582" y="747.91"/>
      <point x="530" y="745" type="curve" smooth="yes"/>
      <point x="524" y="718"/>
      <point x="496" y="698"/>
      <point x="472" y="698" type="curve" smooth="yes"/>
      <point x="457" y="698"/>
      <point x="447" y="704"/>
    </contour>
  </outline>
</glyph>
<glyph name="Aacute" format="1">
  <advance width="650"/>
  <unicode hex="00C1"/>
  <outline>
    <contour>
      <point x="459" y="655" type="curve" smooth="yes"/>
      <point x="537" y="67" type="line"/>
      <point x="537" y="61"/>
      <point x="537" y="53"/>
      <point x="536" y="48" type="curve" smooth="yes"/>
      <point x="530" y="22"/>
      <point x="505" y="-1"/>
      <point x="475" y="-1" type="curve" smooth="yes"/>
      <point x="451" y="-1"/>
      <point x="439" y="8"/>
      <point x="436" y="33" type="curve" smooth="yes"/>
      <point x="408" y="241" type="line"/>
      <point x="194" y="196" type="line"/>
      <point x="94" y="32" type="line" smooth="yes"/>
      <point x="84" y="15"/>
      <point x="66" y="0"/>
      <point x="42" y="0" type="curve" smooth="yes"/>
      <point x="15.8105" y="7.10543e-15"/>
      <point x="1.0525" y="19.0525"/>
      <point x="1.0525" y="39.8597" type="curve" smooth="yes"/>
      <point x="1.0525" y="42.8871"/>
      <point x="1.36492" y="45.9516"/>
      <point x="2" y="49" type="curve" smooth="yes"/>
      <point x="3" y="56"/>
      <point x="6" y="62"/>
      <point x="9" y="67" type="curve" smooth="yes"/>
      <point x="76" y="177" type="line"/>
      <point x="60.0948" y="182.86"/>
      <point x="49.7957" y="195.727"/>
      <point x="49.7957" y="213.843" type="curve" smooth="yes"/>
      <point x="49.7957" y="217.367"/>
      <point x="50.1856" y="221.091"/>
      <point x="51" y="225" type="curve" smooth="yes"/>
      <point x="56" y="249"/>
      <point x="76" y="268"/>
      <point x="100" y="273" type="curve" smooth="yes"/>
      <point x="138" y="281" type="line"/>
      <point x="366" y="657" type="line" smooth="yes"/>
      <point x="378" y="677"/>
      <point x="400" y="688"/>
      <point x="420" y="688" type="curve" smooth="yes"/>
      <point x="440" y="688"/>
      <point x="456" y="679"/>
    </contour>
    <contour>
      <point x="260" y="306" type="line"/>
      <point x="394" y="334" type="line"/>
      <point x="375" y="495" type="line"/>
    </contour>
    <contour>
      <point x="335" y="790" type="curve" smooth="yes"/>
      <point x="470" y="883" type="line" smooth="yes"/>
      <point x="482" y="891"/>
      <point x="498" y="902"/>
      <point x="515" y="902" type="curve" smooth="yes"/>
      <point x="541.125" y="902"/>
      <point x="558.15" y="883.8"/>
      <point x="558.15" y="858.626" type="curve" smooth="yes"/>
      <point x="558.15" y="854.892"/>
      <point x="557.775" y="851.004"/>
      <point x="557" y="847" type="curve"/>
      <point x="553" y="832"/>
      <point x="545" y="817"/>
      <point x="529" y="807" type="curve" smooth="yes"/>
      <point x="387" y="722" type="line" smooth="yes"/>
      <point x="375" y="715"/>
      <point x="362" y="709"/>
      <point x="351" y="709" type="curve" smooth="yes"/>
      <point x="329.842" y="709"/>
      <point x="314.124" y="725.321"/>
      <point x="314.124" y="747.686" type="curve" smooth="yes"/>
      <point x="314.124" y="750.69"/>
      <point x="314.408" y="753.803"/>
      <point x="315" y="757" type="curve"/>
      <point x="318" y="768"/>
      <point x="323" y="781"/>
    </contour>
  </outline>
</glyph>
<glyph name="Acircumflex" format="1">
  <advance width="650"/>
  <unicode hex="00C2"/>
  <outline>
    <contour>
      <point x="459" y="655" type="line" smooth="yes"/>
      <point x="456" y="679"/>
      <point x="440" y="688"/>
      <point x="420" y="688" type="curve" smooth="yes"/>
      <point x="400" y="688"/>
      <point x="378" y="677"/>
      <point x="366" y="657" type="curve" smooth="yes"/>
      <point x="138" y="281" type="line"/>
      <point x="100" y="273" type="line" smooth="yes"/>
      <point x="76" y="268"/>
      <point x="56" y="249"/>
      <point x="51" y="225" type="curve" smooth="yes"/>
      <point x="46" y="201"/>
      <point x="57" y="184"/>
      <point x="76" y="177" type="curve"/>
      <point x="9" y="67" type="line" smooth="yes"/>
      <point x="6" y="62"/>
      <point x="3" y="56"/>
      <point x="2" y="49" type="curve" smooth="yes"/>
      <point x="-3" y="25"/>
      <point x="12" y="0"/>
      <point x="42" y="0" type="curve" smooth="yes"/>
      <point x="66" y="0"/>
      <point x="84" y="15"/>
      <point x="94" y="32" type="curve" smooth="yes"/>
      <point x="194" y="196" type="line"/>
      <point x="408" y="241" type="line"/>
      <point x="436" y="33" type="line" smooth="yes"/>
      <point x="439" y="8"/>
      <point x="451" y="-1"/>
      <point x="475" y="-1" type="curve" smooth="yes"/>
      <point x="505" y="-1"/>
      <point x="530" y="22"/>
      <point x="536" y="48" type="curve" smooth="yes"/>
      <point x="537" y="53"/>
      <point x="537" y="61"/>
      <point x="537" y="67" type="curve"/>
    </contour>
    <contour>
      <point x="260" y="306" type="line"/>
      <point x="375" y="495" type="line"/>
      <point x="394" y="334" type="line"/>
    </contour>
    <contour>
      <point x="298" y="786" type="line" smooth="yes"/>
      <point x="283" y="776"/>
      <point x="275" y="763"/>
      <point x="272" y="750" type="curve" smooth="yes"/>
      <point x="266" y="723"/>
      <point x="284" y="703"/>
      <point x="309" y="703" type="curve" smooth="yes"/>
      <point x="319" y="703"/>
      <point x="327" y="704"/>
      <point x="340" y="712" type="curve" smooth="yes"/>
      <point x="444" y="781" type="line"/>
      <point x="502" y="715" type="line" smooth="yes"/>
      <point x="511" y="705"/>
      <point x="521" y="703"/>
      <point x="533" y="703" type="curve" smooth="yes"/>
      <point x="558" y="703"/>
      <point x="584" y="725"/>
      <point x="589" y="750" type="curve" smooth="yes"/>
      <point x="592" y="763"/>
      <point x="590" y="774"/>
      <point x="582" y="784" type="curve" smooth="yes"/>
      <point x="507" y="880" type="line" smooth="yes"/>
      <point x="497" y="892"/>
      <point x="484" y="898"/>
      <point x="472" y="898" type="curve" smooth="yes"/>
      <point x="463" y="898"/>
      <point x="451" y="895"/>
      <point x="438" y="886" type="curve" smooth="yes"/>
    </contour>
  </outline>
</glyph>
<glyph name="Atilde" format="1">
  <advance width="650"/>
  <unicode hex="00C3"/>
  <outline>
    <contour>
      <point x="589" y="871" type="curve" smooth="yes"/>
      <point x="596" y="886"/>
      <point x="609" y="893"/>
      <point x="624" y="893" type="curve" smooth="yes"/>
      <point x="640.815" y="893"/>
      <point x="656.846" y="885.168"/>
      <point x="656.846" y="867.425" type="curve" smooth="yes"/>
      <point x="656.846" y="865.119"/>
      <point x="656.575" y="862.646"/>
      <point x="656" y="860" type="curve" smooth="yes"/>
      <point x="655" y="856"/>
      <point x="654" y="849"/>
      <point x="649" y="838" type="curve"/>
      <point x="632" y="807"/>
      <point x="575" y="705"/>
      <point x="474" y="705" type="curve" smooth="yes"/>
      <point x="442" y="705"/>
      <point x="419" y="722"/>
      <point x="404" y="753" type="curve" smooth="yes"/>
      <point x="392" y="776"/>
      <point x="384" y="788"/>
      <point x="369" y="788" type="curve" smooth="yes"/>
      <point x="334" y="788"/>
      <point x="306" y="736"/>
      <point x="298" y="720" type="curve"/>
      <point x="289" y="705"/>
      <point x="279" y="698"/>
      <point x="264" y="698" type="curve" smooth="yes"/>
      <point x="247.185" y="698"/>
      <point x="231.154" y="705.832"/>
      <point x="231.154" y="723.575" type="curve" smooth="yes"/>
      <point x="231.154" y="725.881"/>
      <point x="231.425" y="728.354"/>
      <point x="232" y="731" type="curve" smooth="yes"/>
      <point x="233" y="735"/>
      <point x="234" y="742"/>
      <point x="240" y="753" type="curve" smooth="yes"/>
      <point x="269" y="810"/>
      <point x="322" y="877"/>
      <point x="400" y="877" type="curve" smooth="yes"/>
      <point x="439" y="877"/>
      <point x="461" y="860"/>
      <point x="477" y="829" type="curve" smooth="yes"/>
      <point x="488" y="807"/>
      <point x="496" y="793"/>
      <point x="511" y="793" type="curve" smooth="yes"/>
      <point x="532" y="793"/>
      <point x="563" y="817"/>
    </contour>
    <contour>
      <point x="459" y="655" type="curve" smooth="yes"/>
      <point x="537" y="67" type="line"/>
      <point x="537" y="61"/>
      <point x="537" y="53"/>
      <point x="536" y="48" type="curve" smooth="yes"/>
      <point x="530" y="22"/>
      <point x="505" y="-1"/>
      <point x="475" y="-1" type="curve" smooth="yes"/>
      <point x="451" y="-1"/>
      <point x="439" y="8"/>
      <point x="436" y="33" type="curve" smooth="yes"/>
      <point x="408" y="241" type="line"/>
      <point x="194" y="196" type="line"/>
      <point x="94" y="32" type="line" smooth="yes"/>
      <point x="84" y="15"/>
      <point x="66" y="0"/>
      <point x="42" y="0" type="curve" smooth="yes"/>
      <point x="15.8105" y="7.10543e-15"/>
      <point x="1.0525" y="19.0525"/>
      <point x="1.0525" y="39.8597" type="curve" smooth="yes"/>
      <point x="1.0525" y="42.8871"/>
      <point x="1.36492" y="45.9516"/>
      <point x="2" y="49" type="curve" smooth="yes"/>
      <point x="3" y="56"/>
      <point x="6" y="62"/>
      <point x="9" y="67" type="curve" smooth="yes"/>
      <point x="76" y="177" type="line"/>
      <point x="60.0948" y="182.86"/>
      <point x="49.7957" y="195.727"/>
      <point x="49.7957" y="213.843" type="curve" smooth="yes"/>
      <point x="49.7957" y="217.367"/>
      <point x="50.1856" y="221.091"/>
      <point x="51" y="225" type="curve" smooth="yes"/>
      <point x="56" y="249"/>
      <point x="76" y="268"/>
      <point x="100" y="273" type="curve" smooth="yes"/>
      <point x="138" y="281" type="line"/>
      <point x="366" y="657" type="line" smooth="yes"/>
      <point x="378" y="677"/>
      <point x="400" y="688"/>
      <point x="420" y="688" type="curve" smooth="yes"/>
      <point x="440" y="688"/>
      <point x="456" y="679"/>
    </contour>
    <contour>
      <point x="260" y="306" type="line"/>
      <point x="394" y="334" type="line"/>
      <point x="375" y="495" type="line"/>
    </contour>
  </outline>
</glyph>
<glyph name="AE" format="1">
  <advance width="1066"/>
  <unicode hex="00C6"/>
  <outline>
    <contour>
      <point x="261" y="331" type="line"/>
      <point x="565" y="660" type="line" smooth="yes"/>
      <point x="572" y="668"/>
      <point x="586" y="681"/>
      <point x="605" y="681" type="curve" smooth="yes"/>
      <point x="1007" y="681" type="line" smooth="yes"/>
      <point x="1031.93" y="681"/>
      <point x="1047.25" y="666.222"/>
      <point x="1047.25" y="643.652" type="curve" smooth="yes"/>
      <point x="1047.25" y="639.966"/>
      <point x="1046.84" y="636.071"/>
      <point x="1046" y="632" type="curve" smooth="yes"/>
      <point x="1041" y="607"/>
      <point x="1016" y="584"/>
      <point x="987" y="584" type="curve" smooth="yes"/>
      <point x="636" y="584" type="line"/>
      <point x="594" y="386" type="line"/>
      <point x="899" y="386" type="line" smooth="yes"/>
      <point x="922.536" y="386"/>
      <point x="936.954" y="367.763"/>
      <point x="936.954" y="346.524" type="curve" smooth="yes"/>
      <point x="936.954" y="343.398"/>
      <point x="936.641" y="340.207"/>
      <point x="936" y="337" type="curve" smooth="yes"/>
      <point x="930" y="309"/>
      <point x="905" y="288"/>
      <point x="878" y="288" type="curve" smooth="yes"/>
      <point x="573" y="289" type="line"/>
      <point x="532" y="97" type="line"/>
      <point x="883" y="97" type="line" smooth="yes"/>
      <point x="907.929" y="97"/>
      <point x="923.251" y="82.2216"/>
      <point x="923.251" y="59.6518" type="curve" smooth="yes"/>
      <point x="923.251" y="55.9655"/>
      <point x="922.842" y="52.0715"/>
      <point x="922" y="48" type="curve" smooth="yes"/>
      <point x="916" y="21"/>
      <point x="892" y="0"/>
      <point x="863" y="0" type="curve" smooth="yes"/>
      <point x="464" y="0" type="line" smooth="yes"/>
      <point x="440.518" y="1.77636e-15"/>
      <point x="423.844" y="15.8837"/>
      <point x="423.844" y="37.784" type="curve" smooth="yes"/>
      <point x="423.844" y="41.0653"/>
      <point x="424.218" y="44.4817"/>
      <point x="425" y="48" type="curve" smooth="yes"/>
      <point x="474" y="279" type="line"/>
      <point x="297" y="243" type="line"/>
      <point x="89" y="17" type="line" smooth="yes"/>
      <point x="76" y="3"/>
      <point x="60" y="-3"/>
      <point x="46" y="-3" type="curve" smooth="yes"/>
      <point x="23.8287" y="-3"/>
      <point x="7.16297" y="15.0896"/>
      <point x="7.16297" y="36.6211" type="curve" smooth="yes"/>
      <point x="7.16297" y="39.3682"/>
      <point x="7.43426" y="42.1713"/>
      <point x="8" y="45" type="curve" smooth="yes"/>
      <point x="10" y="55"/>
      <point x="13" y="62"/>
      <point x="23" y="73" type="curve" smooth="yes"/>
      <point x="166" y="229" type="line"/>
      <point x="156.302" y="236.273"/>
      <point x="149.87" y="248.118"/>
      <point x="149.87" y="261.896" type="curve" smooth="yes"/>
      <point x="149.87" y="265.167"/>
      <point x="150.233" y="268.547"/>
      <point x="151" y="272" type="curve" smooth="yes"/>
      <point x="156" y="295"/>
      <point x="176" y="314"/>
      <point x="201" y="319" type="curve" smooth="yes"/>
    </contour>
    <contour>
      <point x="405" y="359" type="line"/>
      <point x="494" y="376" type="line"/>
      <point x="517" y="481" type="line"/>
    </contour>
  </outline>
</glyph>
<glyph name="Eacute" format="1">
  <advance width="636"/>
  <unicode hex="00C9"/>
  <outline>
    <contour>
      <point x="126" y="100" type="line"/>
      <point x="474" y="100" type="line" smooth="yes"/>
      <point x="498.056" y="100"/>
      <point x="513.254" y="83.7619"/>
      <point x="513.254" y="61.4315" type="curve" smooth="yes"/>
      <point x="513.254" y="57.7699"/>
      <point x="512.845" y="53.9445"/>
      <point x="512" y="50" type="curve" smooth="yes"/>
      <point x="506" y="22"/>
      <point x="481" y="0"/>
      <point x="453" y="0" type="curve" smooth="yes"/>
      <point x="56" y="0" type="line" smooth="yes"/>
      <point x="31.6379" y="-3.55271e-15"/>
      <point x="14.846" y="16.6547"/>
      <point x="14.846" y="39.4254" type="curve" smooth="yes"/>
      <point x="14.846" y="42.8256"/>
      <point x="15.2205" y="46.3621"/>
      <point x="16" y="50" type="curve" smooth="yes"/>
      <point x="140" y="632" type="line" smooth="yes"/>
      <point x="146" y="660"/>
      <point x="172" y="682"/>
      <point x="200" y="682" type="curve" smooth="yes"/>
      <point x="599" y="682" type="line" smooth="yes"/>
      <point x="623.214" y="682"/>
      <point x="639.202" y="665.547"/>
      <point x="639.202" y="642.989" type="curve" smooth="yes"/>
      <point x="639.202" y="639.462"/>
      <point x="638.811" y="635.786"/>
      <point x="638" y="632" type="curve" smooth="yes"/>
      <point x="632" y="605"/>
      <point x="606" y="582"/>
      <point x="578" y="582" type="curve" smooth="yes"/>
      <point x="228" y="582" type="line"/>
      <point x="190" y="401" type="line"/>
      <point x="494" y="401" type="line" smooth="yes"/>
      <point x="518.056" y="401"/>
      <point x="533.254" y="385.5"/>
      <point x="533.254" y="363.378" type="curve" smooth="yes"/>
      <point x="533.254" y="359.75"/>
      <point x="532.845" y="355.944"/>
      <point x="532" y="352" type="curve" smooth="yes"/>
      <point x="526" y="324"/>
      <point x="501" y="302"/>
      <point x="473" y="302" type="curve" smooth="yes"/>
      <point x="169" y="302" type="line"/>
    </contour>
    <contour>
      <point x="330" y="790" type="curve" smooth="yes"/>
      <point x="465" y="883" type="line" smooth="yes"/>
      <point x="477" y="891"/>
      <point x="493" y="902"/>
      <point x="510" y="902" type="curve" smooth="yes"/>
      <point x="536.125" y="902"/>
      <point x="553.15" y="883.8"/>
      <point x="553.15" y="858.626" type="curve" smooth="yes"/>
      <point x="553.15" y="854.892"/>
      <point x="552.775" y="851.004"/>
      <point x="552" y="847" type="curve"/>
      <point x="548" y="832"/>
      <point x="540" y="817"/>
      <point x="524" y="807" type="curve" smooth="yes"/>
      <point x="382" y="722" type="line" smooth="yes"/>
      <point x="370" y="715"/>
      <point x="357" y="709"/>
      <point x="346" y="709" type="curve" smooth="yes"/>
      <point x="324.842" y="709"/>
      <point x="309.124" y="725.321"/>
      <point x="309.124" y="747.686" type="curve" smooth="yes"/>
      <point x="309.124" y="750.69"/>
      <point x="309.408" y="753.803"/>
      <point x="310" y="757" type="curve"/>
      <point x="313" y="768"/>
      <point x="318" y="781"/>
    </contour>
  </outline>
</glyph>
<glyph name="Iacute" format="1">
  <advance width="459"/>
  <unicode hex="00CD"/>
  <outline>
    <contour>
      <point x="239" y="99" type="line"/>
      <point x="341" y="581" type="line"/>
      <point x="410" y="581" type="line" smooth="yes"/>
      <point x="438" y="581"/>
      <point x="464" y="604"/>
      <point x="470" y="632" type="curve" smooth="yes"/>
      <point x="476" y="660"/>
      <point x="459" y="681"/>
      <point x="431" y="681" type="curve" smooth="yes"/>
      <point x="192" y="681" type="line" smooth="yes"/>
      <point x="164" y="681"/>
      <point x="138" y="660"/>
      <point x="132" y="632" type="curve" smooth="yes"/>
      <point x="126" y="604"/>
      <point x="143" y="581"/>
      <point x="171" y="581" type="curve" smooth="yes"/>
      <point x="241" y="581" type="line"/>
      <point x="139" y="99" type="line"/>
      <point x="69" y="99" type="line" smooth="yes"/>
      <point x="41" y="99"/>
      <point x="14" y="77"/>
      <point x="8" y="49" type="curve" smooth="yes"/>
      <point x="2" y="21"/>
      <point x="19" y="-1"/>
      <point x="47" y="-1" type="curve" smooth="yes"/>
      <point x="286" y="-1" type="line" smooth="yes"/>
      <point x="314" y="-1"/>
      <point x="340" y="21"/>
      <point x="346" y="49" type="curve" smooth="yes"/>
      <point x="352" y="77"/>
      <point x="338" y="99"/>
      <point x="308" y="99" type="curve" smooth="yes"/>
    </contour>
    <contour>
      <point x="255" y="790" type="line" smooth="yes"/>
      <point x="243" y="781"/>
      <point x="238" y="768"/>
      <point x="235" y="757" type="curve"/>
      <point x="230" y="730"/>
      <point x="247" y="709"/>
      <point x="271" y="709" type="curve" smooth="yes"/>
      <point x="282" y="709"/>
      <point x="295" y="715"/>
      <point x="307" y="722" type="curve" smooth="yes"/>
      <point x="449" y="807" type="line" smooth="yes"/>
      <point x="465" y="817"/>
      <point x="473" y="832"/>
      <point x="477" y="847" type="curve"/>
      <point x="483" y="878"/>
      <point x="465" y="902"/>
      <point x="435" y="902" type="curve" smooth="yes"/>
      <point x="418" y="902"/>
      <point x="402" y="891"/>
      <point x="390" y="883" type="curve" smooth="yes"/>
    </contour>
  </outline>
</glyph>
<glyph name="Icircumflex" format="1">
  <advance width="459"/>
  <unicode hex="00CE"/>
  <outline>
    <contour>
      <point x="239" y="99" type="line"/>
      <point x="308" y="99" type="line" smooth="yes"/>
      <point x="333.43" y="99"/>
      <point x="347.364" y="83.1917"/>
      <point x="347.364" y="61.3207" type="curve" smooth="yes"/>
      <point x="347.364" y="57.3907"/>
      <point x="346.914" y="53.265"/>
      <point x="346" y="49" type="curve" smooth="yes"/>
      <point x="340" y="21"/>
      <point x="314" y="-1"/>
      <point x="286" y="-1" type="curve" smooth="yes"/>
      <point x="47" y="-1" type="line" smooth="yes"/>
      <point x="22.7857" y="-1"/>
      <point x="6.798" y="15.4532"/>
      <point x="6.798" y="38.0115" type="curve" smooth="yes"/>
      <point x="6.798" y="41.5383"/>
      <point x="7.18878" y="45.2143"/>
      <point x="8" y="49" type="curve" smooth="yes"/>
      <point x="14" y="77"/>
      <point x="41" y="99"/>
      <point x="69" y="99" type="curve" smooth="yes"/>
      <point x="139" y="99" type="line"/>
      <point x="241" y="581" type="line"/>
      <point x="171" y="581" type="line" smooth="yes"/>
      <point x="146.786" y="581"/>
      <point x="130.798" y="598.201"/>
      <point x="130.798" y="620.962" type="curve" smooth="yes"/>
      <point x="130.798" y="624.52"/>
      <point x="131.189" y="628.214"/>
      <point x="132" y="632" type="curve" smooth="yes"/>
      <point x="138" y="660"/>
      <point x="164" y="681"/>
      <point x="192" y="681" type="curve" smooth="yes"/>
      <point x="431" y="681" type="line" smooth="yes"/>
      <point x="455.214" y="681"/>
      <point x="471.202" y="665.295"/>
      <point x="471.202" y="642.939" type="curve" smooth="yes"/>
      <point x="471.202" y="639.443"/>
      <point x="470.811" y="635.786"/>
      <point x="470" y="632" type="curve" smooth="yes"/>
      <point x="464" y="604"/>
      <point x="438" y="581"/>
      <point x="410" y="581" type="curve" smooth="yes"/>
      <point x="341" y="581" type="line"/>
    </contour>
    <contour>
      <point x="198" y="786" type="curve" smooth="yes"/>
      <point x="338" y="886" type="line" smooth="yes"/>
      <point x="351" y="895"/>
      <point x="363" y="898"/>
      <point x="372" y="898" type="curve" smooth="yes"/>
      <point x="384" y="898"/>
      <point x="397" y="892"/>
      <point x="407" y="880" type="curve" smooth="yes"/>
      <point x="482" y="784" type="line" smooth="yes"/>
      <point x="487.668" y="776.915"/>
      <point x="490.324" y="769.328"/>
      <point x="490.324" y="760.884" type="curve" smooth="yes"/>
      <point x="490.324" y="757.409"/>
      <point x="489.875" y="753.79"/>
      <point x="489" y="750" type="curve" smooth="yes"/>
      <point x="484" y="725"/>
      <point x="458" y="703"/>
      <point x="433" y="703" type="curve" smooth="yes"/>
      <point x="421" y="703"/>
      <point x="411" y="705"/>
      <point x="402" y="715" type="curve" smooth="yes"/>
      <point x="344" y="781" type="line"/>
      <point x="240" y="712" type="line" smooth="yes"/>
      <point x="227" y="704"/>
      <point x="219" y="703"/>
      <point x="209" y="703" type="curve" smooth="yes"/>
      <point x="187.277" y="703"/>
      <point x="170.839" y="718.1"/>
      <point x="170.839" y="739.772" type="curve" smooth="yes"/>
      <point x="170.839" y="743.042"/>
      <point x="171.213" y="746.461"/>
      <point x="172" y="750" type="curve" smooth="yes"/>
      <point x="175" y="763"/>
      <point x="183" y="776"/>
    </contour>
  </outline>
</glyph>
<glyph name="Idieresis" format="1">
  <advance width="459"/>
  <unicode hex="00CF"/>
  <outline>
    <contour>
      <point x="309" y="767" type="curve" smooth="yes"/>
      <point x="301" y="732"/>
      <point x="264" y="703"/>
      <point x="224" y="703" type="curve" smooth="yes"/>
      <point x="192.216" y="703"/>
      <point x="169.786" y="721.708"/>
      <point x="169.786" y="750.177" type="curve" smooth="yes"/>
      <point x="169.786" y="753.953"/>
      <point x="170.18" y="757.901"/>
      <point x="171" y="762" type="curve"/>
      <point x="179" y="796"/>
      <point x="216" y="827"/>
      <point x="255" y="827" type="curve" smooth="yes"/>
      <point x="285.344" y="827"/>
      <point x="310.112" y="806.291"/>
      <point x="310.112" y="777.668" type="curve" smooth="yes"/>
      <point x="310.112" y="774.22"/>
      <point x="309.753" y="770.656"/>
    </contour>
    <contour>
      <point x="497" y="767" type="curve" smooth="yes"/>
      <point x="489" y="732"/>
      <point x="452" y="703"/>
      <point x="412" y="703" type="curve" smooth="yes"/>
      <point x="380.216" y="703"/>
      <point x="357.786" y="721.708"/>
      <point x="357.786" y="750.177" type="curve" smooth="yes"/>
      <point x="357.786" y="753.953"/>
      <point x="358.18" y="757.901"/>
      <point x="359" y="762" type="curve"/>
      <point x="367" y="796"/>
      <point x="404" y="827"/>
      <point x="444" y="827" type="curve" smooth="yes"/>
      <point x="473.445" y="827"/>
      <point x="498.114" y="806.3"/>
      <point x="498.114" y="777.686" type="curve" smooth="yes"/>
      <point x="498.114" y="774.232"/>
      <point x="497.754" y="770.662"/>
    </contour>
    <contour>
      <point x="239" y="99" type="line"/>
      <point x="308" y="99" type="line" smooth="yes"/>
      <point x="333.43" y="99"/>
      <point x="347.364" y="83.1917"/>
      <point x="347.364" y="61.3207" type="curve" smooth="yes"/>
      <point x="347.364" y="57.3907"/>
      <point x="346.914" y="53.265"/>
      <point x="346" y="49" type="curve" smooth="yes"/>
      <point x="340" y="21"/>
      <point x="314" y="-1"/>
      <point x="286" y="-1" type="curve" smooth="yes"/>
      <point x="47" y="-1" type="line" smooth="yes"/>
      <point x="22.7857" y="-1"/>
      <point x="6.798" y="15.4532"/>
      <point x="6.798" y="38.0115" type="curve" smooth="yes"/>
      <point x="6.798" y="41.5383"/>
      <point x="7.18878" y="45.2143"/>
      <point x="8" y="49" type="curve" smooth="yes"/>
      <point x="14" y="77"/>
      <point x="41" y="99"/>
      <point x="69" y="99" type="curve" smooth="yes"/>
      <point x="139" y="99" type="line"/>
      <point x="241" y="581" type="line"/>
      <point x="171" y="581" type="line" smooth="yes"/>
      <point x="146.786" y="581"/>
      <point x="130.798" y="598.201"/>
      <point x="130.798" y="620.962" type="curve" smooth="yes"/>
      <point x="130.798" y="624.52"/>
      <point x="131.189" y="628.214"/>
      <point x="132" y="632" type="curve" smooth="yes"/>
      <point x="138" y="660"/>
      <point x="164" y="681"/>
      <point x="192" y="681" type="curve" smooth="yes"/>
      <point x="431" y="681" type="line" smooth="yes"/>
      <point x="455.214" y="681"/>
      <point x="471.202" y="665.295"/>
      <point x="471.202" y="642.939" type="curve" smooth="yes"/>
      <point x="471.202" y="639.443"/>
      <point x="470.811" y="635.786"/>
      <point x="470" y="632" type="curve" smooth="yes"/>
      <point x="464" y="604"/>
      <point x="438" y="581"/>
      <point x="410" y="581" type="curve" smooth="yes"/>
      <point x="341" y="581" type="line"/>
    </contour>
  </outline>
</glyph>
<glyph name="Ntilde" format="1">
  <advance width="645"/>
  <unicode hex="00D1"/>
  <outline>
    <contour>
      <point x="422" y="22" type="line" smooth="yes"/>
      <point x="429" y="8"/>
      <point x="444" y="0"/>
      <point x="459" y="0" type="curve" smooth="yes"/>
      <point x="486" y="0"/>
      <point x="512" y="20"/>
      <point x="518" y="49" type="curve" smooth="yes"/>
      <point x="642" y="632" type="line" smooth="yes"/>
      <point x="648" y="659"/>
      <point x="629" y="682"/>
      <point x="603" y="682" type="curve" smooth="yes"/>
      <point x="575" y="682"/>
      <point x="549" y="659"/>
      <point x="543" y="632" type="curve" smooth="yes"/>
      <point x="452" y="207" type="line"/>
      <point x="236" y="660" type="line" smooth="yes"/>
      <point x="230" y="673"/>
      <point x="214" y="681"/>
      <point x="199" y="681" type="curve" smooth="yes"/>
      <point x="170" y="681"/>
      <point x="146" y="658"/>
      <point x="141" y="632" type="curve" smooth="yes"/>
      <point x="16" y="49" type="line" smooth="yes"/>
      <point x="10" y="23"/>
      <point x="29" y="0"/>
      <point x="55" y="0" type="curve" smooth="yes"/>
      <point x="83" y="0"/>
      <point x="109" y="21"/>
      <point x="115" y="49" type="curve" smooth="yes"/>
      <point x="206" y="473" type="line"/>
    </contour>
    <contour>
      <point x="579" y="871" type="curve" smooth="yes"/>
      <point x="553" y="817"/>
      <point x="522" y="793"/>
      <point x="501" y="793" type="curve" smooth="yes"/>
      <point x="486" y="793"/>
      <point x="478" y="807"/>
      <point x="467" y="829" type="curve" smooth="yes"/>
      <point x="451" y="860"/>
      <point x="429" y="877"/>
      <point x="390" y="877" type="curve" smooth="yes"/>
      <point x="312" y="877"/>
      <point x="259" y="810"/>
      <point x="230" y="753" type="curve" smooth="yes"/>
      <point x="224" y="742"/>
      <point x="223" y="735"/>
      <point x="222" y="731" type="curve" smooth="yes"/>
      <point x="217" y="708"/>
      <point x="235" y="698"/>
      <point x="254" y="698" type="curve" smooth="yes"/>
      <point x="269" y="698"/>
      <point x="279" y="705"/>
      <point x="288" y="720" type="curve"/>
      <point x="296" y="736"/>
      <point x="324" y="788"/>
      <point x="359" y="788" type="curve" smooth="yes"/>
      <point x="374" y="788"/>
      <point x="382" y="776"/>
      <point x="394" y="753" type="curve" smooth="yes"/>
      <point x="409" y="722"/>
      <point x="432" y="705"/>
      <point x="464" y="705" type="curve" smooth="yes"/>
      <point x="565" y="705"/>
      <point x="622" y="807"/>
      <point x="639" y="838" type="curve"/>
      <point x="644" y="849"/>
      <point x="645" y="856"/>
      <point x="646" y="860" type="curve" smooth="yes"/>
      <point x="651" y="883"/>
      <point x="633" y="893"/>
      <point x="614" y="893" type="curve" smooth="yes"/>
      <point x="599" y="893"/>
      <point x="586" y="886"/>
    </contour>
  </outline>
</glyph>
<glyph name="Ograve" format="1">
  <advance width="686"/>
  <unicode hex="00D2"/>
  <outline>
    <contour>
      <point x="256" y="-2" type="curve" smooth="yes"/>
      <point x="131.853" y="-2"/>
      <point x="59.0787" y="99.3567"/>
      <point x="59.0787" y="232.08" type="curve" smooth="yes"/>
      <point x="59.0787" y="258.65"/>
      <point x="61.9952" y="286.477"/>
      <point x="68" y="315" type="curve" smooth="yes"/>
      <point x="111" y="514"/>
      <point x="283" y="682"/>
      <point x="440" y="682" type="curve" smooth="yes"/>
      <point x="562.538" y="682"/>
      <point x="637.13" y="581.938"/>
      <point x="637.13" y="448.427" type="curve" smooth="yes"/>
      <point x="637.13" y="421.774"/>
      <point x="634.157" y="393.789"/>
      <point x="628" y="365" type="curve" smooth="yes"/>
      <point x="586" y="166"/>
      <point x="414" y="-2"/>
    </contour>
    <contour>
      <point x="414" y="587" type="curve" smooth="yes"/>
      <point x="311" y="587"/>
      <point x="197" y="466"/>
      <point x="164" y="315" type="curve"/>
      <point x="159.396" y="292.719"/>
      <point x="157.166" y="271.116"/>
      <point x="157.166" y="250.697" type="curve" smooth="yes"/>
      <point x="157.166" y="160.228"/>
      <point x="200.941" y="93"/>
      <point x="276" y="93" type="curve" smooth="yes"/>
      <point x="379" y="93"/>
      <point x="501" y="216"/>
      <point x="532" y="361" type="curve" smooth="yes"/>
      <point x="536.267" y="381.27"/>
      <point x="538.353" y="401.477"/>
      <point x="538.353" y="421.002" type="curve" smooth="yes"/>
      <point x="538.353" y="511.288"/>
      <point x="493.753" y="587"/>
    </contour>
    <contour>
      <point x="461" y="713" type="curve" smooth="yes"/>
      <point x="378" y="824" type="line" smooth="yes"/>
      <point x="372.144" y="831.321"/>
      <point x="368.431" y="839.713"/>
      <point x="368.431" y="849.962" type="curve" smooth="yes"/>
      <point x="368.431" y="853.713"/>
      <point x="368.928" y="857.713"/>
      <point x="370" y="862" type="curve" smooth="yes"/>
      <point x="376" y="890"/>
      <point x="407" y="916"/>
      <point x="435" y="916" type="curve" smooth="yes"/>
      <point x="453" y="916"/>
      <point x="467" y="906"/>
      <point x="475" y="894" type="curve"/>
      <point x="544" y="775" type="line" smooth="yes"/>
      <point x="548.963" y="766.492"/>
      <point x="550.91" y="759.995"/>
      <point x="550.91" y="753.37" type="curve" smooth="yes"/>
      <point x="550.91" y="750.651"/>
      <point x="550.582" y="747.91"/>
      <point x="550" y="745" type="curve" smooth="yes"/>
      <point x="544" y="718"/>
      <point x="516" y="698"/>
      <point x="492" y="698" type="curve" smooth="yes"/>
      <point x="477" y="698"/>
      <point x="467" y="704"/>
    </contour>
  </outline>
</glyph>
<glyph name="Oacute" format="1">
  <advance width="686"/>
  <unicode hex="00D3"/>
  <outline>
    <contour>
      <point x="256" y="-2" type="curve" smooth="yes"/>
      <point x="414" y="-2"/>
      <point x="586" y="166"/>
      <point x="628" y="365" type="curve" smooth="yes"/>
      <point x="665" y="538"/>
      <point x="587" y="682"/>
      <point x="440" y="682" type="curve" smooth="yes"/>
      <point x="283" y="682"/>
      <point x="111" y="514"/>
      <point x="68" y="315" type="curve" smooth="yes"/>
      <point x="32" y="144"/>
      <point x="107" y="-2"/>
    </contour>
    <contour>
      <point x="414" y="587" type="curve" smooth="yes"/>
      <point x="511" y="587"/>
      <point x="556" y="475"/>
      <point x="532" y="361" type="curve" smooth="yes"/>
      <point x="501" y="216"/>
      <point x="379" y="93"/>
      <point x="276" y="93" type="curve" smooth="yes"/>
      <point x="184" y="93"/>
      <point x="139" y="194"/>
      <point x="164" y="315" type="curve"/>
      <point x="197" y="466"/>
      <point x="311" y="587"/>
    </contour>
    <contour>
      <point x="380" y="790" type="line" smooth="yes"/>
      <point x="368" y="781"/>
      <point x="363" y="768"/>
      <point x="360" y="757" type="curve"/>
      <point x="355" y="730"/>
      <point x="372" y="709"/>
      <point x="396" y="709" type="curve" smooth="yes"/>
      <point x="407" y="709"/>
      <point x="420" y="715"/>
      <point x="432" y="722" type="curve" smooth="yes"/>
      <point x="574" y="807" type="line" smooth="yes"/>
      <point x="590" y="817"/>
      <point x="598" y="832"/>
      <point x="602" y="847" type="curve"/>
      <point x="608" y="878"/>
      <point x="590" y="902"/>
      <point x="560" y="902" type="curve" smooth="yes"/>
      <point x="543" y="902"/>
      <point x="527" y="891"/>
      <point x="515" y="883" type="curve" smooth="yes"/>
    </contour>
  </outline>
</glyph>
<glyph name="Otilde" format="1">
  <advance width="686"/>
  <unicode hex="00D5"/>
  <outline>
    <contour>
      <point x="256" y="-2" type="curve" smooth="yes"/>
      <point x="131.853" y="-2"/>
      <point x="59.0787" y="99.3567"/>
      <point x="59.0787" y="232.08" type="curve" smooth="yes"/>
      <point x="59.0787" y="258.65"/>
      <point x="61.9952" y="286.477"/>
      <point x="68" y="315" type="curve" smooth="yes"/>
      <point x="111" y="514"/>
      <point x="283" y="682"/>
      <point x="440" y="682" type="curve" smooth="yes"/>
      <point x="562.538" y="682"/>
      <point x="637.13" y="581.938"/>
      <point x="637.13" y="448.427" type="curve" smooth="yes"/>
      <point x="637.13" y="421.774"/>
      <point x="634.157" y="393.789"/>
      <point x="628" y="365" type="curve" smooth="yes"/>
      <point x="586" y="166"/>
      <point x="414" y="-2"/>
    </contour>
    <contour>
      <point x="414" y="587" type="curve" smooth="yes"/>
      <point x="311" y="587"/>
      <point x="197" y="466"/>
      <point x="164" y="315" type="curve"/>
      <point x="159.396" y="292.719"/>
      <point x="157.166" y="271.116"/>
      <point x="157.166" y="250.697" type="curve" smooth="yes"/>
      <point x="157.166" y="160.228"/>
      <point x="200.941" y="93"/>
      <point x="276" y="93" type="curve" smooth="yes"/>
      <point x="379" y="93"/>
      <point x="501" y="216"/>
      <point x="532" y="361" type="curve" smooth="yes"/>
      <point x="536.267" y="381.27"/>
      <point x="538.353" y="401.477"/>
      <point x="538.353" y="421.002" type="curve" smooth="yes"/>
      <point x="538.353" y="511.288"/>
      <point x="493.753" y="587"/>
    </contour>
    <contour>
      <point x="624" y="871" type="curve" smooth="yes"/>
      <point x="631" y="886"/>
      <point x="644" y="893"/>
      <point x="659" y="893" type="curve" smooth="yes"/>
      <point x="675.815" y="893"/>
      <point x="691.846" y="885.168"/>
      <point x="691.846" y="867.425" type="curve" smooth="yes"/>
      <point x="691.846" y="865.119"/>
      <point x="691.575" y="862.646"/>
      <point x="691" y="860" type="curve" smooth="yes"/>
      <point x="690" y="856"/>
      <point x="689" y="849"/>
      <point x="684" y="838" type="curve"/>
      <point x="667" y="807"/>
      <point x="610" y="705"/>
      <point x="509" y="705" type="curve" smooth="yes"/>
      <point x="477" y="705"/>
      <point x="454" y="722"/>
      <point x="439" y="753" type="curve" smooth="yes"/>
      <point x="427" y="776"/>
      <point x="419" y="788"/>
      <point x="404" y="788" type="curve" smooth="yes"/>
      <point x="369" y="788"/>
      <point x="341" y="736"/>
      <point x="333" y="720" type="curve"/>
      <point x="324" y="705"/>
      <point x="314" y="698"/>
      <point x="299" y="698" type="curve" smooth="yes"/>
      <point x="282.185" y="698"/>
      <point x="266.154" y="705.832"/>
      <point x="266.154" y="723.575" type="curve" smooth="yes"/>
      <point x="266.154" y="725.881"/>
      <point x="266.425" y="728.354"/>
      <point x="267" y="731" type="curve" smooth="yes"/>
      <point x="268" y="735"/>
      <point x="269" y="742"/>
      <point x="275" y="753" type="curve" smooth="yes"/>
      <point x="304" y="810"/>
      <point x="357" y="877"/>
      <point x="435" y="877" type="curve" smooth="yes"/>
      <point x="474" y="877"/>
      <point x="496" y="860"/>
      <point x="512" y="829" type="curve" smooth="yes"/>
      <point x="523" y="807"/>
      <point x="531" y="793"/>
      <point x="546" y="793" type="curve" smooth="yes"/>
      <point x="567" y="793"/>
      <point x="598" y="817"/>
    </contour>
  </outline>
</glyph>
<glyph name="multiply" format="1">
  <advance width="467"/>
  <unicode hex="00D7"/>
  <outline>
    <contour>
      <point x="139" y="123" type="curve" smooth="yes"/>
      <point x="160" y="141"/>
      <point x="183" y="159"/>
      <point x="205" y="177" type="curve"/>
      <point x="248" y="124" type="line" smooth="yes"/>
      <point x="255" y="116"/>
      <point x="265" y="110"/>
      <point x="278" y="110" type="curve" smooth="yes"/>
      <point x="303" y="110"/>
      <point x="328" y="129"/>
      <point x="334" y="157" type="curve" smooth="yes"/>
      <point x="337" y="171"/>
      <point x="334" y="182"/>
      <point x="328" y="190" type="curve" smooth="yes"/>
      <point x="286" y="243" type="line"/>
      <point x="352" y="297" type="line" smooth="yes"/>
      <point x="360" y="304"/>
      <point x="368" y="316"/>
      <point x="370" y="328" type="curve" smooth="yes"/>
      <point x="376" y="354"/>
      <point x="365" y="376"/>
      <point x="332" y="376" type="curve" smooth="yes"/>
      <point x="321" y="376"/>
      <point x="308" y="371"/>
      <point x="299" y="363" type="curve" smooth="yes"/>
      <point x="234" y="310" type="line"/>
      <point x="197" y="356" type="line" smooth="yes"/>
      <point x="190" y="364"/>
      <point x="181" y="370"/>
      <point x="166" y="370" type="curve" smooth="yes"/>
      <point x="141" y="370"/>
      <point x="115" y="346"/>
      <point x="110" y="323" type="curve" smooth="yes"/>
      <point x="107" y="309"/>
      <point x="110" y="298"/>
      <point x="116" y="290" type="curve" smooth="yes"/>
      <point x="154" y="243" type="line"/>
      <point x="88" y="189" type="line" smooth="yes"/>
      <point x="78" y="181"/>
      <point x="69" y="168"/>
      <point x="66" y="155" type="curve" smooth="yes"/>
      <point x="62" y="134"/>
      <point x="76" y="109"/>
      <point x="104" y="109" type="curve" smooth="yes"/>
      <point x="118" y="109"/>
      <point x="128" y="114"/>
    </contour>
  </outline>
</glyph>
<glyph name="Ugrave" format="1">
  <advance width="709"/>
  <unicode hex="00D9"/>
  <outline>
    <contour>
      <point x="441" y="713" type="line" smooth="yes"/>
      <point x="447" y="704"/>
      <point x="457" y="698"/>
      <point x="472" y="698" type="curve" smooth="yes"/>
      <point x="496" y="698"/>
      <point x="524" y="718"/>
      <point x="530" y="745" type="curve" smooth="yes"/>
      <point x="532" y="755"/>
      <point x="531" y="763"/>
      <point x="524" y="775" type="curve" smooth="yes"/>
      <point x="455" y="894" type="line"/>
      <point x="447" y="906"/>
      <point x="433" y="916"/>
      <point x="415" y="916" type="curve" smooth="yes"/>
      <point x="387" y="916"/>
      <point x="356" y="890"/>
      <point x="350" y="862" type="curve" smooth="yes"/>
      <point x="346" y="846"/>
      <point x="350" y="834"/>
      <point x="358" y="824" type="curve" smooth="yes"/>
    </contour>
    <contour>
      <point x="701" y="633" type="curve" smooth="yes"/>
      <point x="704" y="648"/>
      <point x="705" y="681"/>
      <point x="662" y="681" type="curve" smooth="yes"/>
      <point x="619" y="681"/>
      <point x="605" y="647"/>
      <point x="602" y="631" type="curve" smooth="yes"/>
      <point x="573" y="498"/>
      <point x="557" y="397"/>
      <point x="518" y="277" type="curve" smooth="yes"/>
      <point x="473" y="139"/>
      <point x="383" y="92"/>
      <point x="300" y="92" type="curve" smooth="yes"/>
      <point x="169" y="92"/>
      <point x="163" y="236"/>
      <point x="188" y="381" type="curve"/>
      <point x="205" y="474"/>
      <point x="221" y="544"/>
      <point x="242" y="633" type="curve"/>
      <point x="245" y="649"/>
      <point x="244" y="681"/>
      <point x="204" y="681" type="curve" smooth="yes"/>
      <point x="163" y="681"/>
      <point x="146" y="650"/>
      <point x="142" y="634" type="curve" smooth="yes"/>
      <point x="123" y="549"/>
      <point x="105" y="474"/>
      <point x="86" y="367" type="curve" smooth="yes"/>
      <point x="47" y="151"/>
      <point x="110" y="0"/>
      <point x="279" y="0" type="curve" smooth="yes"/>
      <point x="456" y="0"/>
      <point x="561" y="110"/>
      <point x="616" y="270" type="curve" smooth="yes"/>
      <point x="661" y="400"/>
      <point x="678" y="507"/>
    </contour>
  </outline>
</glyph>
<glyph name="Uacute" format="1">
  <advance width="709"/>
  <unicode hex="00DA"/>
  <outline>
    <contour>
      <point x="701" y="633" type="curve" smooth="yes"/>
      <point x="678" y="507"/>
      <point x="661" y="400"/>
      <point x="616" y="270" type="curve" smooth="yes"/>
      <point x="561" y="110"/>
      <point x="456" y="0"/>
      <point x="279" y="0" type="curve" smooth="yes"/>
      <point x="142.189" y="-1.42109e-14"/>
      <point x="74.844" y="98.9573"/>
      <point x="74.844" y="251.247" type="curve" smooth="yes"/>
      <point x="74.844" y="287.077"/>
      <point x="78.5719" y="325.86"/>
      <point x="86" y="367" type="curve" smooth="yes"/>
      <point x="105" y="474"/>
      <point x="123" y="549"/>
      <point x="142" y="634" type="curve" smooth="yes"/>
      <point x="146" y="650"/>
      <point x="163" y="681"/>
      <point x="204" y="681" type="curve" smooth="yes"/>
      <point x="236" y="681"/>
      <point x="243.04" y="660.52"/>
      <point x="243.04" y="644.136" type="curve" smooth="yes"/>
      <point x="243.04" y="640.04"/>
      <point x="242.6" y="636.2"/>
      <point x="242" y="633" type="curve"/>
      <point x="221" y="544"/>
      <point x="205" y="474"/>
      <point x="188" y="381" type="curve"/>
      <point x="180.941" y="340.059"/>
      <point x="176.354" y="299.197"/>
      <point x="176.354" y="261.634" type="curve" smooth="yes"/>
      <point x="176.354" y="166.162"/>
      <point x="205.988" y="92"/>
      <point x="300" y="92" type="curve" smooth="yes"/>
      <point x="383" y="92"/>
      <point x="473" y="139"/>
      <point x="518" y="277" type="curve" smooth="yes"/>
      <point x="557" y="397"/>
      <point x="573" y="498"/>
      <point x="602" y="631" type="curve" smooth="yes"/>
      <point x="605" y="647"/>
      <point x="619" y="681"/>
      <point x="662" y="681" type="curve" smooth="yes"/>
      <point x="695.374" y="681"/>
      <point x="702.243" y="661.121"/>
      <point x="702.243" y="645.207" type="curve" smooth="yes"/>
      <point x="702.243" y="640.618"/>
      <point x="701.672" y="636.358"/>
    </contour>
    <contour>
      <point x="380" y="790" type="curve" smooth="yes"/>
      <point x="515" y="883" type="line" smooth="yes"/>
      <point x="527" y="891"/>
      <point x="543" y="902"/>
      <point x="560" y="902" type="curve" smooth="yes"/>
      <point x="586.125" y="902"/>
      <point x="603.15" y="883.8"/>
      <point x="603.15" y="858.626" type="curve" smooth="yes"/>
      <point x="603.15" y="854.892"/>
      <point x="602.775" y="851.004"/>
      <point x="602" y="847" type="curve"/>
      <point x="598" y="832"/>
      <point x="590" y="817"/>
      <point x="574" y="807" type="curve" smooth="yes"/>
      <point x="432" y="722" type="line" smooth="yes"/>
      <point x="420" y="715"/>
      <point x="407" y="709"/>
      <point x="396" y="709" type="curve" smooth="yes"/>
      <point x="374.842" y="709"/>
      <point x="359.124" y="725.321"/>
      <point x="359.124" y="747.686" type="curve" smooth="yes"/>
      <point x="359.124" y="750.69"/>
      <point x="359.408" y="753.803"/>
      <point x="360" y="757" type="curve"/>
      <point x="363" y="768"/>
      <point x="368" y="781"/>
    </contour>
  </outline>
</glyph>
<glyph name="Ucircumflex" format="1">
  <advance width="709"/>
  <unicode hex="00DB"/>
  <outline>
    <contour>
      <point x="701" y="633" type="curve" smooth="yes"/>
      <point x="704" y="648"/>
      <point x="705" y="681"/>
      <point x="662" y="681" type="curve" smooth="yes"/>
      <point x="619" y="681"/>
      <point x="605" y="647"/>
      <point x="602" y="631" type="curve" smooth="yes"/>
      <point x="573" y="498"/>
      <point x="557" y="397"/>
      <point x="518" y="277" type="curve" smooth="yes"/>
      <point x="473" y="139"/>
      <point x="383" y="92"/>
      <point x="300" y="92" type="curve" smooth="yes"/>
      <point x="169" y="92"/>
      <point x="163" y="236"/>
      <point x="188" y="381" type="curve"/>
      <point x="205" y="474"/>
      <point x="221" y="544"/>
      <point x="242" y="633" type="curve"/>
      <point x="245" y="649"/>
      <point x="244" y="681"/>
      <point x="204" y="681" type="curve" smooth="yes"/>
      <point x="163" y="681"/>
      <point x="146" y="650"/>
      <point x="142" y="634" type="curve" smooth="yes"/>
      <point x="123" y="549"/>
      <point x="105" y="474"/>
      <point x="86" y="367" type="curve" smooth="yes"/>
      <point x="47" y="151"/>
      <point x="110" y="0"/>
      <point x="279" y="0" type="curve" smooth="yes"/>
      <point x="456" y="0"/>
      <point x="561" y="110"/>
      <point x="616" y="270" type="curve" smooth="yes"/>
      <point x="661" y="400"/>
      <point x="678" y="507"/>
    </contour>
    <contour>
      <point x="323" y="786" type="line" smooth="yes"/>
      <point x="308" y="776"/>
      <point x="300" y="763"/>
      <point x="297" y="750" type="curve" smooth="yes"/>
      <point x="291" y="723"/>
      <point x="309" y="703"/>
      <point x="334" y="703" type="curve" smooth="yes"/>
      <point x="344" y="703"/>
      <point x="352" y="704"/>
      <point x="365" y="712" type="curve" smooth="yes"/>
      <point x="469" y="781" type="line"/>
      <point x="527" y="715" type="line" smooth="yes"/>
      <point x="536" y="705"/>
      <point x="546" y="703"/>
      <point x="558" y="703" type="curve" smooth="yes"/>
      <point x="583" y="703"/>
      <point x="609" y="725"/>
      <point x="614" y="750" type="curve" smooth="yes"/>
      <point x="617" y="763"/>
      <point x="615" y="774"/>
      <point x="607" y="784" type="curve" smooth="yes"/>
      <point x="532" y="880" type="line" smooth="yes"/>
      <point x="522" y="892"/>
      <point x="509" y="898"/>
      <point x="497" y="898" type="curve" smooth="yes"/>
      <point x="488" y="898"/>
      <point x="476" y="895"/>
      <point x="463" y="886" type="curve" smooth="yes"/>
    </contour>
  </outline>
</glyph>
